<mxfile host="Electron" agent="Mozilla/5.0 (X11; Linux x86_64) AppleWebKit/537.36 (KHTML, like Gecko) draw.io/28.0.6 Chrome/138.0.7204.100 Electron/37.2.3 Safari/537.36" version="28.0.6">
  <diagram name="PÃ¡gina-1" id="GOs5G20gfHr8qNgVtABF">
    <mxGraphModel dx="2073" dy="773" grid="1" gridSize="10" guides="1" tooltips="1" connect="1" arrows="1" fold="1" page="1" pageScale="1" pageWidth="827" pageHeight="1169" math="0" shadow="0">
      <root>
        <mxCell id="0" />
        <mxCell id="1" parent="0" />
        <mxCell id="0wOUTwKlv7GaTqWgaDpC-1" value="" style="shape=image;verticalLabelPosition=bottom;labelBackgroundColor=default;verticalAlign=top;aspect=fixed;imageAspect=0;image=data:image/png,iVBORw0KGgoAAAANSUhEUgAAAnsAAAFUCAIAAADTRG2+AAAAA3NCSVQICAjb4U/gAAAgAElEQVR4Xuzdd6BtRXU/8BiNaGKNxBI1FhCNJWrsChbsBVRs2KXYC2IIih0rNhAFBSUIWEEMVkQNGAUUscdesJvEWMCaaDT+Prreb96w98ycfc4993HffXP/eO+c2bPXrPnOmrXWrJkz63y///3v/+RP/uSzn/3sb3/7Wx/6X0egI9AR6Ah0BDoCy0XgOte5zgUveME/XS7RTq0j0BHoCHQEOgIdgSIC3eIWYemFHYGOQEegI9ARWDIC3eIuGdBOriPQEegIdAQ6AkUEusUtwtILOwIdgY5AR6AjsGQEusVdMqCdXEegI9AR6Ah0BIoIdItbhKUXdgQ6Ah2BjkBHYMkIdIu7ZEA7uY5AR6Aj0BHoCBQR6Ba3CEsv7Ah0BDoCHYGOwJIR6BZ3yYB2ch2BjkBHoCPQESgi0C1uEZZe2BHoCHQEOgIdgSUj0C3ukgHt5DoCHYGOQEegI1BEoFvcIiy9sCPQEegIdAQ6AktGoFvcJQPayXUEOgIdgY5AR6CIQLe4RVh6YUegI9AR6Ah0BJaMQLe4Swa0k+sIdAQ6Ah2BjkARgW5xi7D0wo5AR6Aj0BHoCCwZgQsEva997Wsf+tCHBrSvfvWrX+Ma19hrr70e+chH3uIWtxi3/IlPfOK9733vuPz2t7/9TW9603F5XvK73/3uv/7rvy53ucu1q22ypz/4wQ9e85rXbL311o9+9KMXbnStdWrhjvQXOwIdgY5AR2DpCGywuF/60pcOOeSQAfVddtnlZje72UUucpEXvehFxx9/vPz1gwrf+MY33vGOd4x5uvKVr9y2uJ/97Gef97zn7bzzzg9+8IPHr58nJT/96U/15UpXutLCFncNduo8QbI32hHoCHQEOgJFBDZY3Otc5zr77rtv1LBQe/WrX+3fe9zjHkrufve7P+1pTzvppJMYyCKJv/u7v3vKU56SP/qrv/qrYs1U+J73vOeb3/xmu84mfnqFK1zhVa961YUudKGF212DnVq4L/3FjkBHoCPQEVg6Ahss7lWucpUrXvGKQf2oo4761a9+9Y//+I/XvOY1lYgnX+ACF3jb295Ws7h/8Rd/sd122405O/LII7/whS88/OEPf+c73/mpT31KAPn+97//jW984xNPPPGMM85Q/13vetd//Md/sPSHHnqo5fK9733v173udX/6p3/6kpe8ZKuttvL6aaed9n//9383utGN9thjj4td7GJeqdH06Ne//vU//dM/CXT//Oc//8u//Ms73OEO97rXvZTj/CMf+cgDHvCAD37wgx//+Mcvc5nLPPGJTzz77LNV/slPfnLzm9/covbP/uzPzjnnnGOPPdZTDoS3BJkPP/zwz3/+85b4t7vd7XbddVeMKX/qU5/qw+67737YYYd997vfvdrVribkfvnLX37cKZUF6k844YR///d/F6y+y13ucre73S1Q+tGPfhQd+c1vfvPXf/3XYLnhDW8Yj/q/HYGOQEegI7BeEdhgcVP3mEDbmSzofe5znyhkcq561at+8YtfFHe9+MUvPgbi+9//PiOdlz/oQQ9ipP/t3/6Nyfzc5z7H3vz2t7899dRTmUOW6Xvf+94Pf/hD9X2INSV7LCT7yU9+8pe//KW15kUvelH2noHkBPj8xje+0YuaYBdrNFV74Qtf+O53v5sB89anP/1p1C55yUvuuOOOX/nKV1i+MPn/+7//y/p++ctf5lJY1rOFxxxzDFv+sIc97Be/+IVqosoY85RNZXSvfe1r//jHPz7wwAMZ1yc/+cke6YW+fPSjH91mm208sv+t+4z3uFMov+IVr2Ce9Qg/Z555pnb32WcfRB7/+MefddZZt7rVrTgWp5xyCpSOPvpoW+ZjbHtJR6Aj0BHoCKwbBIYWl3mz8Npzzz1jSRf9ZF2++tWvWrBaEY57/p3vfGewB3zf+96XxY2aVqjPf/7z0RSjdlSK5X7EIx5hkffP//zPFpf5Pq7F5QEHHMDoMqvMLTP/pje9CR0x7fe9730s0x3veMcazZvc5CZeZ3cZM/vNnAZ/NqdZ3NQFJYjf9ra3tbRl0e93v/u95S1veelLX2ohO+iUxS5zi+GnP/3pOOd8WCjvtttul770pdVkth/72Mfa5LYu11PcKhl0ShNi1DC0UL7+9a8vhP6QhzxEc5a5fAJ22ircK5bIzO3PfvYzX8fA9pKOQEegI9ARWE8InMviWts5PWQX9ta3vnXeyYjosiLFnlsQi/rmj/Ld0DhCxQpaPrK4//M//1MkovBOd7rTn//xj3H1la0VevUBV/61CE4Wt0iTCWT8LBatqq1ovSLOnNryCvvHJOMNwe23396jsKBs6oAlplqJyDMj7YNXBLcZ5mS/gwE+AZoeacj6OydihW0pfL3rXY+5VS5ov8MOO7z//e//2Mc+9tCHPtRy1npXMNnqHykB5+BkwEb/2hHoCHQEOgLrCYFzWVz24L//+7932mmnfIGrt7FgZVqKPb/UpS5l4Vh8pPDCF75wPAoiv//972s1L3GJS8QjAV4fbKx+5jOfiRK7v7lNKtK0krZpKqTMhomEM29pnY2I+G2Qiq6FTxCfxywFA8LF0PCWDvrL3YicAQZ7TMGq14upms/xejgBr3zlKwXJreOFtUXC/cWaOzjs/3YEOgIdgY7AukTgXBbXHqdO3uAGNxh01VkkJbZFF4DgfOc73/itoqlLBjLOcFkXOlHlXQtWK+M4xhWkxjS//e1vM7essl8xnf/85xfRHTc6vcTOq21XZ6/s5nrr5JNP1vdrXetaicKYAY/yTm277bZKxOFFjEUIGGBb0UqsbnkStnXtIu+99952zYXxRZs//OEPi3JP57DX7Ah0BDoCHYHNDoFzWVzHeXRgfPDYuSHlLsQodk8U18mj/JFd1favWoWO1bc7yyA97nGPG5AV0xZuteC2ySoW7adKqh1xxBGCtEUGFCLICop7x++D2TCFjQh2jU6UO+TMfluGcgJs/Qpus5pOXKeFcvH1Qaesy5ltu79OSDkjbTnLaRDNdmrM9rCAgTU034LRRS33J4rEe2FHoCPQEegIbO4InOuWR8eF9EcENe8V2+Ckz9/8zd/U9hrFYO1x5n9hoRvQWD7aUnWK2PmpcTWbvgcddJDjWgynyzeY0mc84xkNc4uCvWc2XnT3BS94gd/tOCyt0FJyTHxKCd9i//33Z18dNnYOWd8PPvhgP4JqvzvolFNgNmjjOLSeciMQsQ72AyS984MisWW/jHL42c+u/IaqTbw/7Qh0BDoCHYHNHYHzxR6kc0lO+hQ74ziS4KpfnS7XKgi0/ud//qe1bL7ZOWDAclA1JkqguMjboNCRKKth9YtR3ykU8jpcDRxa5jLnEwmOO2Wd7byYoDQPY8CAFbl9YsTHl3nNy2qv3xHoCHQEOgJrGQE7iVT98NdBY47tYjr14+ap8aOVlDjcm+7cqNGZeXfV4MU46lyjNm+59ahf8sz11rhToLNELhLpvwgqwtILOwIdgY7AekVgRu4gSzQ3QwnS1kLK6xWX3q+OQEegI9AR6AgsF4EZa1zrvDe84Q3zrjWXy2Kn1hHoCHQEOgIdgXWAwAyLK+48b2R1HYDSu9AR6Ah0BDoCHYGlIzAjqrz09jrBjkBHoCPQEegIbJkIdIu7ZY5773VHoCPQEegIbGoEusXd1Ij39joCHYGOQEdgy0SgW9wtc9x7rzsCHYGOQEdgUyPQLe6mRry31xHoCHQEOgJbJgLd4m6Z49573RHoCHQEOgKbGoFucTc14r29jkBHoCPQEdgyEdjwe1wXF4+TvG6ZiPRedwQ6Ah2BjkBHYDUQ2JDJYDVId5odgY5AR6Aj0BHoCCQENkaVn/WsZx177LEDaKSTe/vb377p8fr1r3+95557SnKnaQn7ikn9FuNKd174whfm7/70pz+9733vKzP8YgQXe+tLX/qSDtbyNQXN733ve8sKPPz4xz/WnNSBE/HUtJqyJ3nrC1/4QruPS+Sz3dD4afA5Lt+UJRNRqrEkf9SPfvSj2tPFyj/ykY/svffei727Ob41ntQL9+Lss8++5z3vKQnYwhTW4ItPecpTPvjBD66QMcqqpg3aKnrmBJGeDuWZ7H3nO9+ZWWeBCm0dIi263i1AtvbKRov7tre97aMf/eig3pve9KZPfOITtZdXr5zES0wb2dqlpg/Tu5Tm5PoddPNVr3rVF7/4xXvc4x5LoT+RCBN40kkn/e53v6vV/8xnPnONa1yjUaH2YrH85z//OTzlB/R0Jp4PfOAD5RhWk73HpJyJRZpRuFw+Gw2NHyU+x482ZckUlGr80GLXvOY1YVirsFj5V7/61de//vWLvbs5vjWe1Av3gqdym9vcRhKwhSmswRclGp/pN89km6zSIcXc522VMnOCMKUotxl4zWteE1nP29XmfTpTh9z5znc+6qijljhDZ9yrPG8HVqP+Ehe42PvHP/7lfF7/+td/wAMeMDPh/HK7tv3227d9K6l5f/nLXy630aA2E8+zzjrrKle5isp299tMqrN6fM7se+JzZs1VrTAFpRoDtNi3vvWt2tNePhGB8aSe+OKgmjThUqWFu7kYhS3zrbZKWckESXh+4xvfsFZeOrwzdQjfa6+99hLrff/737+U1qeeVbbw32233U477bQ73elOTJTs9FRtcCDj+j/8wz/c6EY34q3vtNNO6hQ5Myp3vetdr3Wta6n51Kc+VR5A1ZB9yEMecuKJJ+6www5///d///SnP108efC6yslht+C+z33uI7XvXe5yl1NOOSVqckAe/OAH/90f/zCZgg+/+c1vXvCCF9z0pje94Q1vCDLrPPWt2p/85CfHi9bQj33sYzUqqnzAAQdEjNe4Wu+eccYZ3B8E73Wve5155pnjHmHpoIMO4hFf73rXO+6441QQJLjd7W6ng/e+970/97nPpVcM1R3ucAc8P+EJT5CISXPRca1E8Orb3/42tq973eve5CY32X///bEt5vyc5zxHNa1bkX/6058WddGiOvvtt5/yIpgDJn/2s5898YlPxN4d73jHnJ+EpyFATaPIPvKRj/z+97+Pgs0FK6S3vvWt5Cyg0Lpyb73jHe9QX+Xb3/72OqJwwKeSgBTgyCZIlZ966qk777wzcG5729vGuwNufTWOBjfqpL2MmuDlfIIRmO95z3uMNQkkQoZSLMhXI/j4xz9eRCGaK/YiHhUhjXiXIcC2jj/taU8D2jOf+cwAgZB4N0fJ16IYkLqXvexlHPmb/fEP8yFs97///b3i62tf+1ofELflYS5g+3GPe5yZFbyNJSTK83/FgXbddVdiZkIJjaZHNSjyd4v0zbU88GO6mRHx1szRtCwIOY/6r3jFK9JWDhBufetbG+VddtklAFRnn332sQ5LLD3iEY9g+eJrcVwGMyKf1CvB0BgJKctpHU0XtU2NPq1CDxC/m9/85haUg6+1URhUywclfa5NARVquteyEubmoL/jjz8+JzsFzyIbUfj1r3+dVFz72td+6EMfmqJfbRU9mCD2LulJM4jSZvAGbRWBoo6wTdtomho331/60pfe6la3+tu//Vv/zlwfawKrJpRpBZAXv/jFETvMdUiwUeSNEhaTNwoNWOZ4ZGzizxygZNPX+HD5y1+elvH5Ax/4AEFkU4888sjXve51l73sZXVeOdahbwqxmiKQDKFE67/4xS8GdPREGqKDDz74X//1X1/96ldbUJqBQZYTcdWrXlW4/L3vfe+2227L+CkP66ifPt/iFrcglz6YAIg8+tGPNvkZJC+KZnzzm9+UiP4xj3mMQgNz9atfnYGJ1iElG7zZiDGaiMZXrjtA9+EHP/jB5S53OZr03e9+tx75TN0rDyt4hStcAYemkPlzmctcxjQLmulfLF3ykpf0lLL40Ic+xIpc+MIXJgfYYMUvetGLMvwqww2fGn3f+95HwrbaaisiEuUGyR6ez+SALvvwhz+sOcCibGPPKyrAzSoTMvoIHAbv8MMPr4E54FBDhobpOuKII5BFjd1VJ+HJA7jBDW4AHEwyAwELNq52tauBjqMQUGg93tLfRz3qUUT/YQ97GGoM5IDPGqRsOf4JOm+Mm8LnDZo5w8y8OjG4Bx54IDBPOOGEAKooeDmfYMSPEeQAca28xUG50pWuZOg1tOOOO3LmCGqtF8prkEIGJ7wW2/xUmOSVJjkmaTGxR2m1aJMcpZoYGE3zwite5AVC4OUvf7l23/zmN+OcCWdCfKWJRBe0xbnhLhhxhwyUjyUkh85nmnfrrbdmw4wmahC71KUuFXVqUOQUivTD5qVq5sjFL35xX6eMJhc85Dxep53vfve7+2xMSRHjymbvscce9AARUk4Oqb/UlrEjJ77WxmUwI9Kk9srCGBpH05YiCjaK2qZB3/TRNS4U59X2zeBrbRQG1RIC+YcFdC8ZuMQlLsGNI0gWSBe4wAVe+cpXTsezyEbMMkPGL6HNTCuKgnercltF5xMEG6EnGQIrE2rWwiCXtCJQYWvtstHwWjQBKXZSRNlGwNLBhSLPUWgNw3IxUmaHt0hXWLpch6hZ5C0oCEk+4xnPaDQx/dEf9urib6bFpRpOPvnkqHzooYde7GIX89lUt94V3I/y2HCliwccHHPMMRRWKiSXYbAJE7L/8i//Eo/MQ1/tyhQtLmNMZyUiZjWFZf1hEZMKGSSi5qutWaTYwnj0qU99ikH91a9+lSbns5/9bDpaSVSIFfMnP/nJkI+Eb+x/eH3QI3aR+bSYiHLK9/nPf36qY9ozTr4aZuomldMsA4uLAXweffTRUQfDMPGZTlGOmfQ5WakamKkVHyLSAIQo9ApqA4trtu++++5RgetqXcJ++Ko83KyBxbX2isqqXfrSl2YXB3zWIMU5GyMuFK8T+uAkZ5hIWDqnkuc973kmmK8hIWPBy/kMXRBumfIvf/nL5zvf+U4//fSgxv9jKjTqK9VQ7EUN0mjdzAxSXg+/xNePf/zjIOUP5SjVxACeVFWYT+8SxfD/gvMYcToIwTR3aG2STLvVJCRYin/BdcUrXpFmia+GNSxuA4r0eo1+zeJOGc2axTVGvEDbJVqnOsVvKRCfaxa3Ni4xO9KMSJN6JRjGgZVwlLFU1DY1+uoTjCQbg6+NURi8lQYl/1CbAjXda3lA2Cxsgoh5Z/aFxZ2IZ5GNkFW2PJ6STw4Kgr4mi1sELU0QeoPrL4wXFPApokDgk6Q1gCI5WokXLamtBxKT1Hj4r0W2FTIK/F2mPSrQjVyQOO+ZdF2Nt3iFiaHJa/TnKt+4j8t/96Y5n/8pUZ5KuEvxmcI1vX2WrN6etj7wXi1TLDoVRsQsp2N5Z13PQDLJzAATC76oYAnIjsZnKy1Y0GWCM/nr8Zk5FDFL5RaU8RlXxgxZxE2JaF1lpFIr6kTsN71ugt3ylrfkcEUJQK0MBJD5+0rynvoanR2wZAlCJyoUSnUM2LsCF1FHGJOi91khi5te1NPQ1KkEA5x9q0ZTwurcUgBXg4biq1BtfGiAmV7UrqGxIIsSS/kxTa6iprkaTgfc7W53s85mqMbVUknCRDXEx5jUIEVZjIEF5W1oy1KMmzloyHjx4RKA4pxGMya5mmPBG/OZ8An3yHLTGjeq8Y1M7Pvd7345qbwXbUhDJLxruCNa4PNFLnIR/yYOfW6IgafbbLONDgY/ps84ngY90RTRtqhjwXTjG9/YOD7pSU+aKSGqWROn8z6G2+IGnTYU0dB0CYz65tTM0Yya43/5VSIuVjb2WUiCMDhnaFwtlbTHJY14qr8SDGNXJY1vUdtwgIpjFAwM+JkokONeFAEZT4Ga7qUJ+TRJjYiaCCIGzXnxHHOSNAn5NC/EZtBM1YqgJXMAYXuRNG3UNytjAzidxpoirt61tqEcCBKLI9grTDK2ODnnuNJW7McpV9nf5z//eRHcVK3GW1QgFZb1Oc2FP2+0pkQ/VpY5LX5BUhPKk33yOcwzB9nQshMUNz9CoDI9yumIBogDiBRB3Pov1hlRAc1k1PlizGQNPoHBtMWSiAOdSNmwhKDQgTNQwZjKFBCCDWjy7tC/RiX5HPmjYo8Uhrn1AUr+NX4GJv4YlbTplfMgKj7mh+gId9jeFk6kZEU8xnXy5hpgpheZQ91JX3mjY5pcARMGn/Q1i8scts9qTcGkCKnWhX10k4Q897nP3W677ca/Q4MhDZIA5HvaOEhGfSx44+7kw6HvlpuJGhdV/D9eKfaiDWmOJPkcNx0lbTEotjsgNahD2kMgZ0pIbbix1IAitT6TvpoWAVF/ymgO+pXe5U+YpwJIVkiirzzC4hnaVL89LmnE8+YWxjDUTtJFRW2joRp9jwb8TBTIYi8GAA7abevemDXF6b8AngNObP2kElDE+jWV1ECLCrF7Otbh6fWJ4soHJUh0CIKcUT7QeK2Ys40s65a0AYePFrIyzuu0eaPDBz0dwDL960b1QfojEJcWOuaGhRoz1iBnm5AyFYqh4FSLNe64/8I+Dgf5HU6QsiBOkg0OC8R4nfkUarAYKrZolSDskB7xdLDqqCdNzbcNB995mWhdZesPjLH0XrHFaIkTwdWgYBNCCDdRQ0fQLzmDRQZqhUy+IWEk0hKcQxRsiKHxsJIbOFjgIshBIzrCgLx+XznRNoYFCRvLzQaYiUP72ZZcltqiiwqLP68SyrYw0pY/TPK1bZwzvY2mxwjklWuQ0qq8VyD4I7gG4iUveUmsOBNBAQNTIh23IXvGtOgopFdqfCIlYmksYujVtweZPo+7oGQKpMUX88KGGNTeHaAn0sUU8UvUZ3XE3qFUk5AcHMMdAc9oKA33FChq9MO3MInCxsQSEP0po+ndfPXv3eBWgFSXbbf701P764ZGsCqvz2CkIznzjgsJXBhD4qd3powIhA9FbWM6F+nXxjfKp4xCm0LxaU33ao46Ijy64EV4OuwSFObFc9yuLb9YlDNRFtPWWnmdImiOVkQdps6Sgw63rogSUeg8BNgAKs0UxsLKjc70LiL8pNgaG7OaSpClePU9iNDzoq3stAqJbI03p31VM0cGFrrRXPvRxjUui2iD2r/ib0L/zhMJAUGwGJBMRGPnL7x780S03aPxeWPV1AkjBCxR+LwOn4WhZd0tVU3CWpjFCUZI2VTThGACrS04ibJ3g5rD/Q5nhYsnQC32hbJVuFGx/cACgTVxbvsZEYOHgjFw9oq5TfHtNmqDp8SIq+XoBwA9YipIAxh9tqHl/IIIJ6F3dCg0Tv46R4FEUjrAwQkmDa1tmFBzPJhx4KENZhB3pNzGnrUdcCAf4zJgG2PYi3UtnUj4Yopqmsqe+HvznM8apDplVthKwICRIr7mwIAZ+EMpdnRsULHNdl7zHY1BfV9rfFqsO5RgCRVHdnXT6LSX71MgHTMwKGmIQe1dr+gjuTV37ClwC+CAVerMprhBgUNNQnKaOsgQxl4dt9W2VjydAkWNPitOJOIgqFiIzaOgOWU0Oc06ZSKQavM95qzX+bhYDdEy6ch2SIL6ht64s9Oif0k5zDsuK8HQ0oLh5+pFN4vapka/Nr7TR0FNqwK+rxMVbWrpaU33crIdShJIYJzUofrS2fWJeFJHTk4U2XCeFJ/oUHeGKUXyGqAlOvwAo49CCID1j3Nq+fqqIa4mu+6Q7VDvhAdZn52cYjhCYGoAUj6mEkAYAjVZGZ59/Bw06ZA2b6Qitns4ZMYoX/gVUWoVmhLpL85xRW2TzUkWdiKexu69+RBfRSciBkuhO59s0l75yldmz2zX0xrMXk7WZ8iK+0fY0P4NbeKz5U6QhYhQA+0j9GetqX7x5JRySKkpRKD1ONxEQKkGm2raZWId/8G/2a4yHWSnAW8iIT74qjAdsvBZFBcboAe3ppkZhflBGF/D3XY+y+f8L9/JV04CSDntqZs6wtRRmlHfshUygvPOy9i4ElRXnuNpy42V1QV/1kmOjwVBZkNfaM/8FJVHNTDPzeDvObniFuDyx/NAanBySn+dwsWtRRVIRSCCgoMGABHsGpycSkeTVMNbnDbX8cSn8iKkyh2XINwaMnC2IUyeAbe+Ug1GClAUH9mLMzU1wVM/8RnLKTUTTWPNddML/aKAmI14lI54xNfUixqkg9Y5vAx5vBveFZc/R6kmBrnUed1p9nSiPuIfcZCQYbOKIrGwMqF4vdFWUUJSZ+MDw6anRAiAmExnlWtQ5K/X6LurCDOGQwjKcMdZZS/OHE1ubsRsvCv2o79xVlm5DRfj4mQ1SXAwFXoIUmGWp3SO+s402OqLs8q1cRnMiBzelWDI4c6PTI+1DVZr9NMZnAB28LU2Cnk1lE1SnsdgZGtToKF7zznnHMEq6ohyMxC0X3hjE/E00HzxARsxy+x5CVcgaxMtnWfMp9UYtMEEcVoKY5qge/2UTiv5Gb0aUIJwXoGPlYwxIicUvmiEfUx6Fc0YmiKAHmmIjqUJzSw2PunzpEPUMXnHvCnHv6b9GMfnmPXM3wCc6V83nlWOdzgvwibCBcZsOhXKMR1Xrr3FuXBaJJ0NjmpJmOzvxuGx2uup3AqAmku2XznbxmkSpCq+6xEHp/hIIa8HNa3XKsxVzpfkheV9NLR5vwhH7DQPyEYXwttIj4wFlypZ7vyVIphjVlFAM36AMX4aJRxDCCCYVwCyv9org/IBnzVIKQjukeYaZA0rAGtDOX6xzSe7LloTOn387qBkIqQz6agwFoP2W+Yabz3VIbFGLVYwqbAoIeMuQLg4cDOhqNGPURtjOGU04TAQ6WBY0MUoR9Ar74J5ysEdd2qsN9p4eroYhrwWa+6c+FjbxNMi/ZlczRwF6/twuGeSShUautdcw+cCeNoUs9NZ48HA0Rimea1CDbRUn0YyMRsUikCZI8kqWZIVKTQAJOEEiYwNZtZAh4x5c7xL+HM8BWrdb5cPLW679tKfDty3pdM/zwlabfjlg0CcYSbHnCyB8fOcq85AR6AjMEaAUhb2cIxx/GgTlLCdtvBy32sTNFpswvqY6y4EGb8AACAASURBVFZ8tJYLVwlAg5KCZCvv/nmcO8hxD6NrJZefrIuw9vr4l8fkCI85LJImGmPXIR1SXx8d7L3oCKwnBJyc8BM1p/fTmZpN2Tt+efvswqZhZo2wsUBnl8650yeurBE/X5Y8nMcWdwFMN8dXhODEQ+xbsLubI/+d547AloOAkKaDrH2qbjkj3uipHS6rwThm1ag2/VG3uNOx6jU7Ah2BjkBHoCOwOAIbfx20OI3+ZkegI9AR6Ah0BDoCsxDoFncWQv15R6Aj0BHoCHQEloFAt7jLQLHT6Ah0BDoCHYGOwCwEusWdhVB/3hHoCHQEOgJ/RCCuB+hgLIzARovrWsR07/HC5NbCi+51SmmF1gI/a5aHmUD5aVPkT1yzXagx5spZvxOoPV2b5S5acs9lmzf3krp8oF1nPT094IADBvcIrnbv3BLvEgw/inWPjQ9xUfxqN5rou/NIVtPpzbF/mCxO0iniVGson/i5lnDzpYO7/lxA5jKf2uvrqVw3l2tNNlpcFzo6Cb0OwPIbdlcKr4OOrHYXZgLlQr5l5aha7b7k9KWxork2O4vreiY/IWsAxQy4TUUew0addfaI6k8ZFDZN19znJ72HH1+SH1cU5fkYNgEDbu6bSwnjE7dx/eGAvZni1OhOPvGTlnBNmCvK3eDrwkVXcsbdrg0i6+ORESGES+zL1Kgy+dPwWIvxBNM12Yux5XX3bE1/173V7hbh3A1ecUsfZhS6b3mQl4YQx92e+StKXCk37tGYE2Qj2e34Ua1EixM7Vew+rvAWd3bXmkjlLjyLRGNRot3ipKXN477v9OIAqDEgYwYSyEGkNhae6lfOVaMXuC0y7HVXo4xfrImi8rBYY7ZJCzyLg6jXcSv6uKFBSXGkam+NwazVrEnXmGcdHENqRIrozcVt4g0zxcwZxbnvLZUTqq7jKXJS43AMyHTQ8ndrAq8OfpIwFAd6DDJDItLgNukxe4MSY1Hsb+PFBqu1tyDc0CSuy8Btyt+MSE2cGipljEw+g5KWCD0vR4vr690h7278nOe4qXTQC0PvpsmB2qn1NMoXk4GcJgTCEAwaqiE50CfQLr5uCuBtQDPpnChvgLzxxXRtlR99F+/SxOijHvUoF0Dzp9zhIFdBvMLX5l4Zcj8Vl/HUwqJ4A5YJyQVLl4V6y1fBMZVlEHJduzupEREDiZuZXc+kQiLlZnw3VsdXGUhcT48Nf+rEXeceyQ3gkn1XtyMlCiRtDmmIV6QBwLP6+HedupsolJOABz3oQSr785YwTpFzhWZU3G0tkOLGeTkb4rp/t3W71D69JbV7ui35tNNOM2n1yJ+cDY0bm4vdR9Pl2nj2uish3RtumIvs6QsQJJHVC/V9tRrQ92jahfjptm4JDGQsAAKC5o9b6WM4ElBFQFw9b2R13HbDGOTaWKDpnnGCQcI0J1UIKSzyHz2V4wHDKpOEECGKTL+kYpT2AAXlgAoKNVE03AbU+g8dN5vHz9URcUG/rskq4bYvrUBAX+Kaa5edEVrxokgsLzQnnFjjszhSNRkoglmkTIWRLlwZQfccgSKum6/xHIkX9c7NZQgKL7uk3hihQOSMSLRS5LbIQF5oSSR7BFIIStXsxnZPa4BLnyLfgMvU1Acs/UDsJfKCP+lKglfjcMyMLkPAJEXN9fRHHnlk1HGfvnwy4/pRUhN4QigcHSnIwCUhoGkb6QJ1jer0eg1kgkFyzKbwPOSvHLfOTrs5DreygEhFIBdNTP+G7qqxOiBOhlMqBeMonVEgLO9F8dr5mCzuRUKnJk4eFVVKbQoMJn5oCTdOx0yRJ4P4EYDIyIK4aStjioEjOewxha8QtzQkx0W5f01PrI6RzEtqE4dpiKQpUZm9TzlX8texZANCQ9jwJ11KpEJRp4hkQCfzTWRpNPtcNCa1Rkwo4h3Eja9JGiqdCB166KFRnuscuWoUFkEed3njvco1i2u96B5nibdIIf4wBH2E7nWve4lxcweUYzTZxUEbA8GNTI2yZFDE7MSBBx7oA2iYUibNu3keCV/NljDAXA8qmHBrUaiH5TCQgSlQiL4Ou7KYd5YSWXAOqGx5HnBII8gdwTSiSa/RsGyhps1tMl27RFQHmS6ugEYjj2OY+YEi8ChSo1hISbkjwS1u0afCyOsYdCW17ps89C+EGVo5ZWmxXNpyUhHvAju74s+jHXbYwRWgbszRuqwvBtTqDefqSLxoQtKqsKIWQ48koIqAeNf8l3TIi4jnIPNna2OBprGQhIqzAlttSfNSROCMM86AvJ4SfbjxZuTDUjMcSZlJZMjyiGRLKBTeWE0U+VvEksqWbEdCJDS1C39zmOalweWSAjgrAgpOjFZc6E0XGCD3oZNJvfNX5LM2UjUZKIJZpEy6zGRmCZ6RQSgsbo1nWky/ZEGh1Iw+X4RLR5V7nTfJtIiC1rgtMpAK4UzOk/DQm3S9pzXA5eqBnjmo6cg5LX8XhYWZEELv1jgscoKgnSBKxuhHXrJwgNoWtyjw6BNC5lASbjJsylMCBpqvL+2MnEWxrqiBnG56b1hcapf54eIwvdQOMY7pX9NdWKqxOkAjWVxrEvoNLNggn9tvvz1LMzZaMVliitXEqaZSalNgMPFDS1Ch/AniZ34Rv5SsCW+mZ6TMM0ml5QkdS++xeeYgnt/znveQFsNRHPpUWJs4uReiMpWY1lo5wZBJnPCoCA8FFbnOakgGdMLjjJGFOP+MzMTr1JeexrKEWqBblLAsxx9/vM9x7Xauc5iPGsjjLs+wuLgnT1pKb/LmYtEDUN5HpPOTTaKYJMRbNYtrCIkUCxoK3V3/kTakJrWasN5FLTiJrEl2FHwFisuZE4fJkAi20MKpXIJPLaIgKxzryxOP5ZdMYdAcQ8NmwDfySXmKAT5O2+K6gZMeDLJesfNh5CRiGhOvdd+qxdIh55nBGL+uJCxuJNb1lZBpi/2IynjgtXEG8W+dSjNGOaU2trg1QABLjuPFHOTGWADfJlBi2PSQxrjIP8lJ2KrAPQKvDzETkhtLqTGTL3rRixqiSPq5ZWpGQ3kqNzGPtPjzlAnZaaedfAjFGrEWXzl2LFaRz9pI1SxuDcwB8ZAuJ7yinJqjucLi1niOEce5V+QzIZwpggI0UFt41bgtdi0V8kdJBXGNEqb9kEMOYT5rc59U8OdCzv1rWsn9HO/a58NJg8MxJ5QyZZfWtSpQMqy+Dw2LWxN4bxHCeN3n6BpvINq1XuEf+1wDeYrFtTwQOEkdoQbbFrfBaiISH5J1EarhA6WnoUkcqhjUTxa3IU41ldKYAvnET+qUwiQkoaWTxbWy5ColV0BPjzvuOExKC5jECZMc6FgIDvjPv9YmznSLy51KSsAoRxiyhuRAz+gI/ZM6IukqnYA9UFAaiU9uTSTWHOicGsjj/s7Yx+WAeyfideD2JyzDzfGBroepfK7cYW6jyRkVJv7LDFCyhx12mJUuD+71r399++5KcMheKUpsbc3dI/QaMtujORHCcbv4HHAOZYqeGcY2v0EEbLfddiOsxW0b1sv4pQMCGODIj1vJS/gBJBJ7Zos/09vTgGvwYq37KPCh4nX/MuHW8bGDUmw6dTxcEOYk3sWDfmlaOQ3IIMXrvJDxSE0EJLXVHgvYJlYtBWBY5JxroiaVaqEmiGJipNFUP0KCPvCOCRivqCGKqm2zzTZqjhsirrwNGZyoRUaCocpbSaw2+KyN1LitKJkIpu5AxmDFW4J1QIjPbZ6jjpHlUelRfBUXsXGgcF5uEzULQf5+fKUfLZoj0Vtx7qtGz4Yg+VdUAzPxrs/Uls81DqNa/q/VJ2eCDklizxgUZ03+Vk3gow4vLT4AxIcxe1NAHrMaJfRefm4oyWqtfpvV4lsD3WVoTOEGJg1xaquUKVOgyGEUYgkUnL/4SqnGGWbxEoE0Md4b3/jGlpsRUGzQ8WjixGkQoeiSEkgzuo1kLieWYakjSYw1d/3rXz81Sn+mUch1ThvknOcLNDrgUWx+5Bvp5gaH1CMia137oQ99iIXg13BRxe7M1QHBmJbMdpSHZxGfbfLZgee4WZSYb7QhNyrVjw+pPo+blWXzWFxjQ9fkQh8sDZrG/IBzFdRk408//XTBBO2KdQj4iMpyiAaviw8rEZlM5akXeEufPU1MGm9aY3CavOgNeKvYfRSsEQe/iLD6GfCWvqaOezG0bW5QoQTe/OSFNVDOedCZCEhqqz0WtH/O7bi5eIoxmFvNkAHxZMtNRje9mNtFImcCNETRW0UBUG631arrMY95jL1G8iNEzyVKreSs1vhUuThSNRmYCGY0nctnGrg2z8H8QLYVQknTNW5Tl4sfCBjzD/OksFjNNuBJNwXBXOpmcjjgIRq1D8K1So94AEVWU2FN4KPCTPamgFxjgGaoqQWvEKSB7mqzWmxlML5oarEm5Cg0xKmtUiZOgSKTCklOLsOkKEbTms/2loljgcjoxsGOGpEor02c2kQbUytqnjaSuZyMZTiayHWRUYj9bI/y4WiDnLNaWBbkj5lxdO2xp0KeSxyNs24Qr7N/zsB8/OMfd6xUjHeMAl2p0DojHn3hC1+IDzxo3pDREv+xfpeA0MaecGWtvs0ARITL7cNZ7FqAotPQkp5a5w045ydyaqhga2Wey1Of+lSc23uQjGnMuUWY2AKXIh5ZaFppxWdMph4pETeOci3aS7PasGr3x2kSnSseNax1H4XYtgkKQqn2yYpL8AHDXiQNasaLnM0jjjgCM2Sd6NsTjfqxGTN4twZI0r+D+guMxYCCr0cffTRfR+9MS6uEiL2nahHC8pVI8ORM2oYoDojnbBMtezNinn5WyPWBQ1tmxnzWRqomAzUwB5QdNhHUSdJloNMPbWs85/0y3NYNSSDtlZh9JmaN23G/8hJuIq/RuYEoNBYMHv1Vm/ttavG0xuH4XVPSxBSSCdH1L1iKvzHN360J/Jh+saQGcrHyoJDqSAPnUZLVmu5agFWvWBUkV14TfOX8TPKApYY4LaBSahN/DA7J4SvHfoendrUtx0ky5iEs+CzqRilRQTPnXW3i5BONlbHnOmajUTIvkmNSbEQqZPKo93Gd6SCfy+I6deagSvpz7tzEsznE/aQZTUjKSx0hbE06kiP0JP7jKKy9Oq6EkPeYFXBTl46esmqOtDhtEa6EiC4d4ciV/vhjcS2axdYoX40yqzZgbJrGJjayIgbMs+CzGJQl6d57741O8fceiQen/iy+999/f8tZm7gitPg3fpwUoqB3zD+9b99bDGTMOfcHFHYX3vSmN9kHshpLtpNSIGdcDXrBSYE4DoaCX4ijbxVO4Dyi5QWgcD4mXuu+5kAq1opni/6HP/zhtN6UCSD6R7iFcWyEOyEiWm6PkDMBT8Ft+9yOe9gNBSxmBt5cDRDDgRkYDvhfYCzGCCBCcmgu6Dkuzj+gU1IIWszDOTiwO/PljC4kG6I4II5tJWTSzNeKxTRDy4oYKR/aMjPmszZSNRmogTmgbFidsCOHJNyeIulKfa/xTLSAYAoQLaco+J28VQNEHfvg6e67717jlu/FOa7d50Bv2okkMzxa1MxKh2PFk2pzf4zSuKTG4bgm8Sb2NtLsMZlWNvzM3OKsyd+tCfyYfrGkBnKx8qCQWjDLiCiVuO+++8Y2rTo13bUAq8J4FCypMGQcXGc7HP6iSGvsNcRpAZVSm/jj1smM0Br26HB7t346YSVmtYof89fUJk7xc4+Ydw05rE0cE42udp7OkWPxsPbm45jDeZEcU4A/Vc/vZz50s5jgvAGyfV/WZyNZrkf8wcVB/PxPAx5RBNpjw0WMnUBLv/Ox+HDuiW8V5elsQiKYPjBsjAFP1prGQnbHHXeMPTnWiKawfWU16TS2w1PxCoOqpq0XTyP2GOVWKuJO1jrKGRXWxUh4RJPS16k5EHO14qvDq7HWJKz50Qwq3jSgnngJQWTMdpTwvPQRk8y/WRonp8QZ2G+xUJzzP7gL6YSRrgmk2OXi6zHAPLIa5Vr36VDKFG9cWp7K+IBiELSiNVhOQiX6FjqOFlvJgXrnnXdms+MRDxQdY4efOEhiGniUA1UERGVLZGOh8gDk2ljkNL1lWJ13KyKAW/4EYImWt2yE6A6LGH69o6SW6WCkdASxg0JNFA03CqkViOEWWa6STRexa3R0hMNhiW/bWBNw0xwM4y2xEBqtyKfC4kg1ZKAI5pg4CmZWSJcBwjMfS7Uazx45+sDF5pD5LOii1zF9qDyeaDRR5JZYqmk6jNmIEtNZVF8dcutYUBy1qwFuusWR1HiXaPGn47PJSy3G5xqHRR5Eg6wdib2jOumopgN0cba8+EpN4HMhFAYw0NZGQYH/zbT7XAM5CQaD58U0iQYM0P7kk+ojw9RRnJxSp6a7aqwOyJqhcWBHOR/RBpMmSIhoHH7GIBB1TLLKHtXEyaOiSmlMgXziJzCpcW2FYOQCQN6sMahr+lDsEBtaPPHEE6lWisi0ItXknH+pvC2HxYnjUCGQiSW/EDhUHOs7hmIgkzgJ+1VDModOHY5v/FgmKLOGMVnIOfWigySTE5l+QzjQOTWQlXsr+h6Ue37csU9TLWFfORn+qjXW3gOK2DpelCJCXhbfXBA2jACtPWb/wJGZIC5ii50eX5scbqZcUVu0J7W4mfK/ZtnmVrJDQkprlsM1xdiWJoeWHPaMIrhoIGacnFpTQ9WZWQABpzws023vOS5v4OPehjVrbhfoYH9lCgLOi9kr7eZ2Cla9zuohsAXKobCuCFaCtFvcOaTLdm/6Ccccr52nVelZET8x8Lg4TJxKhOo85WhG43b1xIH9CnlGvf54HgRsrQ2O0M/zdq/bQkCcv3g6svXOlvpsC5RDP7LPR7tHlbdU2e/97gh0BDoCHYFNi8CMXwdtWmZ6ax2BjkBHoCPQEVi3CHSLu26HtnesI9AR6Ah0BNYUAt3irqnh6Mx0BDoCHYGOwLpFoFvcdTu0vWMdgY5AR6AjsKYQWA8W1283XVUTsOZ3YK420H4nXrwecrXbXQ36blRx2chqUC7S9INgF48UHyl0vYAbTmpPlbvg0OuNsd7E3WmwusCjdPnUAu8u8ZUVYrhAL2YO60zZcMkAwXCXzhJxWOOk/PjEdXIuMFkWnwsM3LKaXiN0GoplAQ5z8+T19WBx3RzpWhOd8atTV0VG6pIFoJn3FbfkuBl/3rfWZn3XuLhab5Px5iqfyAhbbNFdcel2z2IFV1N5Pb9CfVBtE3enyORihe5ZdKXlYu8u962VYLhYL2YOqw62ZYO1IBh8heVCsWapsQ3u33B/VtxsunI+XbG5bnTaYmgs3Ygk8xT8rKvf47oXLd3GvhjcW+xb7k7zg9010n33b7dTx7gI0HVxkYityPOa6k6Rw1ohW7VGlmgrwXCxXswcVqC1ZUP2BYKx5VzwIqGLH6+7ErUmTvOWc7Pcvz3vW+up/mobkT9c1g8v0Rg3E7kb0+2UbqOVkzXPeuimQOs5su5mauVxX6C3xCFf+9rXun/SJWcu/0wX7rt80t3Nrj3zw3CX6deyIIkcykmeX88tXwIvVcqd4hBy6LSFQ5Rdl+oC4Uhjpy2f/bnrUnYEtyz5nbVbQN06nfJ/CVSC0uXs+qJRM9OlEC471R1Muh3+qKOOsvwfdLzIRip0+6vLTl1pO67m2m58Iosfl4tG4j/VcOWqWGLtRm8MN9JvuQccYymvp0uhvR7IjGF3UbDfWascrq4Qkwt4XUAdt367QBUyEhIAxM0ScbmE6x5dZSyXgEdSBbgLxgoj0rUSBl1zhamYuevFXUocHVRHZVE7bg1OvDXu+Ljku9/9rgEiVJHHCVfquItVB0P2xq/ooBuP4eb+Z1xZy7rOGjMELNJ5Cj+6wJbkhMiRN4E1dyYLb0SSV6KVulMcX2LmEldy4oJoSyJ30A/yu+GqNgQ1rsYdUQJM8uaOft03OjGgMd3cpgKWyKURwuBycjITiWndq+BFMg9wYk+SJQspzsQGP8W+R+uAIvNaF+F3oTFD5YoMlvKyl71sSEiO4Up6Ya5J6wkBcQsWQkeSAhkgloaVxqCOxvion2TDZzfuutIcYsYagKQdn76mGVeU/AZcA36oO/ikTHMUiHkhilYbvqIAFPkca6HipGs3BFWT2uXVqCVU9Q6frlI3mqaMySs9rbnsz0x06VhMmeKAihQSOQlF4O9Sdwp/IH4Tx1GXJQsyv8DlMw5pDLq3hmfgJjzOykiHQKmyJjWrUcRzAcqUsN4JttGc2CPzEtpjOzcioCvOoNpAF7sQ5kl+7g1vgd5fXB9PxN1C7koqV/a78B1DHtEC1K7kM9IjmJmGFhPKoYNFF/a6xB+76RpoVxpZfLg8U3ofHMucQLtFK4N/SQYmqP4op2igTP0VKyuUIYD3KlmHRl1xjJOgLCeBiCgbJl8CgpKhwtFt7+7dTqTccRi3jTOrcvARRBeRW9UxTlQPCnonFZKeyn1RY2BQjh+3UI0rUysUa2QD5DBGUjbVzH+fNSrrCH267bbbRrbaMQUl0an0KCVRKMLOddBxiRSjPvnzNS5hZ3qtFzWqg9YQhsZT1SRgMAeMIGND8xpEN48rZ+qkmqB23b4NNOrS1FUOKNaOQ+0ieEjyFVjrxF7tQ3TZteCMK7iMLzOmstQrOKy9hU/seYorHhsF6kJg2Wy8YkIqdzO7z9SKzxx8GtwV8KTCBVuRUiJ1pza+kV/MxDZMLHeI+oCf2hDUuCp2xzX3ZgfeDAHw4576mG7Un04RV2mMteV1ToMkvrwZoshpMyKR58BIEe/aTKzxU+t7tI64cXRRO64wyRMCMjZMAZYvwA+R8HklvTBkJJACkXTFnCX2QX8MVxrWGj5eSbKBCIE0jwi26/JJLIsSL5rjatYkvwbXmJ+BlBo7AqZag70xkSKfAy1Um3SNhmqo6p1VBIFx/TvngK4z++5yl7tQyEYhXe5fHFC2hyhSCEyAjgzEr9biuMv8aYrFoFB0BBgzoXtreKJgHRKz2MQ3lELlY7JRUsRzAcoEyQTkWEjgIesJsRdbGhiR2gwq8lbrwkCNbNB6MbQyowUtNsNt8qHdDIDsXVFOMgynrRRfb37zmzOuUU7XG1FqixGlVVPqD74nlV3LHuNdg5qSkBhm6q/YGYWAZhpThiIf6Fz0PUpdIscK9UVhw+Kqw++IhmRiAnf4EEqseMhKjYdBec3i2ofTESuzqA9VnPsMLqBFoSuOVYNzra2aui/C3rC4dLo0GtEKlqgMNttXks3btcyNR8lEWYuwpikRja9G0FdBAqvAMHJeoZ2ZhxrzqZwnpJvpq5kfiWWmW9yIEwYFLpScyj4n1WySqBBmTDm/Va4VPnLqTm18w+JKTNToQm0IEC9yNSZlbcqeSQcZj6xWaUABoZhuMp1FuQyYZFL8w1fjQhdEudnBCU6Y12ZijZ9a36N1EzZaMZQkwV6gr8w8hmP+JgxX0gs+MS9ZE9GWodGj1PQAsYHFLeKTLC6aplVkfxLbAI49yNzi1iS/BteAGV9rerwxfGMiRT5DUyUtVJt0tYYaqEbvLEZxIihFruRYC648EsTyuTagHhE51aJ+Ln6NFsddNq0EBsKLtcAVDGtbXLqdwUs53Jg91lcezzFlJUU8ayPVoEyQxEVCSwuWCCCJk6GfG5HaDBoz1mhooEbOtY/LszBC/jiPJFiISaY2yxTeSsQHPLLYYl/tBhsPqx/LcKvhO9zhDrFqpjuEzuQ2CjrMMwtBWRuDKBn8a1KxQ0wCiIWDWN9iNYWcL66TCWZp5YPMwAqtEWv12+WxYFKHDfAHcRmvKB2hv4VpphbhRmpTGnn6xcLOHOByOpUgJY51P9AUtpksPi3CXqwZhewi0af0geZEN1lJHTSUVpCDdzFvNC0ro1zKVestw2o1b1boAgcC84PLQmsMRNyYXYQtbwwI815Mbe1lVRT0rZBi+Z6akzuSLsBSlDDn/nJm2uObxKDGf628zVV6iwkR7RBs8KeQYaCARHFMCl/hHDVNEx/CbRq0yMmILW12ujYTvVLkp9331DoxwCTtg44YDJ8MkzkbK+kFl46K2GOPPYIgZ44BEKoddLP4tY0PmTTWEaDmC9oxQSQ/NdmQ/CJcRR4ahW320otFPvGmQhK/2qSDlWrjhtqoWlNGdmGLBwMqZBXMcEZjZGsDKq/coL9J/NotDt7SZYcAIixsQ426s8BoICkSHtlzk5UR5qGKx/wgUsSTD1Gk36YsKWpo6djuGU/A9gzKW2w3lNc8l8Vl1dIzAWGT3GxRwsTGmjKexsYej5IqtBHFNwGuIIb8o5i2N5Y3YNTHPUkVLIAEnyVTJA1cm5phjvrMvP08c8yq1J9C9iNva/rndLbCSIud2hhWIshAIyxMM7U+AAECHikkeRwowQexHb6F4YxFz3S21SzC3qBAiA2N/KDMFccTeqmDxQMm+Ewbt8iSSCo4Cu1SSPPO1vInzGp7SGIyjaY9sm6zz83GEBXxUjZ7XnjTFjhqlmKD17lKdErjCFV7fIsItHsUT9tcJQqmD+isYFIJxyUWLkoSkbS1Nm46cdiYiTmpHKV2341Fai4/TzDeP1tJL2Lu5zqhrRByBNr4GPr2SYKG5E8cvvFwTGcv1WzwmQa3NumCyBiHNqr5yKKQBjeNbHtA8z7mHCqfOI5ChsxHoiNK3La4+KFnRKrSK9TFoBdT8Mw5j89tyjPFoD2D8ubaDeU1z2VxvZbyeQkk2iMJ5Rsp3uI15yyE1Hy2XmEg7UIxzMDi1Fj62F5FhE5JKzzV7JiOsYgS2tw2g2Agp8YeYRinYmVeoR1EFivSplLlggDFmlFIiyXVpuQnP/lJ6LXBK2gyJNZ/caInDuA0yE55BAS9TjXjM7ET5GH2HPkRyuBmcmAt7qXILtLM+Wdm0rKjCLuFLyKpvzobNO1DGCOBStHdGDVmsthcKsQ81yd9RQE1o0P4sOSgCmYcB7PbLW+5yE+bmsUNtYh5QRs1xYQjcqApaAAAIABJREFUnNt+a/pTa3GMYTKOjJnqfII8UrKS8a0NwXT2TB8cWsHEK5bjDijF4a/pRKJmYybWSK2k7znNlfSCOCFFaLnUQdPn2tHIWkeK5YCli9Ij08oCV/QyShaQ/HEroTGSNkvTalyzUVLkM440prdqk65GdoWoLjCgc7VIwpmPxHw4i77W8MSPqXHCCSeEllDTNMmXfzkORTzDqxiP1FyUx2hPn0HTGzrX73HZGz3XMMPGpAkOg0BQghaLUCR/zUrfUQV1nAmKtH88hZ133lkJna6yfxmS4B4dx8DSNBh3SYnAsjWuY3Ippl2sZgitz2RTj6dWij7kNtXXMPPUrs8snPPMGPbZdmkclB1TRlYEJsytTSZniBJNgdAIBo7fapdYyzrCHW4d3MTeRRG5h47PMDkQ1hGRIm5gWMEiNfynuIIDhDRIVCvCTuD4LgLjUSd5i8K5umNrIJlbXA1AG7SOeXEbXkiUG2LawcrMfLDRYLuCp+wD1yFomk5uAhG4LvYCvCrHRBLZtr/Qbr1IpFFo1Q5YpyKjjo0JURBQpFca49sgG49qQzDzxVQBmLwT4h0lzvKIzTgP36BAhkOAB3UaM7FGbSV9z2mupBcw5A46HhHx3u9973tCym2FUOvOoNwxSfsysVUJMec2TNhUZwHJH7eLeYUxrSiH9m/Ex69HSZvPqFObdDWaK0S1MaA18ZurRbs8flsRCtBxNuorOlLDk1Z3voF5i2oOyVMv9lCL3S/iuRTK0VxuRKbPoOldONca12lhcUIWiM714xnHfzBBTdDyNvxEBdkACs4j5cyqA29+mKG31jqOEdHsytlCm3/itMICwtEikLaBi9hFIW1ORVqpiLI2qpmlloOOlZrAopS2nVh6u3r5AhqTGmU+qV2jbp4bOYV2EItbAprDqlOUAvpcJ5bDbrTdMr4zl9y60Mksfw2unL/Po3DCm0ysLjPwmsabXWeeXehcUXEDoxzItlTtzzX2rR0QsOh30sHqjbkVbwg2arDvtddeGPbbCQFkaj1+6+JoCR/ogQ98IGwZS4+gN9gKHfROCMGpWjjAxJzhtTj4Zj4YX+4IypBECqTRKYtm+wLCXMUoEFJsthACENgeggSQBp7zPgKOmK0OCoHwDJx7p9Dz3/LWxrcdkAw2akMwnUkzwpFvogtPTgkBE5PnDjcuaeGgUD2iebaoBw3VZmKNn1rfa6uHGp0V9oL3yb+MmQgBU9gEqbU1vZzUcehNELOMZ2wRJsyWXl9A8sdN03ik3Yzg2NnI9Jkkj6u1S4p8DhYAtUnXkJOVoFobUB0hfkTUKRmzddCv6S3qMt/a0BhrQxPmELUantSLQ2RifqJBZof4n8gchVMEtoinKV8cqbkoR3O5EanNoBSwSRxOb2hDflxDy7aTYJqRH8owxEmKoCgSCIUf/OAHwgU0eAQHPKJ5jQ17QBFHYDPqW/cwRVQMOrF8LGKXCtk8zR144IHtahqKX+M5/eXQudUzhSviTzgo0Ih7WM5ykfgKWBXuJtmWuQSaIWQVCIHQEGvnRECylMJctBt9bepSRnqkmvg2o8J3dlaoxpUKg/UKZMK06ztvQ3iWADEzKcaODVLFAVcOyTj3UaPPw2JCWHH20lTXx/g1Zw12gPBFOEwo84Hilx6W1MZOi3ZeKQ6dhYB5BSjIhFOFAWZY7NeUCGZAxLsCL2+JMEWheDKgBHyst1I5aWFRrIlTHwfdcaSFlSWjhMHBN5R90LTCjb9RO/c7ZiknzBmrAVeaJor8lTh/BOoQRb2DKifDsMZkyF8sjq8Ag4G2h5J6VxyF4hDUuCpSUEhZO1hBKeh4HEmDpAHSkdjusu430MCP2Djk9Qg45Ad7eRS6OBMb/BT7TpDy1q1CNJd+Fs+H1qLA74Dswr0wlOaRmUvwBopigFgaVnOzhk+SDe+C0SwjyUSFg+itHNia5DfgGo8gxUhOvGLumH2E1iC2h29MZMznWAt5azzp2g0VUR30zoQ18eMH1tQyeU5LlPGA4kF/qW7Q0Tn0yUD8ii2O+6uEAjQlLeGMi98IUcXWYEF/jGdQYF+s9GhIq4ukl4rEx3guQDkXJK9TU5R/TM/ciBRnUG33s9iF3DxpaGhxY5e02M9VKhS+Zhv0nxFdpSY62dVDgKT6tViczl+9VjrljkBHYDNFwHZhsribaReWyPa5ospLpDuRlOAPh8L5mm5uJyK21qoJLTivvta46vx0BDoCHYE1iMCGNS7O7F8K7UZca5MxKnYkUGabJ0WqN1nTvaGOQEegI9ARWG0EBGaFqadsL642J2uB/kaLuxa46Tx0BDoCHYGOQEdgvSKwHrL1rdex6f3qCHQEOgIdgfWEQLe462k0e186Ah2BjkBHYO0i0C3u2h2bzllHoCPQEegIrCcEusVdT6PZ+9IR6Ah0BDoCaxeBc1lctxkEp3ISuHZxTXHtSHP7OuzgNnWhxrw7nF1aWXs6LndPk2SF6WrQcYWll8zswtJbLBJcoQwsqxdurMwzARRZ7YU5ApB3RcCmwcRNJi6ecyvZpmlunbWyafStqyekLMuhW/qoub/WVSQLjI4rcWjX/HrOBYis5BW3jmBgXgqul5cPPt28O9frGy2uq/KSaovUdXMRWtXKbkJxS5zLpNqt5F2o1dS12o2dxVfcVAXfxS4xLxJsF07pQpvCsp6uRAaW2Au/H0uZAJbVtXVMxxxxTV3cjr4JuulKVzevuad3E7S1zprYZPrWTW2uPMvRW/qouXHaRUYLDJDb1mhXV54t8O5SXnErFgbmIuXirX333dflxIv9knbjDRiulEv3ya21BS6L60ddM3HJuzCz8tqssHa6sBIZWDu9WJujvHpcuQG0mAhhlVp0G58rcAeZcFaprXVGdpPpW7lB/eXo9VFbiSyJELhhXkKFxYhsWOO6BN/NvSKuLsRHSJZ4aViCIq9ZxhtJs1n1uBtTeSzGuU4KXU7ranL3Ycop5LMbdyPzjKs1Ob8u9ZVZyH2q7vrKI43HHnusGyXdYCyt9MwUPZFyHJNu09Y6n0iadJcDu8z5gAMOiPu+B13gPUna46Jdt1n5dy5HRrhATlnXe0oZPbh5Xx4M9yRDA9tTLuWvoSdjklvdIUD6paynKPVr0AVZ9uQJMLRSD3EhdVOk1/2u7uOVKU+4OwbIYElVtt9++wX4cu4mUWA1pUPArduhVYsEUFPGbqIMTOmFRgW1XJ6ObbkB2plzgnNpCUiR+u6PzLMSSRSDgvJIRzNzJVdDzO2yOAcXOtJjSJ4Y7c5LH6SuIqfOsOQWFxeouvNSzkpjygtOWZLcLSP0qg7JSTm3J45CrQvFQXdTLsT0RdavWNYUZ0oSj/GH2qypIea25Dxz9pigEvDKfUJuTViwRG5X5SuBZV6hoiKlHE3sSTYVgVajUJRhNQmqfEQmjuiaOWi2FnuXFxaVA1bNTZJG3uS4jAyDNX3r+japSuykaNcrvrqqV4ZpwsOzSWtBWkVUU6E//FuoBRtFqBGhSaJCyAMoCGTSnKGoKW3LbgQJz8wxtW0BQxz6SyIdTRQ13kzoVKjJXhHANkHGxVwDOJR4NlG5qAxzOjWhGuhh95ATp3hxEZ5h58/t0i5chLWcD77e4ha30IwPzPCf//mfS3HjjmmZBmSFk7VNOTvqM5tkCwf0boxi2FSDvqurZT4xiqFx3NV+yCGHuKid6reG5oB73d3WyLKIZixL7JJ30y84Kf4rLZcesuhsMxF0zTpL/+53v5to+swhGHcBM66lFu7Aebh4rmhXzSxigIutpEIVuALciyOOOCISXzCunjJmeo1tNJl8F/qT9QapBnq6bCbLaaULmuCajLtAmt0kztswUYW17TfIUmD+0PJyFbj4nsnxlsFSTZaelPGQ0CsndjIlHHzwwdI5SDtjIULLKJ8ydkF2pgxM6QXRN+7khFtA7co8wUlsgIY9eQD5cOyu/CESJBBL9WkTiLnfX7lhBQXvsEHHoxpi1ArlQuY5NMCPbi5AH/LuNMeGrkmrIIkCypIXUZrYtkeDB/tbukNazCxJgYyInJjTR6HWheKgO+gQaXkMPe+2NlMaoNVmTRExdCg1c7lB0CPDZyaSWwPH8+Z/rxyWeYVqMOsf+tCHSr8Ro1CUYTOLBiBsEmRh27X+9Jj8Zo2e1pTDE57wBPfGI0KwZREwqRGp6VvDR6I4+pSPGS05B4TlQDN9YLjrrrt6V64CylNiclrIGkmiAvWDsSLUaEajNXkIRS1PA/1gRvDv3enP/DQ6SxVL3Wb9Q/L5lyRcxiH1axqvRircL3NEhZrsFQGsEVSOk9DS9J51kX5ZQdWUYVwIH9RqQjXQwyygcYlXFuD5D/k34g9dYxOfk8Wl7q02Uh0qwy6Rr6SHCSQ3qX4Mqq/cfI9M+BhI/lTU0W2GwSDJNEliWIJElrbiRaav4w+RxlyjHj372c9mZRGJasROc5YXvuZdsAgI7yGqeYUe9HmmxQ1n1u5UvHjMMcegHxaXJyH3XGLPCJkVY25TSRs9OTqiJhVsSyA+513wOaEqa57UKByXqGbyS8nC8PhqsKwgo5yjI08I38hXnHOGcmbCrk8ZuyAbpmglvYisZOEBoMlvMFFf9rKXJa7GH6DK0EY5xReOoK+HH344rUeK4pFhMs/jlNCYiJIaYiTHgLKL8ZZ94pCreel7HfJcn6ATqHKG4iv/krH0mda+5z3vmTikqswCU2PKKNS6EE0XBx0Deoe+Oo2ZkvgZfCjOmhpi3p1pcc0j/AA5GpKOhn+M4EpgWUCoGhYXe+OZaIEr8mQ1E2zH0Z4kxkX0asrBFJb0LV6RItryyCT1NZ/pSd/SwLJexrKEzbOSiTmovvOevFUfRC+EuBIP5Nac8rUGdbK4NXkIRS2XaNCMHVkjVeymQoxx3znxUcHF+CxQWNyarqiRyi1uUfa8WAOwSBO2fGiBq3iKVbPPwNWUYbK4DaHK9TCyucVdgOcZmQxYMsZAKI9c+hNcInxh/3zl+Ua5IU9JECNPaqoj2hZ1rAitidljPpEpl8o9FVxlgKPazH+thlloXkzUNHV5qcIgKdNclDONWLVI5XaJHXH/I/g8k37kAE6ZFSym4xUBGSeWPU1oiOuyfA2CbfRSRio2MgU2B9QE4qIkJgA/OqUNkMWPJEUWyUSKVZbAOKiJqAiTCg/AwWx0/sjETvSnjF1UXkkvDBZ/mV4OUoyNrHDtmJWn6WgljWN849gaNnRZgC5IGU1/shePc1XOREzmDJEVOsLiwFonEizOSz9ayWFUYmEU5WZBTAEI5GfjibrAL807fn08gxYY9CAb/06cKfkrxVljrhURy1+sfYYqxygJHkG1ilJ5JbAsIFQ19qJ8PBNNIhlbeXXUKwUSSekbCqShHCyDoGdhYLtBWlLBlTyj9pgxZtWCRDlph/xYogSKMMxUmNSmNlMRjNWgTk3U5CFkOAfBKzWN5JF2+QQxa3wVwZItMVqp6Yqkrsf9TSVF2fN0LgAF7e3QpTSgMIzzKFRQQxlqpS1USQ8P+F+A53P9OmgMhyUF4aML4o+1py/SYOhPesW8Gr+uJE9ULqSWpDYfAyaT71B8vViYv0t8sTF+XXpqKAsmWCeReHp/XKdIXO/yfnEUolqcBaffExq77LKL+VMkkl5poJf3osYbVyaRwhU/OrXOzxX/iacDgQ5qIk4iUQcddBARtHCMJVHidsrYLaUXA95mjnUDf8v61H3BIvFMoYsa/sarhhg/TJTPVplgHQ8gzi6oPxf9aDeHUUlxFgxEXbU03O1RaHQBkeKgD9CYMlPyV2qzpohYDfm83OwTYLcGGldeGJZx32cK1aD1/HDAgFoMjSUBi8IbYylFVgQ2VatNUo8aykEE214YRcGVZHHtWLWPts2UKB4AI+egCXfTPov93WCsAXXqfkMepohT0An9X1OSDY03loG8pCZ7cwEYZzvIw6CttjKMyg1NlfTwgOwCPG80k0XPi8NFx6VDB8aYL5CMUBvBeOo0R3hPsOAcWTKi6ZF1p624qCOPevKSijRz3oQZBalSNWeY7QvG66maxShLw9w6IKAmMx+BnSLxQaF9ER6r9avE3R6l34qRcoqDz+EgQ7xiE7oxCdVZAL3iKAQpv13TdORMVmIDOH0u9ks0yakKvwSIp7z1xRI0raQXBkvg1yI1Uq/TdOLzsS4v8qwQ/vmRNPjH/MGGAIlOBUQG3fKdI1Wjo34RMdEOgkEeIsoixL3PPvvYLpmXfq3dQTkEiHoqJOosEHchTtC0idS60Hhr4kwpUqjNmhpiU/SAjDHW+o47hKzaSjT6QnwrgWUBoeIJpaibvgO/zbxtVMc+sM3HVT/WuI3J3lAO9i+sSgmYP0tAqyXblkxvbaYXhyYvdI6EVaOHCZJypymDsRrU6d2G5pzZaF6BWNKEJmmkA2KAbS1HhQV0RbxYkz1PawAWeTazrOtsx/CkowITwGbPVIYLCNViPG9c47LwtFs69hbs2p8XyYxgt70NgUp7h3Mpbutu8k3VWpGcffbZPDIrCR6fCLgYtVb8Olak1DK0iGAUAlGjtJXIgP0VKoxBRZPaxSFz67iWmqkL4el4qpBAODkl/Ev/NppIj8T9rnjFK1pB2gPguqZjfnjApEOGfAiVSbyxFNdt0FwAveIoaIJr7MixI1Qw9NV2OGbazjJ8YtdTfTbGrvZEBAY9WkkvhG2pWhSwalDsJBEGUtQAzda4g+X0nToELzYmfWYjvWu3if+kI3x8jmDjdyk1xOgpJ2apLXoKRLwrC2V05qXf6EL+SN/FJ8NHNL/sMBGbtrpPr9e60Gg6/HQWwg5ZY6YUKdRmTQ2xIpFBobNCTktZClg1Gjjb2ACnFlcCywJC5fQJ7WHOGnRzwQGUNvOx1RorVzonlEBj+jSUg6lqFzmmKgFmaMNQ1WZ6mzFP8UY1BTM6ZT8uFp01qBPBeeWhxomliBNJZiKTgxljGkpJ/QV0RbRSkz1PawAW2eMKUIy2pcKQ8e3e+c53Gv2ZynABoVqQZyIYf3bgsRub8Gkn3yOA2lewm8tPdIqK3VUY5z64jfGucyKMQXwOg+Rn17Ehz7iSLRqN5rWVGHWsIHl5jCjVwwD78cD/56L6f6jpOPsjGMjLQxPDIqsU2bgLTCOGNWqXVFDIeY04wDLz5BRS3Df7uJZW/igLQxsnp5hwooZt+5HmGKsM9CrHf3wwBT0RDyGacRfysxWeOtFgr1qXIUbomaV4JR8sJQxznEkmaviMII89JNbO53Rmpz126MwrA7VeCKnZi6K1iYH09U6YB9u1f80NV9iAl2zwpYTu46yy+n59wToaFKTMIkdIakSivIaYA5bo2O/wZ3Vy6qmnRv156ecQxYFB5iRIWcmRfJ9JCIfP+MYMEqUIN2jKDPJ6rQu1QSeiBIDExjnB2kyp4VabNTXEZp6cii7YKSQA1IgPerRyWOYVqnRwhE4wrRwdT2eVYZXmQpJhJs35ZDyTWP6BU0I0SX7YcwxgTTnQTs6vkGdhHjNXzCneLerbdMop6lBxAjnxGQ+2tHx2CEAciOhiiTcTv1RhemtQ5zSL8hCKOh3642HApD25zjnnnFDgOBQrMqxxcgoPRY03hitK8pNTNdmrAVijaSCoeloa2jSeSa1mTRnmZ5VrQjXQw/nJqQV4Pld+3DiUGPv2uQdB/hzbc2ydBi96FsVCLi2RNZC0g1EUQx5s57C7nCNyQxyLFAaFoMRbxFIoMqEMSnkQV8y7YF2rXfSL20jtFg0SL4lYR2w5r0zakDUPYz3RpuPpvOjVRiEaotMRtAovbhkOmOH8CuqyLhNZbfRlhb0gP0ypsZgYTDMV+Xb03WDsELGPwOjq1ERSRcTQidBL2tqIvi9AvwFaemRMYyAmrm4HNItdqLVLdE0rrnPEomozpfZ6bdbUEKvRGZQTAEMZQdplwTKvUJm5dMhgxBv8m+aWkmZ6o87gUU05EGae1kDXtWd6o9EYC9qpqJCLUCdq88pDgw2dgg9dNKgzr65Ir9dkT4UigA3eGJcAPCmQicpwXqGal+dVzEifLK44bQOa/qgj0BHoCHQEOgJbAgIzziqvBAJLEDGHKUuxlbTS3+0IdAQ6Ah2BjsBmgcAqrnE3i/53JjsCHYGOQEegI7BpEFjFNe6m6UBvpSPQEegIdAQ6ApsFAt3ibhbD1JnsCHQEOgIdgc0egW5xN/sh7B3oCHQEOgIdgc0CgW5xN4th6kx2BDoCHYGOwGaPwOZhcf2WsXjhyybOv73Zj3bvQEegI9AR6AicdwhsBhbX73r9yNplpGOUXFjqeuFxeS/pCHQEOgIdgY7AWkNgM7C4Lg1xtWbKWrXWEOz8dAQ6Ah2BjkBHYAoC50qx57ptd8xaU7pJ0o2U6X05f2RjcEGxy7Lj0ixXW8lDIFeUO9PlA3Hfb37Xl7yeZ511lqRD6scNGO68dqWZzBJB0wWKLhtzpS06PrvEWCpKKUq233577Uo14+Z3zUVaTTdpSLjhksx41yWokT1YMvC8hy63c1O5KwDdBOmy5XT/mVtDJXJ3YZvLSFM20ynQ9DodgY5AR6Aj0BFYJgLpPmi551gpZkmo1l1REvl6xAZLHuArG+aGYRbLtZPK3cPumuWdd97ZJaX+3OB65JFHKmet3XDN1krI6g5V1Jg65YP8AdInpZvEXYzsqnrJktzT7TJYF3N70YqWaY8Ue/lF27IGeapFGQCZYTzEDdounnWpurt25SJGB8NcAe2y9G7Dd+u9LIEK0534qdf9Q0egI9AR6Ah0BDYNAhuiyiyrPHoMobWsrBFS6Unt5OpnuRHOOOMM6T4sEy1bpUB52MMeFgbfkpSZlE7AstK7svIp967UBYgwyTInyzogGV/bQbBEZhFVlhODUZSFTVty9UiCzYoPEtLJxHSDG9xATcto2YTwEMRlH3K79ze+8Q3bvfixaD700EM9kmBHyg7pjKQtkgAOZby1+elPOwIdgY5AR6AjsBoIbLC4oriSLaTM88yeEgFh6avkK41sG+K6LPHJJ58c6Zxw87jHPS7yt8hsZTWpRDqLSE/GvEnwwnCy4jP5lulPHfUln5L7ScYYXyOlsNPI6XXLaznR5D6LSLWUWymxj7TMp5xyCgoW2Yy3DC1C0170gbtwwAEHMLQW6JbCrPtMfnqFjkBHoCPQEegILB2BDRZX5rI8M52tUFk2xYrZ0cifHA3HRiy7FV9TpjxrWUtMhTJBSi/P+NmCtSPLlEZW5zbfgsNRQSQ57b9GrjEr/fSu3wj5LONVqpwSb1mOSworiC0tnSS+FsHxIp9g7733fslLXmLVK7zsQ06wzVV/2hHoCHQEOgIdgSUisMHiOqYkfhs7pqhbpzqdpMTOaCwWo8mI4tptja/FBKX3v//9GTyBXAvit7/97bvttpvKaoZJjhcjMWTqRpHOuJNxeCrnJ5nzPffcU6rzgw46yDqY93CrW90qXmfChbvlVhRPtom73377HXLIIWPKvaQj0BHoCHQEOgKrjcAGi2tz1Dr1Xe96V7RnkeroE7toqfqWt7wlrQvf+MY3CvmmVeaYOQtcC02WW/B2n332ud/97scEqia660xy0JGv2Hbv+N2ZJWg6FXXsscdGTSeobdzGZzHwhzzkIYLbDm05zPzhD3+Y0+DR4x//+Ac+8IHsrpNfFrgOVwc/M9vqFToCHYGOQEegI7BcBDb8OugKV7jCvvvu61SUE0mOLx188MG2S4WFLRAZYwd9d9ppJ3uoDjC/7W1va3AgoutFKeidcLYF6+BSrCl9fc5znuNss91ZRC52sYs1iNQeiTOjdt/73vecc87xy6LDDjssrbYdUX7Vq15lEayORnUhluP3vve9uQ5Czc42++2Qw1+xr/ya17zmMY95jENbaSe41mgv7wh0BDoCHYGOwFIQOP+zn/3sIOTnrRaRLO5Pf/rTvfbay+pQuV1Va0RR2c9//vN+cXv44YdbLEZ9j9i52G1Vwjzf8pa3ZOqcW3YIy5kpYWQG+573vKendnzRZ4P9PeEJT1BoCzYutRjQcXhqu+22iyZsJ2uCvRR29sGpYxw6WuU3QljCud8B+7Pwtbp1nArzltF+icSsOkJlgW7vlq/wta99TZTbz4rwb0MXcdWshtG0so+2+r8dgY5AR6Aj0BFYVQR6RvpVhbcT7wh0BDoCHYGOwAYENoNbHvtYdQQ6Ah2BjkBHYB0g0C3uOhjE3oWOQEegI9AR2AwQ6BZ3MxikzmJHoCPQEegIrAMEusVdB4PYu9AR6Ah0BDoCmwEC3eJuBoPUWewIdAQ6Ah2BdYBAt7jrYBB7FzoCHYGOQEdgM0CgW9zNYJA6ix2BjkBHoCOwDhAYWlxZct085S4L+Wtf/vKXuzFxtTv5ute9zu1Rq93K5k7/KU95ikSES+yFS05SqqiFycoQJVHEvK9LSOXGzXnfmlJ/oixFSowpBFejjtbnSqfh8hbXhrvRZTWY2WQ0zz77bLfFvfnNb95kLS63ofUxCjMxed7znvfOd75zZrWVVHB/EXlegEJtCFy4hGAkr5tIdqKimEhtrmobLa4romScdREjdeBSRlcQS3J3s5vdzJWKc1Gct7IrkSWvnfetLa2+262lHVxWr0899VS5h90mtkKCEiO+/vWvn5fIxz72sZlZk+elGfWnyJJen4ce3mc+8xn3psWl3xP7SKGcdNJJc70ykfKmrOZ+Vhkz+fGbstEltrU+RmEmIHLPuLlvZrWVVHDBvot4F6BQG4Kf//znCOYZbmYSn6IoZhJZrMKGe5W9/OIXv/j444/Hyk1vetOg9ehHP9odis94xjNe+cpXLka9v7U2EXB9pmQVceHl2uRw9bhyt7ZLuVePfpuyW06l5GrXGTzdfvvtz9tF+Vzc1iq7nt3dqwSvVmGNl6+PUVjjILfZWx9DsGGNa4Ere8Eee+yRzK3OyxF06KGHRmZ4aQAsfBMi9HVaIbm5O96MAAAgAElEQVTi2FXGN7rRjSyLXWJ82mmnRTXZ+t7xjndIkHfd615XhoM3vOEN6XU+uxIp4qU3yLP4ybwrz/wNb3jDm9zkJlbY7Ujat7/9bakAEVd5//33lyI36FtG3Oc+95HfVwIGLltjFL3yghe8QJe1KJEDXykqS08kGYNrnyVC+PSnPx2FFnOyAQqiygF83HHHDb6qM73dnKUaeiINr3jFK3TNH08of6XYUMRqJGXSa5g87WlPk6Ppmc98ZoB/xhlnBIVo7lGPehT1lw9WDcwxel/5yld23XVX119L1iRUmCoYrBe96EXANKwu5eaQjt8dl9RG3CpcuCUGMZecMYWaLEFJzAYz/sgJz9q7z3rWs6zLhbUF1YNUcaxBR24hDz05nuV/HLcbJbXhKwq/sBiB96LEkZE+qziURE6UjIBpHRtG1tSLTJoYkwd6hx120Cm5n7UebDz5yU8mkwbUtecRC5FxRA4PAJJhl5xHten9yvtbG4spzKMTA2Fb5G53u1saiDGe9IBuElSKRe9AdOaZZ6Zqxe54Si+Z7KTRzeqUUtSviWJNyIuiAnD8CMYQacCGAmyPwrhTNQ5r41gUmyCLAWF5yBjWXCHw4SRloZRIxatf/eo2AmM5KfIchUVYxvUpan+p3PxybX6sOIsSklOo4aCOiamnpoBZzEtWkk8EeVqf+MQn6vUd73jHJN7qGKCXvvSlsrVaTvg3X0zXFMWgR1qh2U488UR4WnDaevv1r38ddWqTfYBqg4c/0KHZ/Qn4+CyCH1/H/0Yiv1QuDi5Rj6+CXSyTlABY1CVyL9/AL37xC48kEpClgHKXLMjeMPoGQPkHPvABWQeYBPWl85NLwOxSLpOPdLwMhky36PtsLo05SSWEz+SUmI+ukZZAtz0y3vxoq3PT78ADD5QF4YQTTqgR0S6vQoZBnJi0EVF/7nOfi4Jhiy3tC13oQmQdBfR1h0aThVAkYPB1rnYTPw30GEuZkV772tfyWiQ+gphIQ6ODUNVZIiijIlMtwwSZg4PJeZvb3EYWBxqt0VwRzDFuZG7rrbfeZZddIIZD4Ei+FNUYCdkpgPne975X1grCqrkxBSX8M5PBh9qIs3CGQNCF98bLkWwRzSKpmix985vfRIEmIgbsqwySZiYKpOVqV7uacX//+9/va22sJduwJtNH9G2sML3F1ht4FoVfPitibyLQJpatNZnRWcxvu+22zK3cG3jwihMVeKCDLNANMalgCdSRd0Q5Dgmn1NT8A8qOj0IYyLDuc2FTrsyJ/co7WxuLiczXBmKMZxgzScy4FGa0iSb9CY2sZq07JuYFL3jBmOxcGZrEhoX6NVEsCnmNwzjCQgtxsrnjU0Zh3Kkah7VxLIoNss5w0ACGktzaatVrayHlDI/0qdQvmeGi0cmUXgOBgZyMGSb2vFLlNVjGrxxzzDEETOQmHlGMMV9qEpKbkhoOdF0IsDTtXEZSoaf5EFAg7I4F1RFHHEH5myDsLgYIA5VuD47ky2Kn3FkT5TVFMe6OmgRJChzWEKqmGEdHtcZkH6Ba4yHa2mBxaSLMcSrHHERJzeJSwQ9/+MMlnY1qFkDJspIebkKUU/eS3oc0QJmhjXLdCA3oq1xA5FtS3ngUHusnP/nJIkuR0/7oo4+Op0wgpHymdKye0yuk07ZZkYL0ulj1Yjy1e8HAW5lRdpb76RWHyHi4vpKkrbbayqouHg2+Tm83Z6aGHkUjCxOPNSpLA8zqhMWtNRTiaBzjFeAnOyHNop5S8bXmamCOcYOnFFJiA/Fo9913D4vLY5Pf6fTTT49yLpfJH5mVx0SSxa2NOEHXX72Od9GJ6TQmVZMlK0jr7FSf3eK+xFewMHs+63VtrNXRtaj/9a9//aijjiLA49ZreKpZE35dMxasizq1oYw6yclIiob2SZPL6yyrTr3sZS/zGcNpuH3lYEnblRiGEsc3qk3pV97T2lhMZL4xEHkrPofFtYcV5bFSj2xgte5QhbzJRIdcOZlVE8WakNc4DIsbfrwmpozCoEe+FjlsjGNNbNhUC8dEn7PLwYKYFKVkILwuTy1UyHYNARUGcjJmOFncGizjVwAr+ypX2yP6nHV0TsLnmoQkU1LDwVxjRIUtoy3KUN+t1tIQRBiVAo8KTL55ESpCkCCc6XjEoDj/63NNUYy7E604WhSPBHgQl32uMdkHqNZ4CIIb9nEjYS1Fifpcf5L0yTULAktJTg0f0+spGmxxFtSoYzUj8Muuc2Oj3FKMMEUIgj/IvHFt4pFySyiVrZbGLKkmBm7pzA5ZvjiR4V3VWGh9EXCLV8SROAEmTyKbSKnJbSTiUYJVnrVCAiQhYKomvMwAx1f+TsrIqyT/Or3dRNmHGnqEic8YPVLNsobPFS/WGoqnvPj4gM9w/Xy9yEUu4l8gSGtYHKwamDmr8dlwWFqlFIcCEhZbHoVmtBYx8aIm78Qk4VqNiaSS2ogLXQg5cJV4sne+850tqa2ei3RqsoRJA2puQ5IAmNvjHQqPamPNSyVdfD6ti4XihwCPGagNX9QsCn9OpD2UdjoGLYLLsk+cLcrpXDs+KfSa6gvUO7epPM0CfmRM7Yn9yts1QYpjMZH5KQORN5dA46ArpzEa3cGDAGB63ZreZ0aXaiuKYlFjtDmcdxQGQ1bkkJPUGMei2Bj6/Hg/pWRNzxdEX/2UbjxCiQ0EsDfu0YDn+NqGJX+F9jDNAc7EmjICOXadVGhLiAo1eRZWESqn/6MVmkSU1Od0wJZsm3rpGAotlPjhaJrvFr6MkfgwZmLi1xRF3pH0mX7jycVXIS5mwqJF74rKM6rlqNZ4iJob9nGlpAXc+JQaD1cgO9zPnLm0+UpnxU+JYC2eLGylGomPygM7F+VmERATNRGJ9DmvT8eplkjlrcdnsIr72T8WZKN6YmdO8MFgMDbxx/sgmmmLNyfCHYOstdSYcs4Gq594yM2tt/Kv09vNm6uhFwwXUWo3lL9CUAZdqzWnWhHMMTK1scOVpq1FEvKWmCmV8phOKimOOJEQC8ISiRL4JZzCsEUiNX7MN26KnR55nR0vkLO5JkjFsbbJbTOVoTVRWVyGv3jcqYEnbovCn/eiPZQDYYsXBzSLwomsyryrNBZcljh1MbFfOZO1sZjI/PSBKHbQqDW6YwpDYCAYDVEsCnmbw3lHYcBMkcOxbOTjWBObgaAiApwi/QYC3ir2aMC2r21YBvVtz1tZ/vCHPxTZth4V31KhLSFBoSjPOuXpeGRTo7VZr8KTnvQkLil1gQgHi2cz0+iM+46rlPedgaBIme32ZM9RrfEQDW1QytqwTBR84xcnrY1pUUQc+zfUd1osprMkIumUo2MptC2Kscatabdo0qZavtfNJQlwhZfFeFP/v/Wtb4mWpLXdABfOC1iFyGI9ym20vYpP606KJv3SlMLlSeVGPdHZZpttdAfn4v4K7Sny1OyO+Mw5Souqz372szUecpamt5u/VUMPNSMNJUyqT8Jsq8SLizUU79aaq4E5xs3YRSwoCMYmgs+4cr7AgiPAVCLAlT7nXc4/10ZcRJHz58SEP96eceHgF5fLNVmy3OF4GfpYjjvSlWQyrVbxjJniWNut4OMTJ39cdQ6sjTSmd9CRGp61/irP18rzDiW4bA0ICHFEkOL1kpAxLFwNwsPXTOs/JxKi+xP7lfNfG4uJzDcGooFS/qjRHbMjDqBEfWsL8Op4URRrQj4vhxNHIVgqcmgDcso45iBolKCmEkqJYIvfoh8bSSFXDtOYd3YQighMBDyqzQWLhSB5sPsj0umMW1CYKSE1JPXLRrWRjUO7qAnOcxaTYTLrRT5EbmxpeZq0kNCOYx/sgvrKmcnYQ/G5piiKmPAVkAqLxvMQ1hZvmzjZGzxEWxvWuL6I9OqDTVAW1KldM806mrpxgCU4Nqhx9Iv7b30d78f+VvihfBzbHsrT4a5ifwgEOlrxVNwvdq18th9MqkCGJlvr2AtTl1b3A1IEznEGYkGVqG8AhOztfXpLfCO2CkTeqWxykByWnAgpES7jj3BejI2tEUREKqwGBOKFo1V2UlGYlK9U7Ehe2GgXkyeffHKRQg09kuS8gD0t46cO3tKp4EZDxSbywlpzNTDHBEFBMNIZLnskUccq0LFYx3aCTwe+1CyuC3OatRE3EKZKBJHIEl0Z1nHMT02W9NQ8CTmknuwLpDgH59IU5WnxxGtjjX+bgsE/55Lkh+szYKCG55jPVBJOPcfUFJt3KO2ecGK8hTHesF1wvJHwQXO0FfCdf3E02iNuBwUkwu9zrV8NEa2NxUTmGwPRQCl/1OjOIx7xCBHUOINCdXDLOMo1UawJ+bwcThyF6EKRw7koBB1oU7mxICG99jiNKYeYU0VFxF4+7W3QLbZqCEwEPKrNC4tlLoHUeorxzpSQGg78RQLMHsXvC2zTOsTE5iX+BdWdJhFFM8eZnjA6nsbimO3w2Xx3cspmSiiBmqKoYcIuIO51cTLbmnzuiZO9wcOGtlis9Gdny5IxueEMElORnjrfT2otdhl/cMRZZWw5n6zckTm+icM+lEKcPLIDlM4dIEIjeysMJFImEolhU4W84qyyR+LDliYMJ9DFJMlWzt7gsx1EVtYmpT+OsC3uqMA+ORFjbwOrHAh2t0aE8bDxiXn1ffBVTYJrNcNIY08f/XwoXtcXPUqkBl+V19pFhPou8tBAz8UjwQY0DAr2ws7VGkrHCqKhu971ruxffA7Na/O/0VwNzDHbXEgOAcwhrIl0Vhl6RNPA6a9CTtX43ShJJ6d8rY04ncI4WcxxbG1bUCtFaqZBUZZscfFqMUkaibGjT8Sd6UVEIAeTVIPPtbEmeE59E1EM6I7zKcXWG3jWhJ86MBEwEwc6ijKTn67Sbj6ynF0rJBILHDPOqf5gzMIujoPFV63w2MiwvV69oJsoAo9q/WqIqLdqYzGF+cZADCCNrat0Xoz7DiXnd1Srdccj0SwRMvyTk/zUVVEUi0Je4zBOTsV5zImjMOhRfC1yWBvHmtgYPvZDH0OtMbQsTdD3YwR73kSdVPg5U5TXJuNATsYMp5NTNVjGr0SJGWpa5UKovCgh+SHcGg5GXHSaABtZFsG6eTAEojtWR4beH+tIVOLkFJ+D2jfrYWKL02HYOHFWUxTj7sR04/GjbO4wQ6KtqjUm+wDVGg/R1oazynnDvG8zkzIac6NVIxEnLfOnrFo6rjx+q1hCMpCyuBw8VcI22DkvvjUoJIj8oEAkf2S2iAaIv00hgoK1wqCmdRU2+EdTKKQ6xXbF9GxGNug00BPrxt743WJD42rFklpzNTDHRMBi7NLvAfIKJp4zxmMJGRNJJbURD2GDQOPdeFSUpehOUQZwnjNfG2tNT5GBGp41tk1+kytMoDoLDGXIfDjdtVaUizeYBUI4gzrjfs0U0dpYTGG+MRAN5sePat0xlIYJJ4NXiqJYFPLFOJw4CriqcTidQnQNHZo52drUXzPIfEw/o0jlRQTGwNZKFoNlQG2KhNRwMDEpk7GNiCbIP82vzqBF9qv2VlFRDF5PDi4bFBey5hUmTvYGD+dDrray7uVLQcCPiyxoimHJpdDvRDoCK0Sgi+gKAeyvrxsEbGaJjHIUGke3VtLZbnFXgt6kd/lixY3kSS/3Sh2B1Uegi+jqY9xb2DwQcDLUdp4oVP67jyWy3i3uEsHspDoCHYGOQEegI1BFYONZ5WqV/qAj0BHoCHQEOgIdgRUj0C3uiiHsBDoCHYGOQEegIzABgW5xJ4DUq3QEOgIdgY5AR2DFCHSLu2IIO4GOQEegI9AR6AhMQKBb3Akg9SodgY7A/0fAj63bl8p1qDoCHYEaAhstrp8SR2aiWtVNVu6WEBle52rOj7VdYJ1fx7gAkWhx4Re97iYN9xH6PX6Dedmb41r5Rp3z9pFMHXGjKVR1Z2GpSHRWozsudsBb3OM9F/1Gp6QrcUXodGqr2sEGG40uNN5Kj1yI2BbRNhH5Yl3F6pZW+BdzhLRf7087AlsyAhstrtsWXT2zFrBwfVXk75vOjMuT/WZZ/t30ygJE4t2FX/Q69/+ss85qrwB4NikPxPQObsqabmZxaYsW3ffpQn8XrS3WeqKz2Ovtt/yEFNQGvV1t/LTRKVfYuFxz/EqtZFU7WGtUeaMLjbfiERvpJr+4Nnxm5WIFWsLFtjwe+BuFYp1e2BHoCBQR2Ghxx+4q++F20+KkMt/8jSmylK4iG5e79cplXeNyJerPZV/pxDGrrt51I2skgi224motP2ou9qVYPy/E3jhf4eCtIlfqNDAstsuE0OPjRwMAGfUaaMoTPlqPe71zgkAwrGMMxxC5uMOaL+XcRcS7PIY2jGM6qfV5x3owCkXRSnVqvA34GXeKJBczQ1tKAmr8qNHBnOFGZ13IV5sOiYIhTukrFOavjLswqJCzMfgMpXHTNXHS6ABzrhhAUo7eWkODsUCkqC5qr/fyjsB6RWCDxXUFthwjUohETlPq2O3nFjcy38kWIANU9F8+rAc96EHSlbhQ258kFXHhuKenn366O9bdOq1cbgN3tyo0k10Z71ZhN8LLfzBY/Ln2U8Zv9b3luvkzzjijjbKMaXKduiVf4gFJykIXiHny2eUMkfvJo5TNJiclB4BEif60hRmPvIux0047Laq52NPXPIdglEvJ4EbsrbfeGhTyGBYXr95y670Oaj1uzI93axgW+ygriGsg3QOuLX/bb7+99ZaaYwBdoCrnhvQGqgE8hXwhKSedbMHYwAxOZJXwWb+EiHkb0a4MJJE2VY+kxUjK97jjjjNABgIbEkZFZSbH65H4iJ6Vz5xPAxAUDjvssGJHinTUnDnWTLt8IAlhzRG8uNO/KFp56w3exkOfd4qfJLSjU278j+v+g6yxcw26Qj0lMyZFCkvUOpjzU+usMZJfRdIqAyRPxp577jm+Y5UkSHVA8LSumqvtJaLgUMYrkbMr70KNpmv98/SCErnEXoZ0I1g136Xe8qEmTm6XlR3EWOu+/F0umI0OGpE82UkUumheTTH2YExOQNl5yZJZKZW3DFGEDcjSy+Qo9c8dgS0Rgbim2UqI3ZKEIa7DpvqpPzbYIumtb32r+65s26ipnH8ti4WFjhJaILIDsbtUswy1LJkLoN1LKe6kfgT9ZHKQtcNftJX+3WGHHaR2op68JQMMi4gNT1P+iry+BLEMbSRgEviVvIkB8CIeWA4etLZoGQk0IllQIiLXjWwS/tUXib0kXfHZktFgM+HRRGSflcgib53FcrWm7rvGnW1mALQ46IJG9Y75h5sgG9OLbGSxqGGYZ85J1OL6bPuIVqjWuFwWywgLhQGAvsoYQ8kyAKzFYx/7WKZXu+hQzbomPyUM8YlzoyB4KE0b2xypFFwZmqCQgJZCjGxONvbk/ZDzC/1TTjnFUEZGoFjZRzoXfZToiUhAgzlXH4wDNGp0VKuNdaKAbeML7SjRBLZZvppo5SNY46049HmnpBZh3mxqAjPS3kWCJnvtTIhcQ4aAwTPEe+21F8YaHcyhqHXWGMlGYgfEKB955JFEJaXKySXBFJP6yRBrjmH2pyNmHDk3xDDJu1CjORAz6UUlwNZK2E42kptSEye9Zi/t0fhgNsnDA5zgkBWXv9LndOE7Q4srWfMUBmN8X1OJzy3HmUehLvRaf1OCrxyu/rkjsOUgsDF3UEo5ZN1jntAICYUHPOAB0jH6Goswnmw8Mo2pBp+ltGMJzM8ol7HE7JL7LwxGZLEdYBr5cQWpoty7vO9Ii1a0uHKDcwJSHgmvW20wTtK9Ub5BJNLSWaL5mojc7na3w39q3VtSgE2xuKKp1rXpRcsL5jy1FeXcCLYn5a+IlK4sbgPDhsWFWJCNgy2OBQ0ApN00lxIrUXCs5n777ectmjfGyOdYu5955plBzVkwI+Wz1Yk8X3mP2BVfnYVh4FO5/GIDi6uD9g7lBUt1QGqtlr7GhxqdxljnFIRPwioo3HHHHRkYH2qilUawwVtx6JO5YvaAKdF08BAmPywu5CPRdzxi0d3173Otg3kvGp01RpbUqbKxk9I1f9fnsGRJEnSB+xV1eACmFe9wYHGLNGsWNyQqktDVxIlTRdThH/63FLn8HjyIQFjyhrQHn+woXYFOcBiMpeSG5ix3Ic1Zq3bRskF/+9eOwBaFwAXG63oLI9PSqsiiJ57yc4Uc4zM1ke7lFymK6DFTZ06KDOfUJJYSmFKy3XbbjVsJ60iRpUc0oFfGNaPEI8sRKjK+UvfxQchLJJlPzcxb7SlkvHMiXqS2Uolljc/jzblxu16kYVO5gC2FQt/l3fzyl79s7cs+RbVY4/rcxnDclhIrPBkf45FToBQZ4rGHmgDEEr9EMCCqWbBqMYFmKRblcQd3xA+VWFdF9Bjmlrxi0VFNhMDI0qoayjuVepH45AGYFZyYVAKNk046KX2NDzU6E8da1NHynRiIWLhPPM7B1USL+xWNNngrDn0KpHuR75jQYEss4oOm3kk9K/svChgAEWfFo1oHcxzanY0ZEfVNHwwMMIyv+VCK0EahcfRhvAs7kea4oZo4kR8BHu7mIYccwhHnBvnsdZ6crMNJ2pVII/r/2Lu3kO+2qn7g/AmKvLKLoPsOF0JRBF1EUQYVxM5TEhoJark1TVPZWXvjaSuaGll5KHeetSyFzDR3UUlBBzpJUNpNdmMEIQRCV3X1/8R3M/bca805n/V7Tu/7Pu98Lh7Wb655GHPMcZpjzjUG9by5P9ECjzuKZ4sO95CskoWBuwQDHY0bhcrN69C0sFCpi0j5FjUEsZ+akFz2su2r0hOUxx6bmoSxbZ7qbemSfX0Kqb3sQ1TpgUeay4sUkNOeUNA86b7b5puGBJYpZNAAr3Js882gzPN2xGwONnPRVVun5jLH4X52SlpDwex0GwnrVQ26AckrUHEApsMSbfnZIjYloLIf2nybBD+jWRScxvW8wcZ+WUf9HFxrxhPDjmOZhrPnzvWcOWmBagJbd+lrUqHk7vLZ5TtJdfb5ghe8AIHxvee+wmiC1aeH+WS77NM2z3O7lPt13NTv9qlVkbf6RyhctSInH9rJae9aMr8349sulmeIjeW0qB2d28NBhgNpfh0myzmA3899lSwM3GAMPHpXOUrCVJmobjrYari/kz+3OeYfZdoh5RQz9Rm2rOPNLccNEjXhpOK8ShN71ve85z3ZpHbRTaM71oraU+Ghhx5yXPTpT3/aCRxfrmM28jrftLSCRk0N2682uUMJiCiz+hTk85///H5QENppVblDX2gp+z3lNkO2idnWKCGVUn4OHNor2ICmubtClG4+im0BAxKXsp1WCnlWudDbu8Rt5f2z5vbotazcgx/60IcsgVmAvIRyzaJ6cJ2Kft1gYz/uqJ+Da01JPPvZz3bEyFdZt2zOJK0JbN2lr0nxKDgFR9spgY36SpXz0+njW97ylmc84xkMx8997nMhqtEEN2t0EmHvl+lSSlB4+6UTN3W6LTb3c0ROLhJyBbFFnFNAxXvf+163Gp3g7DUupuMYZ8W6w3EpYK9OFgZuOAbKh+4GLBGf6zD8yYQRz5KjIztXFjc5qKZzXF6mauLmjlZ+4ka7E543ficHYG5MfNu3fRud0R4aVat64FImLj/5yU/yCbuaQZ/RB952z3H5gbnX2N2OJ52e2s4SiHFsUtVu9jqQ44wltd39aTuhk8D/4IMPGsUpHUlEn6lgsgaircl3olnDzc0pCkZDl0tdMqLgIcS51GYWNqaEjt2Yyg8//DAjALnk5tQIh5NzXP3Q6zYWJvLMZz7TWHsEOuAkKP/4j//YeaENB+MmZ2zOCHOLTSsXRIHh+C3QOoa0r/UMdQSu+3FmZEFdTXIjVzmjwUaZdtHQcbXNyv7m1Ote9zrncK6hwifxCjOmvMHGqB/VRmu96cE6sgCsUR2Nj0irPYkfwdZd+vYQ9DWveY2bd2790Cgumhk657i+QmYCWkemmG0uB4/bwhNEbWYxmmy7Rprwx+TmWtu8biSl0D0Jzu08x7BjFmzOcWvd2z5RIxqgDvGjKWCuOiM3Hcf5OajukpP+eaqf9KQnIRh/eJypwZ+EAOpQtoUT6xkL3baAAcbo/E81Ozz77ne/208a3ZXJ9qS8xcB6Xhi4wRh49OYUZUnQuGaZ2dqk0pr0KDFRV2botva+rgNUW4HUJwhIdqdrtM69997rfFc5Y98XRC64djFIaJL+9hB2hNg7Ck9Nzbs3LJzU8h47nqSZDJ2LWvQu7zfNzR63R3T7xncmm07IAvOisP2npAMMYUoyGlohgUv05ESwHd1hnh0hrUY9t1fJ2ulQCSSai2OgosbMt66DdXHoXkkuvradRH6ZtTvY1O0DDzwAdV0E8rjynztxNCK56cA4/ShkFuTZJhgYvgjKT9ZG2QoGivPWDtW3XiVANYENuIUHG1/Loa23+uEh8Mx+YntR9tBI048unXb70Xy01i0S8ozAiqhS0iUtZ71gC81MYNsvfTspJGRSNrvwCRuGziUgB5xUHWLGEb65QjMOmKkT8Iwm2E5kNNl2jdS3oXfvb4MBzGJeWX2vHO4w3VLHWnvlsnE7hVGfpubSGZpEJ1SyfSpzOf2wpB3Vs/z8HJETXsNQITNwst7YJXVjWcMNnG48eGtbXASjDlu2beIGH4ZSnonsLbYNKtbPhYGbh4GVkf628GHYattj2dHWefltAdYCYmFgYWBhYGHg8jCwMhlcHi5XTwsDCwMLAwsDCwNjDCyNO8bNNb5xjMqNublsfI3jr6EWBhYGFgYWBq4cA8urfOUoXgMsDCwMLAwsDCwMwMDa4y4yWBhYGFgYWBhYGLgODCyNex1YXmMsDCwMLAwsDCwMLI27aGBhYGFgYWBhYGHgOjCwNO51YHmNsTCwMLAwsDCwMPCoxvVxeiVGLbwImpqMJRfHlDhzCcUwj/54fCCAiW9wvP6RmoIxJRiFYIoiaWySIugB8Mr3ad4nnQuaOI+Rqa2gGcKMTKlDlVsAACAASURBVDrZvCo4jzc5qWb17wt08xUA4aTmk8qiZVUwy1STe1GokIqUOWl71a9EljDZJOe46rEusf89Si+xc13N+790CjkC/CgDxJG211lHykUUdZ0jZqxaMrzWFZIl31qaH0nUU6UTGIQhSwa5ydyPCMZJ8yNDiAIkgMyrX/1qcQa78rztf07nE0hOe1VBPcSc28dCEmCoQtVcJPwHFSXOnOBQgkbhlot0VW03IScvpc8KwbgJtledJ5Nu4jgeHFGmPLOeVxZtKoEV59XqbTdU5MG2R6pV/5u4fUfazutsIh2qLMy1sKDCSs8bXsPbTQ7HaxjxUobYo/RSuq1O5v1fOoWcCbwwYcn3fGbNW17hU5/6FHF8/WDUkgk31sblLUhKvrU0P5Kop0ono0gxl4Cpk7kfEYyT5keGEF9PbFHBzgSvtRBCDE06nNP5pOFJrzq5g07T2Mdqs3coXTH52sxix5oOa4kQKbzi8PXFXsC+4IJJe3exnu7s1vLSwEPlarz4ZATubuNqMbEhWXTMhepz43aD0nP3M2o47//SKWQERpXLLtXm3zyz/l1YYb5kEFLyDQMWfq5Uot6SVRAVnOKXFoWupX3nQuZMpF3KFI5qXK4/0WUZC0Irc7vZlIiinDRhXK9y+IhLzuMqvjHLRYj8FjihaMWPVfKRj3zESovzoAc5CVLHXl4UWUF9J0OoKXC/nAfoQ+BfObqVCH4rJDowPLMyeGVFANb5U57ylGTPVSjnmmRBMh/YlQr4LOqyaOwZV2BYFqjg+7KyCyG7SfMnkj43+4tf/OJEpeDBEAaWuXTPPfe0Uxt1Iuw7w9A0Yayt3z4jAokBhHcWv3qTkU2cZyMmdLD8evN8bdAugG2c/3IzmK+I/JtBR2tEeIlrbYFE1WYzSncqsn/bFg7hwSy8VW6LbynlThCWWcjcpGCycACQhEB2PLEqk0pWZc4MqtTCSagHw2IyK/Qzwbo9y04hhrPkCv5bGhGAFc7JoIWN6zuJN5AcYmDMwSQHfpe6NDQX8CBUeZBgle3f9rZ/NiPzEsdYsGuxhSsLLDedbBk25aIuy7GzSZZnz/fOd74TeSc/sbDbInLLJCHICTrXIbDZHGhYCGKDQin6lP49ADh8kc5IhGc/R6tm1mJB26ZwmiHRPUotKKoulG6mVoQngYd40ZjXcBOw2/73c99QiJjJH/7whx1DgJCkk//D6Hx61ho9mxpUyIvQpZkjSy/wNY8oScpJaII6747IYyl1kqjpceoiS3IjeOiSAVolmkkhuRasFKxWrsy06rJkd0E32K6fo9Vs6wNb0jbyE51AHRaTCiIVwiz7lSVAcDGWVFP9yLd2yTSXoURYbFSHjJNEteRbO3orUUfSaTKL8KMOn/e8542QMBKM3UXZdzIaAnLIUrzzdV/3daSBdVdCVVkg/E4e4rXIc9JmpBQKaXtyLUhG3HqEdNPJ0ZtTFkPGGGH9k6AbL4mxni6IeHtNM+E3diBnbpvjT44LYktl4KIM8kW1mgM1LMy6n5MhRJNnoYi6DneGk75UfZLil3/5lz2In87mlQaHZiJtpXnhu1eOiwRYpwDIWc9C1WO8jPuud71LAoOo28985jMUFfFaIAUYbeMxS5R2nVvRVuOOOvnCF74gUjxLAs+QZXHgtJ0H5u/93u/lHyPHSShJbKqCQPNwaLIUmDj1tOCmbfsTbqkZTXAatKtPWOzrj9YI8dE90EU9WBe5YDenmMFhDlnlNUr+O1pZWhiI9dbZP9lKUhDxyE6SA8ICAFhIshqLgs/JXxhOoicjxtWGGDTEFfQxQaxnvBHMjyitnRcDi8IjntitltUaJe/eiLq0lRxJtiuLQgvC8Ac+8IE9oqoEkMDDezIpQS8kBzO0KUGP2oFNTe5XB5MDBg2kKxD66TzPTw2hmjwlDsAcsicxVahx6ZL7778/P0erhuzNRUoM6odkPBOl7TSTbEAiEOajWxoWMcNNwK7+u3NvKYRkD4WYIztD/g9a1uiQ6cRKjhD4xEQjmplIgJoCkc3WwR2sbYWjEQkHOzZmDVRzrUlVFKrTpEsGON0q0LjY9mMf+9jGZh2xZHdBW2y3z6PVbOsAG4ky45wxsSSIkaTIHDELTDIcUaZsK0x8CLeOOqwl88y/iMexCW2NDS2BQqgu+VYAtBJ1JJ1GsyBjQYLOYZI0Zgvu8TARjN1F2fQwGoL3lOAiSVCdLRDLXl5XezPDkULsM6RS850ohULahlxbMEbceoR0H+kHTPmbn+NGbbAjUtlZNEsw87F3JCZS7kG/ySdaPXtIytXklducQTJJkkdsNAR5bRtR2YQYdE6XcXKdOtB8di2VRcdP9f2MvmQcBBL7ErBBmZ8SkBE6KSeDYiv4uT/HhUq6Vl7uVJa8Tyc5xx11gihtsi2tJgQuXbg/x3WuQNdS+erQlAzwnOOiD+UM8wwnYTBbmy7Jz/pfcGISFGabm1cyKSG7TWV9jtaIy8HWMMcb0GUzR05p3j3HJUwtVjrHWuZlWdkKuKVGJONs7/ykEa0Cbs8rdoCNsuc6LNGKGoP8VJCdEJCeR2RQQ3iAMSbCK17xihRGVdNDfo6oi4VL6IQJVYNh8NsGtd3WmZa1sxFnvuQtYpNFh+Xu53d+53fK7JRyJohCwHQ7SWEO/gl9SKanCfSUMzoD8OaoD52jRnUmq0a0gacOpc5EaQvehvCoogy3OcMusLWt/rtzb89xub6cymc4op9IkUjRT6eJ5s5uy6sRzRxZej2Yfl0uGY2oQtzdGZGBRY15HpEBZOJrnNviKs8jlhwtaNtDLe5kNdv6wOZUi4xS/hM/8RN0iYcRsyBFi5IebFtVS+KyWjKY1yErJ3VMMPXn57gT6dSVJOHHyhoZK2F/jjsSjKNFaTEzGYKB7oYQekt9FEic5hnL0xeea74TpdAirSXXFowRtx4kXV096lUeuS7b8nIY4qWwKEuZVDVbSshDZB8jdGOeHP+5H4KfkAQkkdMJgV4e6ZRIvKNV5Yq37WAn0q9xOrUdqh+w7bcsIfkLZgYRRIxg1o/djK1bxuK3idL1c9SJTXNEjDrEum1xLP0WCeogC1aLQhjmaotbmA5jlSusq8usVxRs4942r2cazh8rj0edcaDmfiLzNcKlOVgloShFKrw7EGuJIRXngQoUEmPCg42m/6wio2NsrgLKQAm8cR4mYbCfb3vb2zbdWjXypTYTVBfHV3ka9mTQNrdqvCZFBtwVjjO6YFchlqCkaT5/CpnA9klw3kUs3WAvRd6lOXsOLTE3/STueSa85Y8FpK3AfNx6C8m2LPqRY5GtZr4bv+Wmn/mqUSH7NFMjlMZdn/6tiykX4XEz2hYcnMJ87swXXdm7F+k6iWCUvOpVr9K/Z/ZcBgoH7Wkmb+dL34I6HxFJSHyZ+iRybIgRGdgdqmld9qiYsOTxBZ2vZjsoSECbEmcxHCEIdbSyWEyKZdLJURqCxEF7+HXIW5NyOk8izuyD9zWrZCSdRrPA+/gxB3w6QZwyXe77HwnG0aK0vDkZQnML7cwxIxK5URmTMPVdpdAC3JLrfiKjkiOk+6jGtbWKodd2R1XkJCaFj3/84/PABKCl8oyjWOvEh81Wzurq1QiySfl+COoEDJNDb0q0XWBCnNkezWqgtkM/AxuhwCXI9YG46QzAj2CmV9qjTTRXwI862TcJt7ezVsdOvUqqW6Ic/DY69Qox1QniHm/Us32nQ18qUDJUuqE7kckatTMyU1JsP4qSfBBlI755yx6nQqgucLLHgRoA1N9XbttaoMj9FObsv7tq+xnlA7N2XZzfdMGuQojVOf9HldjexeDdNwwYG/BSyOYwU0chdslMJVTkyGNkrW56pu1Utlh0NrnAV1lCag+Dksmqde+yzVGaIaDuJLy1gHXn3mLYMxUbR1fKizFbgEc0kyZ7CdBFjkJrOhmx+lGn5NWcDLpYnbDkSQs6Wc12ght+9ApLjlaWouV+c74gpbQDLMZ3nDdthy0ZY0k7jdjKI6wqH0knr7qzSIcjOVkDjQTjfFHSfDKE5rYZLWtT1cyUzXWidr5dpdBW6FLCBGN5dYR0H9W49ojsiLZTnhBw58rMaDD7PNnOrXp2gXjJYc+ocspRfyvpoFLJpEmOwZ29OVFTjchwiJirJWnFhOd9rR7U1Ket4ahPFdh6tqG8W7n24uRmVJleZIwDOLux+jJ10okmOWRKn92PWUd1SCgbegdsNtZp7qpwy4QbOCHfnQ57vmzyID/HpW21+RpFbKU+V3zXOPVWuWXiTHYUlMq2rTxUXK/YGJ0EYL672G1WrYWEI4EpyuVbgFm19uw8zxTn5iB5M9/8zI130NbWtmYxoi7wA8leIT1AMsSObs5nUwiksoo8h6I8IJ4XvvCF5CDDiBPe3sIlg4IzxFwUXtJNiX2A9ZIoHuQkV85Tqn4IrOrPV62LlhFK28qmnF1+Clu8KdmD3bbtzp2DIXVCOe5YyIKVEtSyuVaWcs6DLs10JzUpPD5idTIig71V1zbpsuRoQfe+B10dX80NP6IKTDFaWZ4newZ3F5zO4C8eFIdlwh60SGvlD7nEKNchQT1B7Eg6jWYRNtF5KYtThd6ZvDkZwpryF1IKmRHGJI7m5v5k7vNXI26dt2rfPqrqmEvOC913YASpYY/iaJ0YrdtG3U7JDhtEN6rylrXlYbR1SB3r7Qw/eyanDnH6dztPoT0oM63cku4Z2VLbxVYTkDM2KZ6UuCFlT2wHM+ozGpSkKHXrCGQEM7NRNYfq6a0eJp3QOo7xc3cAfvDDHhJ1TJwr2CsGWj4X8wyTdj/kcpr4gB1HjTy96ugflUfxcEi4DbSfyHyN3D0OqOSjZ4DtoVXCx+BChPXN5wQ8zNQnPte5s7SoW15655QBwCUUwFfoD76vzZf4Vs29UJgPBmz76O/WHu+CkUIo4gB861vfGmBguLwII+oynGsmDz/8cHqwv+SPcY7eHUUnPKgOxdM/Tcml7LaBypCAwDywZznoPGyUComGOLOy3pa7AsEYkW2q0JLxvOFef9mdp74VzL0zdear1gX7CEodIrg741qmHngX4SFdjcBuB5rPHQ1E8OVcA4PbarjwsQd1RDP7mt0SSihOjuMjVj8nkUFajVhytKBdmI+vprtgufVidUgb5oulGa2s66sYlkFACHNp2mXuTRxkn4MD66JDZzFnumRG0mk0C/TMv42FQWL6rjjlquAGFSPBeGRRJkNojstc28xwzmsI7e4qXLxwxK3He350j+ug1CcizE8H0XyDTC0E7WBgsjc3DDHEpHJUQEJxLbp6ThIRf/k+pwuHgcgyisS5jpO/7kFa29DWlsfASScLiyolL4i/1pC0vXZZ2omarQYJno+RCOX2U7O2Q4eLRIMOLYx9PH0D+L3jN03oAOrTdoTaIxDrbGDSSUKcuGeECnnY6viqhcHQdocABolTw9rFApv2ZavajbHd2K12VBPfo0Nr58T6YSRaPkjAXci9dVnP1wh6uaM5hElhVojdW3fVFLoKAVrzMiPOQwYZHQnzNJBNNuWBtwllJ/oqIwAqmRTQBJLtXDVpe3aIy+ZABmpqonmpwxEAbbmbR3r2kRLzn6Yvf86IukwNYUMFFLEp4cp0Rht6A7EGAB8qVRmFA1i5PYTTNbjCeyxUS1ObvIBHnLmXy33CwkBatGxoxgK5FewOXWxB2MAFBCXMYwE0zLJECZ4hU1fzVeui6AhKYduNM8uEZgxUBxYjsNuBunNvuYz+1jPyMCmUj3ds6PegjmhmX7NbwsKzdq6MoLeDI1Y/IzLY336oJiOWRLHdBe3CfHw10RWiQtg8jignXzeNVpanhEGAStXnRiIVW+dfIPHW6GQRK1mHR2LbjaTTZBZ0nr0ZMNC5DXR7daAQMhKMo0XZYHI0BI+6E2KMxorlhiH9SJIzrYruMp1ZOOLWMxtWhW1+XIqHNOEyJbKJhjrErWsm2VbzZkQ66EhlwoVFxt/oiN4nU4R43VnISOoodxksrjMbf9KWFUzQoHWnFOT4ZAidsCgpIRQDrVEnQNUECjIEgsPkhrbwmEQhTxGZiAhywGDvRVurrw5bjDLTp4/YSDrrxJuHk3mnAeNCxAYYBpRttL0LFyILFPnCzKgTQ5Pp+rc3yk6ao3XzvW9ghhMuPmaKt/AJPymnnwwHMyBxoTeF7f+CUyHgbSXBQ5jS3CQRZG7spNEaYVd/lDrUWbsCoPrf4JDNwe6xcNYaYgMSq5zKtCi6QgYWwkNsbeV65uGxKKEl84XG3K6CJYrHWDQfSR3amJNBiwQbHWaQEe2nIcqRar5q7VJXGkKy5SOYQEg0bBBrQWFSV9Hf+kfYCAMzs8mqMgMCkqF0U972ZmUZoAxzZgEihK7otnwbY+III0jQitLSIXpGiq53QRrwlI9WTecovFziZ6J0M00/uR+sGqqjdCGtDu+7YLf97+e+oRCkjvIRMPDMPeKCKwvNtJTcpRmsl7tseyHTTgG6SFiLla1Md8SNcHCCoFpR7J4MrIglYHpGdOwxNmLJ7oJWcyaX1cz1utFqtmPxyZNyDpVwGa4hHut6XZdZtCUlNCHK4lxN/VoymDdxAlCH+A7GslcpLrN8RfMbpHWl02QW7pRQdfjRvpxQIotauz/TnAjG/aLsV2E0RGbBRiH3SJI6krOmxBrLr+ZLE4+UQou0DbluyG/Prcel1lbj7ie5Sm4wBqJx3/SmN93pc2RTl8a90+dynfA7hmg17nUOvcbaYyAatw7I9hVWyZ2OgdmVpTt9bgv+hYGFgYWBhYGFgdsHA2uPe/usxS2AhB+Gt3Pv/LkFoFxsSL47Xixxry7WzV3XmtvTiQlH+l0389tywm7PcNt2b37clvAuoE7GwNK4J6NsNVgYWBhYGFgYWBg4BwaWV/kcSFtNFgYWBhYGFgYWBk7GwNK4J6NsNVgYWBhYGFgYWBg4BwaWxj0H0laThYGFgYWBhYGFgZMxsDTuyShbDRYGFgYWBhYGFgbOgYGzNa74fNJw7rtW6NW+fFOSzLgKxXDv9nNmD5MKgpxtIhlNKudV4PEhtqRO8+CiZ3Z1/RWuAoebWZwDpVeKB/FY2vSxVzRWUekV9X+k2wvSpEAHCZl5ZKx5HcF92rjw+8qCnGCffflllYhyWqlgLqvPa+jHxW9oaQMjn2/QCXorYLt8GEfE7/kAuJ5W8uhVMOTrGfF6RplT79kaV9DaNhlIAS1EiOh38zmIpFism3Ry8/qnvhWE9iStWfCIUSIIi8hZp454a+tfBQ43MzoVpVeNEEGRRNK+0lFaKr3SgeadX4QmhWESzE8kqfkQB98KylMpH7pNyH1Z5LqvLqWQOhHw6FK6us5OxMyClspFce6hR+hN/Nd0K4pWwi+fe5Rb3pA0m0SMv+XgnRuAOfU+Glf51AESZnbeSgC/ikV36Rvc+dDdtwWPaJG3w7amC+Sk8HbA4QS8O/RVS6W3cAoXoUkaV1y9Wwj8GvoaMCBkI0dIBhJM2N81DLqGuFwMPLrHFZ+Tm0K4V9FHBdlv06qIZqlEtF5Rhcv2tPOQ8C7Q2CyqoGEyriSDhGDuNihcBwK7q/bAAw9oQi5I9dBKh9e97nXJODQBoOZsHyCJkFH8bUJyM/DlphAqVjhoVsYeTS08CBcYlbZMsgvROLWVWCOB+DWXA1Xodh42UZQN56fYqnLBmqZAxAKZqpN+BJKVRkaUXfm9W0X+0Y9+VGRUeNNtjbUBjBIVhtTQRoGiiqjOWBaOVfnTnva0ivoWHKYHWXqE2jfoS17yEuHOxYdTzh/1nOc8h+/BuMLYSqMhEG7qW1CpBYxiMyQQcfknJiiVFEHUfvOFnFEAdGh/1rOepY4/Q7dpCtuZQoVOxK1VmYbLq9HcxeWQ4sbUYFvA0upnNIUNSruUMMJMSxUib6MKdrf4xlAkQixNxpPvp9m9+MUvTpIlw1kIvh+B7M1IyOiEm59MKn5CmxLEqQlr1UIL7J7mWd+DNClJLdoQQ9sf4JNIQP4Go/spAYOHI6y0QRqXTyLR48cS6+p0WXvTtv25X2hUBKtVR8BwToX8PLigqWxSEI4TIe35z39+ZacZrdEGSMkPYEyAa/lz+P2So0mQyzBOKpMt5artEvaeQgSsECZTCBHJrEp06E1NuXQEgRfX1/+RS+A4eglS/MKzCJk208TRXPwWOWFhIgjOHTpIDgYJ6LlSWqFkSyb/AXaTEyVJpYKNI+x/ZAWPoIKYkkMFGimgymc1amjuXS6QGgRy2r+kjh0BCYHytOJ0GVlaXylgdIJni4Rkq5OpbENRBwlv0+r/wv3nj0C0H7UkRIklkYpANGevkDjrW7oPjiZqVSBswbuVA9crD1K2EeLUA6ZFx6K3U7HKhXuWYEeyFLrBT1HyNfGgZ1ydQYVQ16EUZn6OAEjN/CekRJknVgBJowiXj5G8otof97jHoRv8DDXyW4kG3jb03MKTjHIZl7hUH3to+6IXvUgUbGpDfWJRXGyMRH+bPiRgdYsKRYLgUwnqpB+BwqWykSaB7oRDEfC9ev3rXw8k3YqGTxObJgregITWRR4nAuR1QGdi/WN4dQAvojpkCjIum5Ny3KK8cEjHi/sPQp3TYVLp4WoVlBvIcsi6iKnkIUE6ytlAuM4aCTVumQQ0BzNDyqsRSh2QQy+EWD4SCpzIdwO/0OfmiFWgjkSQFgK6NnX8tEbBsGkyPgTrJ6dGc8ce0M7OACfYTEdI9/kU2hFHlDDCTEsVyewrD66TYwl2dOtYDj3jcKQiLr80GDCp3EJYIFRBCFpcTEVAKx9NyugwQKAgHmJdpH6CGLmyY+Twkf6afDxIkxZOEw2l5UGTjELjyvEFBuhi2Pl5hJVapAHPWiMnOJe4BmlhWxVGrP2pT33KcG0Pee4u9KYyshRSX/0JTdKLrIdN/yxL5SAELbUR4aPOaI3a5jCTFECAYXTil/TPBg3jpHIyFnseEfaeQjTHWUSEDGNJ5Ubv6sHikhJYGGtkM0qZbWZ0Enqja4WjwmhsQYs1F78hJ/HGaQtkica0RcMoB2wC+keMo2QszJpk9pHPMBMSOsL+kxVsZzpCRSGfNAAn6YTL7MqQBxk+waG5d7kAzKjLn+RyBJc52kpNgIRAVMFaZcA5C2hhZmGjt5TAtuHgcLN8I8LrUm+1fYRtkqQ2UsM7w1Ns7AjPwGJ3VAOx72WI87M07kMPPQQgWEsdmyfca6uXtrCT8tIWxDfRnEJthRhkLEwAqKEZuXQPzZQSPhYSJxoX1ljoVdMQyKt+1oO5BJ5WuqFF+eaqDmlFkvqppgiIUZ+GJiVjMXjlwJ/d4CH9MJPTHBIsIYNAjh10TJVWt7KwMaY2IH3oQx8if6vQLKIgDYSNM7T1dhZOD6lWOESdpEM1tMalcYlCmVXyio6UKMmz5va74vml3CYySmKCUkM89alPrSEis8y3SjzYtOHVKrGayKat4JkuIYmkdEy5EXWL0kZzt3ayoBBGqY/YonFHU9gMN6IEYrqLGc2LKiJPa5WlfcS0DKkMwUAhC8hQPy1EMYUJii4ZGTGaVEan3dOV5qUwZNEBGH45SJNYIKawrjh1OFc8BHKjeD7CShukoXmKNoUkVAxlP0es3dW4o4UeadzJgnZlFoxF8gBMfkbbUyNO1qjmGGYkiFNiB8P6mWvcEWFvKCSOoqgunVt9SxmNa++YnUYGZcbFNiqoTkWv+igT5aSH0rijNQo51d5GfdrUDifNSTY7Dc86rD795IOxG/ZwhP0nK9hOc4SK0rh8nORGUbWVipQeNfS2ywU1KKqgkpikSiZAoqhiwxZgz8wUTB1xx6om1Qmuts6E8LrUW20fOce1/RKW1h4OxfgzgISgdWEKQ6bcf5J9k8dUlkpryeGTOtSnP7kYR9F6qQrim6BhbKJRWzSKcw5AekbZlFDl07WbrHxnYKBabMFTU+ZkSgV7YK2CvPvAOexuoZlWW55DsjWVqVWK07MJ6ooWTDl6De/lJ+9uHuyP7WNMzf4bn1e5t9y8lc2+IDF3biUbFNCaHS8C6veW2mAy2wvqgSfffpqsr1YeAAyNVWLTE8GdkkqLhmioLoXyVbl2QUDYPdsFJv+5ZZqg1Iq0NwnBj3tJujboK1+IsYhU/ZgCWa/PFk7PvH9kHAZOOUzmNBqxdeduarpN5j5NiAD+jMkUNsONKCHV9pjZNPdT0sYUOkDBJwSTPW4Bz1ZIuuLqilaG3uB5tKBpznDOA/mS/ZCfyeLXktOcJr/+678eqacf61su+prIEVaqynmA8/KmsiwtVq7/jFh70zw/RwtdqcI3rUY02e1coa0Sf48tI47g/6QYYH6+RumKLMKMRYEEncOa0SgpnxN2UQi8mQV3RVol83GeGfE4AhdjN/5JPqo9a5yE3hHAo06ScrslOfKkxAiNVSTHL1Wdk67cMH4eYf+DK3gmKkwBNxVVx2kEhknDCRdQsSiEJRqVNAeylnKDXhnKebnYTNyBlBQJTHC1dY4QXnfJHr05tVFOvHnETdpE6+RZtVhP1Z2NnYUsCaKcQ5VN1x1PoYWnwgkyexeeljrhmACQriLU2plXHkQwWIOCwQPjRf0zNa6GOmccVFv+zEpvvsFycr7u51Vpvb3ifS3Wakdv8Vk9cBA5qnSCwl0JJ7azOQKnjYgJmpibhccD6di+bMQEM6X6qSSaKWnHzSKSOFSmswocFYcJ3eDVBKW62sCvpEgiA5EmBJlqDkLAzFvAkN/gJzNKVs721WjuQCreU7+WeDSFzXAjShhhZtPcz1p9XSEAk6o6NvRllW5IK5gZTSo9tOQ0oiU15zTZHXczizNZaVMfzjdsFY07Yu3uaf1ooTdj1SHxwQWt5kxMbMK5x7HM68OxTCDO16gdesIvVa1gmxN2Ucgeb9XVy1/+clu3XIthKGC9De9kobuSs4veDRrr52iNUuEIyR0UXzrcTOHgCp6JCpSzlw+GloYvfQAAIABJREFUmzQccQGQuBKdBNlgBANzIGspN+h1sKUfSortZYfpdG9T4TjhbRo+onH5kfi1sJnNuBooj28ktryfbqJXM/Yan3Dbi42gDZadPpNTOecAVRELKyWbIf3kHeJSYH1gm/Q2ByA9GAjbAIxyVYLcHbfUKyqzLkFQV2y0EtYFwB4eG2V9Us80X6o5Gd3zxn4KbYkjlux4kI7dHlMXqCrAlbVPTam2a0debSHNbaNcHFNoA5pc3PQrUJ0m+rMoBA1PiyPhami3zTCkNVPSbnC7oDpnYtzg5OiP7HFNc4JSK9LeHQC/fSdrqe0fSBYRqrMldclojzpNGAScMLwmaesqB+k5mjt6iF80leMA9zyawma+ZnSEEtpWe6rIW12xgRBG5a63Cvs89m1Xo0ltgJz/PAdNtlM4wkobAOC8vfUD55GAI9buqoTRQse2KIdT3Xg6uKAFqsM54s+hgz/Eb3fi3O7IGn3TN30T+tTEaYXeiGAM6xDKM9ha7wLYIjSOELbm8MYhwStm8+Bn0Sq3WU5PkbpyJnj84Ru0n4RebbuEOupkM9bkJ2zUWywfJ9YR9j+ygkdQQZ7nwCUTpOEwGo/gERy286K23GnlOWeTlZPsCJBd5JDMeuPTBV7Jrqp5hPC63T5yV5ljgShxBYbbltp47Wtfi/hKoPOqxcPsGieXoCPlti/EpPKrXvUqhEVCublH8/FaqMMSQYV7/nRaie4h1KzS1RyA1EHW7t0YyCpCLtd0XWQFOXskJ0a8CiB33hbt1YK6h4cyYIE61AnZUR6YhOewi6xRIe8HDADJ5h5I1onpyuvlHIJ/Wyt4g0MDbXrQhK0ULcV4Z7NDoDo+iFQ5eGPBuJpogdu27BWnxabM5nCZKxp6BJ5yAxklmye+XAdCCo01Ryk7ESRqWkQHsTCzMWJ063gjMFPJmCSb5hYSBo25cFpmOlw0ghvg6tHcsyGoC3G1aR5NYTPrg5TQttpTRd5iNn4FPoaQGYSDDYPM8dxd0EmT/atz0KQmqN0SWNwJK+Fi6mrjowKAiwtcTbmniol4VgLVhLX3YI8WmloiSePKciunNh8HF7QGgn9kH/xjN30ShUfWCDO65HLfffchZptXi2hBI9zRIaThetyBAcn9DHeEsNXkN6LFeT5wgXUPWynPdh/nesYRbk45qAqbtHg7Cb0aIlSizxTSf7o6tZMWgDxzI7us4Jmi4qS59957PeOjI+zflSrtEEdQwag1r1wbYr6QxraeRxpu5kL1WEHa2lr4HMZfxPKZQO5xosTi0mKAac/vquYRwut2++iFQ8xg58Q0sK5ujv3BH/wBQP1l/2dvBAte5YaI8ro55dmVMG5kdrEKiNi9g7R1qo8PNfTTCWXdSfHTiqpcp+VKRgCkq/xnvzjCIVzgwhknB2lEs7cUMO83hyS7lQGbq0ZtW88FT3tLBQwUuT6dXpNc+Mdiq1x3E9KJEe3d8+z2Fke05/RDuZqLCqwWZ7Gpg3QCKi2F53OMv4GH7jGobaJtmbMHho5nfTJHOLehjnODX4i8yBl+i0MEaldhvq7POGbglNZ5bugw2zMQ/tHcM4ngQMLiWlmtwA/UXOwaoRQSSArNg1JcEV3STsGxLnnKK6U3vnGXWRAZEbaZJgy7LQXD8GCCqEWF0dy9IvuYAro1NIWXm1OTKWyG61LCCDPaFlVku5P7R+mTM5CDwUKAHBjURso3xEwx55L5aFKb0d1pN690FVOPG+kcNOlCZl0Oj32cm3cjVmLjWiAG3AZjFIxYY4gfrfLEoL3cVVaty9rdm1Mqdxdauc7RHsYkRiAKMhVOFrR794TZ55IEIPnh9MAzNF+jdo4Yys3BuHDZwWQUy0MF5blsATaCDj6f/OQnKx8R9p5C+Aac4xJ9/nhBoTc3p0hqfeILZ+22KJi0vYdYsJ2EXtt0UzCELUErnbqdtORkOHcy6r6qn3yQLBgPKBkJWRdL7y9qT/kR9p+sYIv8ESrai+JuUEMUlkcnaDiiZtRwI5mLC7LNa/WcKU+AtOK6akHdPBOAeJ/a7tYZCYcu9VYP2yv+NiJMg5if7TAsNbZVbs+mnM3YXnKzQi5xlE1RbTVpW3VBbwtHALR1fBer2r4r/ADIzT3vTbURPMxebXHgvttJSZE1EjF9u/xNZTcmCFPm7agTrzTsjqtPIO31nK7YNLkNnm7xs431aIgqZ4XUdeVN5RFKoYuk68KQHqy7tZjjPDWhwvXyFkWTuXtF6u0pZzKFdkZHKKGtP6KK1GGAgzxGz5lInkzqzLabCqfSJOMJn1YnXVZy7h6Dcg+MVYbzPQ2PWHvfQ0r2C62c4NP5HocHF7TGQqhdhpqvkaOiomHCjXC3gas+4ZnQ20znOGHrUPN8v9d2wrLZEHwXYyeh1/rWfeO2t5M6aRvGdtQtrJalXhXOZH81j6zgEVQgPBRiLc6Bwy5i28IjQO47YZzZCO3L25I54e3bbjXuvka3xKqz09nC3bd3T+HGkLy2idshsaScIeF20oR9Xfvva4NhDXTHYcAJmZsBdxzYFwfYXscel13LHuJtwi904cW7vQE9bLw1N2BGlzIF9oczPt6U8vVeSrc6OU+UR9Yc3yAXbpxLfW/13VHqNIgrY3Lv9IrQwCfGzcsXxOnBF8SPyrF8RWOtbm8MBvgP2ew3ZjrHJ+L2gOPbXMp1MY0Ps6LPHu/kRtYkxjdfZNzIaZ46KTdy0IwTXBvLU9vO6/8/Wndeo/vWISVBv/kopVtzFV4dBnjqOBtYP/Tu1Y2yel4YuBkYcMzMdZl7xTdjRmsWV4QBdEK0ukZz6f2fU+NeOhyrw4WBhYGFgYWBhYGbjYGzs/Xd7Pmv2S0MLAwsDCwMLAxcDwaWxr0ePK9RFgYWBhYGFgbudgwsjXu3U8Ca/8LAwsDCwMLA9WDgjtS4rvhfSj75y+pns1S+/BP6Z79+Pk5IVt39q1WyMLAwsDCwMHDjMXDbaVzh0ATr8kH3BPXiqQqu5qbupM6RV5N+vErurSP9bOoIuygK9r6h7McCM+3LV8nCwMLAwsDCwN2AgdtO48ool+iDE+wLqidOYcWqntQ89yvpesR7Ol9z4dwEKzlf29VqYWBhYGFgYeCmYuDRCBhidQo3KvWN4Pgy4bSJbuw4ZafhyFWhcsRykIq4JOaRhvKzJuCnUJOyxNiAtskWbFvpUT5VqT8q95mAXkIK+xpYIiRB1+TK9XWvoGJiwcC12Lxi9yf+qjjjgqj5UltKOE28FahZV5WooNv/fsFMDWzGkrCo/YDV7CTd5AqWWivf6iXsonhyAhyKVqOr7hDdKags5HKbb07gXEPvd7dGhFXfCLZo2YO9ShYGFgYWBhYGbggGErwq0QqTWVAaAFHQBN3IK1qHlo2iUi6FX2K3Sksg2WryC4pO7kxU0EcBmBSKyfB93/d9idIpmYPviOktYaOF+7c3Tbeii4kGrKZsBIKePOEJT6CSpflNeju7WEG2KHXpSOVIEAyWGtO5NHOaJ7fJvP82KBdFLjq25nQ2nWrEhBdOPyAxujmK6UX1aihzAFDBlrjwJ01B8zbQtkT3ZkenQqBkAwnKr44s69AijxjjhqkhO1gL8HpeGFgYWBhYGLh5GHgkrnI0ro1pYsdTReIXSlVhwvJQSviacts1u7co46SmkubF/s9G7U1vepMNaKKVCgNJTdIilCINKkdEUiOICkn9CFmpW3pO/QQQtwXkIv7whz+sPFowEc+l8bE1jGZVAhKhDauO8kn/7VJJuiA5T8YSScR+2oyqH0oxlQ0n1wfTwc9KKzEZYjSF0riS9NmIS4KmQziRcjIa1+7Zlp3jOuNK5Md8S4bIFuz1vDCwMLAwsDBwkzDwmHNcmokmIP2lBrTnkwSKluLUlZI25bzKMtoKmp8NPjUmZ6q9IzWssqR1iVZKr0hF+exnP9t/CWKF3RcVksqx1aOA5V1P8yc96UnZ0Up3paEkDBu/gQznNp021mJuOVUVV1KOmrbOvP+qKWmdDKAZi6faIetnPvOZuk4sJ1RqKpduZZPdfT7EfApwYnfOia1/OJFVKgMJKM8EqXGf+cxn2spL6LuZ/vq5MLAwsDCwMHCTMPCYTAY2YTU3uz0Ht9GCMj9XuePVusQr2WqVy9PX/kxXOZSlUFuU0eL5KUdjldvjUkJtNc/c1/zVsjfoh1fW4SuHcFtn3n/VNIvNFLzKhzq0eAXPZEDYgjMRbF6r7XyI+RQgEBqrqzoaBw8neRtAHFbXh0Ob1V8/FwYWBhYGbhgGHqNxOYdrenaltCbnsBI7S2nM88pWNWe3frb3j2hEqQ2rudNfz05G6RVu5252HY7rOTadp/7TP/2TNNqyglOHcm63Q5zZf3VuFu3m2BS8Mguaz+Gxm1OZSJJ5ZcrV9iJTsJ9ux3VVKt1u4FEIpPaq2hwt6+3CwMLAwsDCwJ2Igcd4lT/5yU9mDjZ2nMlu+tii0bXlRubd9VGpu1H7qfKdJpVgXsmN9c53vtNpqJ0rp24KqR/74N/6rd/aN6+SKL/sd3l0Hdz+0A/9EHXrPNVJ5+Y73YP927Py2ToMyCgAAEZ2nzr8oz/6o5Q7k+Ye/9Zv/VY/gREYDg7RnREE8oqX+7qSG/KuM27ktU0rl8NlmO9itdvtKlwYWBhYGFgYuBMx8Jg97nvf+177UQ5YylIezaQG9HWs+8ku+zjZlVeSqnjwwQf3U3XW6zDSPed77rnHt0COXelpnwm5YPXc5z6X/vb8vve9jxfX2ee+eZXk8yGXhDV0CPprv/ZrdoruH4HNgXG2p1WZ4jzS/xve8Ab5292WchnbMe3HP/5xJ6zpxCGxC1M+RrIBNdNf+qVfygdIvL4f+MAH7Hp/5Vd+5cgQ3Rk5837/+99PlbI//vEf//HP//zPU42b/SUveYmr2oaWs9McXaJ2Cu7tb/zGb7zwhS+E7ZVTrIvSVbgwsDCwMHDnYuArXvva14Lefi45eCken5ny37p7nA9eqQfa15esNr6Ux7vf/e7yu3KE+rglk6dK6Qyqwie5PnqhXCktr3wmRBN/7nOfc6ipH7pczTTZfPXrCrF9J++0EV2N9oHQT/3UT3FH+2TI9tSFZ/mBbbJtWEFin0rHezvpv1aFEgXbl770JWBQ/A899BANl7d2z24wuUjFknjd6173Yz/2Yyn3ba6YVk6X7VMnQ3SnoAcXwXjCbZR1CHifLPs+Shp5w+WQ2N00WKKG2RCumLnXnYAeKqvD1LjS+B6FmfWwMLAwsDCwMHBtGHgkPy5NRsT7MocmuLaxzz2QHeoznvGMfNF07k5Ww4WBhYGFgYWBhYHrxMBjvMrXOfC5x+L7tcGtvfW5+1kNFwYWBhYGFgYWBq4TA4/cnOL//MVf/EWf217n2Ocbi9/7e77ne+o21vk6Wa0WBhYGFgYWBhYGrhkDj3iVr3nUNdzCwMLAwsDCwMLA3YaB2y530N22AGu+CwMLAwsDCwN3CQaWxr1LFnpNc2FgYWBhYGHgFmNgadxbvABr+IWBhYGFgYWBuwQDS+PeJQu9prkwsDCwMLAwcIsx8KjG9ZGrABG3GJzLG156XXEnLq+//+tpE2PyfJ0LNvKbv/mb3bwFe5jl8X3HO94hSeL5xrq6VkKUmEUbiPvqxppg7LIW5XzA+35d3O/ztV2tYOATn/iE4HR3BCqEprHWgtCBVky9OwLmM4EUa69izZ5Z+eIVxLL9i7/4i3P0c7mMdrm9nTydSj0oDU5lob8B+QiFdhKd8RIn8id/8idPf/rTL96hANEWyarvu9rDLJeDrMCiX+0r39oSsaDN4p//+Z+vAYwJxi5rUc43C6FDBSw7X9vVCgYk0Hz7299+R6BCFm1B4sSD+4Ef+AHBAO4ImM8EsjJ5n1nzUioIGvgjP/Ij5+jqchntcns7dTp3XgSMgzaFtARiJh+sfKTan/7pn3Y3pkfaHqyzgVkgMJmX+B7avH4Hu7pLql3DotwlmFzTnGNAXFjx5MW5Q3JPfOIT55XX24WBEQYOaVwZbeXeERhZiAxBgAXfT3c8EnLj2IFJhiMufzclXw0ssYFow2qmROBlpmJCR+37sYX6/d///Ze+9KWp/C//8i/yCAmz7Ccf46c//Wl5hDg2JV1gNyXBLXUlILNNjzyDMgT89V//taQICWIsPYOcvkJDC9r84z/+45XHVwhokTTk9hH0WCjp5DDoYurv/u7vJGOQ3U9iA8nt6XL+XjiBmcc97nHyN7B8NVTIMyxVw7ve9S4Bk6WCUC5os6RMhga/3H/pH9J0JYQ1gwtKk7hwA/MHP/hBBpT/5phMR/qX6eipT33qe97zHiGsbX8lmZij3QTZ5ubOFWZLIatEYODe0YNde+AB9v/8z//I9OCnQal5GP7qr/7qpz3tabInFU64AeVj4A6Rr6JFlKTCH/7wh1kklkD+BjknvOVE+vKXvwxy/mc/YUmE6rbV/tnQsmX87d/+rZAssllISFV19hjbL4qFhi7UYi9yEGl/8zd/Y1K8hcKqmGwWYkNLmwSOe7CVjGjMBh3tOa+xCk9+8pNl0UDVjifs7WBblPKv/dqvRa5f+ZVfafV5PjjqRS8HSaKaWxRkJrQ4kpNEC5Dd0VOIPB5++GHV5MPAHR5EBa/63f6Pz/QkJp0AaS4GVeF5z3teW627diqMmLS7cKj9CU94AumBntEAjrOg4qj/53/+J/KDEB3OsTTqVh4X9GaBMLIgPEm4orfRuk8wkFcyrTGpEXl+okCrJgy7/rttcVPGRU5oA5ehKNlWnJ2BDV+TAxOxqU8EQBAZFBsGFRkIceJQlEZwlTEx4kTSEqf/27/9G/QSPmDoQluFZKZsLkQNqdXWnAiZeYcjhI/o5Hy9XR3bnn1zSo45YvSv/uqvZLL79V//dToS+kxDTgLay9rLTECIWPL53KTlqbx4akobQImO+oG+l73sZdUhWr///vvzE1HSecaVU8gZJxmUtHrS6Aq2LA8PoQZfgkEmOx4qBD8VBU4jok66RFef/exn6RJzIU/RxHd8x3egudEU5OX1R+jTkcSltvrEA9gDAwtGTSxqKyvwfffdR8sqZKAoxxhKQEgHtzGr7733XsYKlHLs8LRk3IKZ2JUIAcyMCZr+m7/5m3NemP6/67u+y8kueHT+8z//8yOYq0/iG/JlXWTE6DbL5xn2qu1HPvIR2ZnyExpf9KIX0ZoJ74WrU25F2CVEGJXWalzpmGCVmgQtQwomc9zFMHr5y1+OtzGJnA1yN1W+wi7M//u//0tDyKpkCEBSPMCumnuMbRblHEhDz+hHP8wmbsOi4Q0tdaFtC0c0ZkZEmGhujFTCzsKFqm2VPNC4FIP0l0KaIwNy0KzJzec///lIIlSNxSABYuGQzqg16oKEPCDcKPBPhROgb37zm1Nz1P/BmXaZfcKkXfAUsuQw3X/8x3/AgLVmHKfmaO1GTDpaOBxkEW1GoZEoYPJKCgItLGPPzBHDTbA06RblO6XSnLkg5woV7nm07qPpt+VEBKOQSEkhqfULv/ALZZHve8BNsrnY2FCZf/Znf2bPzVyGTz38zM/8zAMPPKDJZEVQAlJE6oiNCH3lK1+ZIf71X/8VZhCMuaDAxPIbceJ///d/Wz6Ci8FhaSQ2nV/9IS3VQeSECevHdqjmNRIy+4m3JSOEj+jkfL1dLduWG7p7jku7QC5hlGoWRr4gxqmfltwypxwFKCQjqrf9w8Z7br+F20f9RDRXJzQi/eonQv/Gb/xGCjivPMCpVfcTKYCNrs2rOhO1tKwESEz5M5/5TD14BrwppNB+VDUpiWrE/QN+02fKnd6pX3UolRzxhqSEfc4reghIFLmfeWWgnErKZZQ6dKf9HKL0s2CmpJnqaajcaS5mqE6y9/Xz1a9+tR1SgdF90CfXQtBCzPFSEMpq4l7KpppgfjswP5nenNhYJa8Yv7b+tqrkFEVYx89JOZVzXFttEKY+mCV9Yk75ScoTfFg6rwxHXtSI+wdGiV217XJe+am5nxOMtYtyKtLQEkVoghmO2U5Lscn83NDSHtSUFEmPaIwEf/zjH2/RUx+GkavnzCh5pfxkwcCtzX2qoWcTR0WqsSxDG16xkMIyI3hCY7Z0qWAvYkY2JaP+VTs40y6zj5h0BB75wOyr2xVJXplz3NHadZl0snCoHeOgczDAJ2wzWwOPV5FjIyzNu7WZiwxhHLDdmSC6Ha37CANtOeXHb0F/p5A5xQibNAw3MR3UScpt1ljqe0XUeB6tCOcTiiJFU59aldiNME+fJffYxLat6ow4ESkSViVj4dMmagIzCuemokTUkRydJMk57kjIjLo6k9G6dHLu3q6Ubc/Y49IH3ALSu8ZYIBAtM7z7iVflmLPNYqQzZLhE4pGbmxX7tyf1wyxwufFbvuVbyHr2XdyVZSeS6fuzW+cu0tpX8juWAR2AcBmqNqn2ncjLBiJO7z143RL6Rn10TGowpfVWMKgfD7MHVoUNB6nnObkLsVk6BFIeqEAGQaXOTSGh8A3f8A12RaSGP5TKCVw3pat/uo3V2YWwLSQXghZcx7cDIZMmhiYWbUkzNIMazO40MmwJmtqmM/nTCWVsF07xpz6YzZoFlrfc/iaSZ6JwDi3ATC3+c01sVvCMcdN8jjF1TkWa1bfuGgZy3k7ejlqILi2N8DaiMSD94A/+YKU6LqSlH6/yEG9HuTosKw2Hy6wazsJxP/uzP2sIpFvnLCNI8GAhin1D96CcUf/p5MhMT2LSEWyMNo4fMr3GlTozz6O16zLpfOHs5NC5btGh/3WQgQGL+7pYOrPbyBB+KQwSSh6t+wgDbTlTjEuZVaSQjHX25HRp3tDhVybF52HX2J1at4dID5uNvLU9sBCEuZ98dSzylONQetHziBMJK0aqRXnjG99IRLCWioa745oUIsz5CCFWjrGRkOl20haOEN6lk3P3dqVse8Y5bgiLPC3oLXYKObsIU95Iag8FkwUcF+dQut1+JsiSFpelT43xtfpTk1xO/TpcaZuDdgO/twqRux0bfUmc8XjYp2Y/Nxm6XvHekGv0EAzw06LCgkGdOuf2HLL2sMFMCxKJbBvUjosDqXCmQBVysZa8wKspR8rtuCPImSn1ituKjhzVVG5oyGmHZvkS3FixdXlVn+prRcXG35CeS5IWqMrPhNa41VB9Ao5jo5T0HGOB/CSkgdwQDP/ChtWstevS0ghvIxrjlmdzVKtSvSmpITbNvS0uoyyxlZNm1i2ZxfoujdUFBsbK6OSr4C233JP+dXJkpqcyaRe2SPMRFXXXrsuk84VruQ8YXQbsYsnWbUIPXUoerXt3+vtC2xUeXbzPnyGJuI3Evk5bcmRq3R7sy2no7gVMFFJNcGjOMkaciD2dczsloWvtj1kAtlsTsPdCg1vYcCMh0wW+LRwhvEsnk3s56XPU25Wy7RkaN5eM7OGyRQOo51wk8cBp8MIXvhBLE1t8lRLOT27xWc7KaEtPlP7o9hOzSP3YleFVo3NiyOtOU2azRfNx78zXyRQMUXXy7NifZ4ZN5ziTs4hRYyfhKpMToHlveWvTT3qagm2fEnZc/IRH2qaO/XFujfn5xS9+0WlT2xZlM2BRdgph2FgbeX18rCjF1OekjVZrl8MrGA7OvbXLrH2wjTWXACuYUQzmWpG6tp3eHAuRHRnCKV02GcchTE0rxbVbrdA9qOrW0hxjWp2KNPXN7vd+7/eyiHow09Y6OQ7/iMacKfDPVz/tc9u55taocOsVKuWOUwLtCN6WwsKxNeP83ztyqjeylbcwYtQpqftTpknrdPs/PsGTmHTUbWQIas9GTbWWiroE32VSpxgXXLgulrDwqd2O1n2EgU25k2zkjQL5lq3swVaTaiOxiaO5czCUDbrmqIJsyUXUbm8jTtSJIVwmIMAdnbpw4NJfruN0+7HilrtetcvdFTLdTtrCEcK7dHKmMB/1dqVse4ZXmWbiUHrLW97Cu2jm+N8hYo6jkMsb3vAGhaw/dzQ8zOWsrmobxCFs+YPKbj8qe+syjv8kSO4leSZ37G65atPWDtVDKfIUbv4zf9wIzSaSHW2vwGVnw+TOEU2Jx3TImcn0nsNP96PUdA4MbB9JTYxyAM5h2APGCZ/tqaMXPWwu8oGZEeNuRRpyJ7Z3C/e9zUtY0LmiQhd6Nmv1YdgFZqLHs4Oc8qYaGi/ljolXNlUcCV/60pcAAD9upmSseoCEyMr41XVoO+6AeQ5S962hbekY0XmLuhjmdtj52cVYuyinIg0VsYLps/TvzicLzP2ULmzzwhGN2cTY/efCoGNCtNftBwLhlsGXtwxKLm5cRkJBvp/KaSnuX/IuUrXbj0JE9ba3vS1vsS0D4ru/+7tH/Y862ZefxKT75ikxBd4/SMj5CCGAIPNqtHZdJr34wnWxdI5uR+tuUsi4NfS7OLGUXGVYzBmZix3dOicVjsSmL0RIvCIMrmxuQhv9UecjTmQckHsomcfOA36Zy0yixjl6hA+ZaXtTy90VMiN4qnyE8C6dnLu3q2VbxJe/vXXPR++VW7IW0m0jVytJKIUUj3Indmxt2stVWNuvHLlXb/sHXxdYHmdUjHf/HVDlGsioH4I7ApfXy0lkbk6RQaxCZw/OPOwRDUrf56YSy4Cjo8atW0hUu1cIjllgr8bL5zxJNf4NJpgLEU41/Ec9DKU92FXCs2cJjU5BOscl6x28ISkGEQzkNpa9sjp1s8C2jxmYHhI3yi4qu2HgwQCvAH3P3kydglkd4tWUwcxpA72MD3U2/bsBwVM0gdkrfUKXmVo+/egwF0Bseqw43BLH1heouTmlCTe7lSJkvQIeiZAhHF37aTvuNnK+28nNKfi0kSJP2Q0GMq/cFbIcMF/guf8cipoAzGViRhwY+JkPDc5VnmCsXZRzII3Qt/9zLmDu9oXEH2VgxA0tjQCuCx0jGtPQJTLIhB/bCwRDyNaMrGb17EQDbnET4w9pFSW7EgIhzB1uM9aCAAAgAElEQVR/QJ3Hiwh5IBjEY4EYQzXEqP+DMz2JSUfoUu5SGA7Ca5YYTmwyMqPR2o2YdLRwxUHGcoUeM5IYgYesyHXFCZaOdKs34su9Yg+Tdce8LidOUJFXhAntRZGcWXPDTWQjfkwrHIrv8twVm16ZGnENPwhMW3cXFG76dOeZgZt+upzoXiSZ4MiDxEOrZK8vjiaQc9uqRrwQPqQNpq4IGCMh0+3tTEYb0cn5etPq6tj20fy4cEcWt3aBbV989FQsfcnFx+LGolWHseNLG2S3KR8ZF8wcXxlFgrgARQG4g6Bytx+7ap1DJQNNNcI9W1vDAcbaWwa6xG6ALHMC54FBULcAHOwjeupQ/w4nbDV4LDE5RRJPtXLbMu5TPBmHZK44jYBXbo+uMpWjZ/wMJIQOKsCwSzygMIe7iD4bERVMNp+s2alrDntKzIuxD+EQgiIJoAzawmzV3XegzNA3mLOfziWm6p+JQJH7OYEZVP74/40OXViuKnNW29ralRJ/UAF4Nx7zVrcukmBRbesqk1e23bahps9WUMEscK9yEpMg83EL/OPJTN/aAZg+S5+xNianPqkGk0C1pm5v5iTG8o0wpkm7KOdAGpjNyPQZCuXn39DSCL3sdDRMbajQpTFooSZ5CKAC8m0RHL4w+TMjR3ftURMbyE0Tr+C8Pf1109hAyu1WQ88jeBAzpOFTThfsY1nbk4hu/wdnasSTmHQEoXKeSR4ULMPIswskiONt7q6d+iMm7S5cy0HoGd7wV/g6F7atwhxLZ3YLJLwP7PBFd93V4X6D8PKgjBBimWwGOA7jJhxVU77hJsLBMWo+3jUQSRIjeCQ29UB2mbvLxgyy4HzTJ/VP1CPLgLHnROVZJrxMIhWHTsCGH5KBcxT1Mj1xBHsl9UdCZt/bmYymyYhOztHb1bJt1wpYhTcGA63Vf2MmdadMhNilI+MTIgoThOHqgN+4QK5uoDu65+vBEu9XvjSb48pZie2EM6l5tfX2OjFwpWx7xs2pvYGwShYGFgYOYoBrwR0CG1bOA04dNn4bBOZgJ6vanYgBbufWUbGfgh2e/Tc/E4f//DR033aVXCkGrpRtH/UqX+kcVue3CgP80g5E40S6VTDczeOyzR0f8MbnEtOVylZ+VMvttOUcH+ndPWt0m2DJvlYgCOdZTjfvHuTfKTO9OrZdGvdOoYEF58LAwsDCwMLAnY2BM74OurMnt6BfGFgYWBhYGFgYuG0wsDTubbMUC5CFgYWBhYGFgRuNgaVxb/TyrsktDCwMLAwsDNw2GFga97ZZigXIwsDCwMLAwsCNxsCVa1x5H4UougYcCt8hDoYPw/dj5VrgvvyGlYjMNYojeMNmem3T8VXllaL0TW9606WE97s6hAjCNWKrqxv0mnsW/C6hT6953NFwgl/CuSgTowqnlpOKOtwEOEonwsN1ZeapQ1xifaHrKiDlvluxjMxlX36nlFy5xhUiStjea0CH4CaiSlXo43bE17/+9UTbNcBwa4cQzMXHBrcWhhs2uvRkV/phFXlXsYVvT9T50EjQt0kM3tsT7JOgwjUVCOmkhldU2Q6BKBOW67L6JxV1SELuOxSvUQi/ffktLPEpXaWu2YORuezL75SSrcYVGSeBpw9OwCqKNbi3nnzPlGh2+36gbIRQQQGTMmHfal/iu7quftVD4vpWkz14aBrYXRIUjtHffjgwd4cDRsFs1rrdZzWYDLcfaFSCA4Wg2/OhWSQBn9wym1RuYN6jegTkaNxu+QgbUAchmyYjIrkIWkw5uRM2Y42ool2m7owU7imTrVZZRVUYTcQr61LpsPwcUTKmSBz/EQwj+Ef1R+UjALr1J8AL2ClEQxubU89dRph0UoOqsyfILkiTwlPJBsJxZXIhb7o1F+wgsrpI6e2rU1fhzGXdjDtiH1S9F1banjrlEfziF7ZUquf9cJOxLiIbRwu6Z7pRzVH5iKhMtvLltG1LYFah5dgL7dFwo25HYCh/jEJJ9Cw6gxkrW4tYyqLpChUrNGteCSOcsN35KYSyIFh5fuihhwQFxZOaiIIN6JRLPiV6NetYPz/90z8tuGvKmfNivarvTxQegXlTrvA1r3kNU9okdSUXHqTkVfc/2MQi1r9+BMcXtFM1iNBcCirDKRdYXzBe5fIECGUsmqgJYgzzB5Jot+qISvq+970vQ4iAyr8nZ5+a/gQrFg43r/7yL/+SCRywxRMWYFY5ca/DBLyGBD8NJBqwoM2ZQhIGjIbbz8uU4YQPs14R98Dw0wQFodUzGPwHpPVSTkx4FvHAxGUwhUYlaW5pRI9T3yurIHRwyrtA7oERcFWYcvlP6hU8i6rvZxcbysXIFcXQosCeeMtC6hQkeyKBFpALB+HPenEi7WHollgmwdBhA5K1ldDCuqdmlyr2y9TtdkSZIlq3KN1PRGBqpCjtT/KwiiIkfq8QsqFkq5DhLI2IyoL6qoZILFbKBbsX5HYCfxdaygPtcQbmrZi6foqC6+dJrHQE+EgG8Xh1DsNoCdrRFbFgL6LwSCeq8ZGKoY82UAhuCm92Z6cwyR/rLaYWBsjPEdmMZJT60smJAAxg44o8HFlhOlbtBS94gWUSZB9RWegM16WiEZyjZR3Br58R+1g+AY0BKV4NYQiwpAk5LkAm8Cf91Cte8QqS0BBILmsngYcVUQgzQe8VycYuAkdMV3kLuq0kW4OcvBoRFcPF3j0KQpYIWUCiwjYCUyc4F1OriTGlWiEuuoMqROcitpKBUp4QwqLnEpJzMBDVz/3cz5FvWCapaNR/BPRoeA40yT3wGMj0m1XZzJ8mS84fVKsjylVb8dCVZ1ZIxyqSKUQhQU9wl8YlieSmEHebXSO/kig8wugDAvSijUvJx9agAiEUiYxmrv8kV2HHmbOw74wAMEfjmoKw157lpkC7bFv2xUte8hIpBLKplS6DE+kf/uEfgJ3cO0l/oRxbamV/rITlAVlg0MoU7rvvPjDTtZQKNlOe4UQzl4LKH/bQXFR9r4RTx+TJIjkarjs7lQmjvKKAZQUIqo1I9RrdNKWTM5CY+KqBEKoxieA1opBXCGWaEg1ZGvXBj+Aws/ojILvA6A0J5hU869C8RtgwEHOhFvdHf/RHSTRtR0QiY4zDGDMyTSuuc/B3wdgUQhHysBwMmiTuJVLVmVNFLdNoiBFlIpuQwWgigvRaDhYA8QEG6+4P5lHRS1/6UmwcwwsyrVQStqBtBCyXC2BK447g7wIcL4IDrby1OnBidfw8iZWOAB/JAGYrRTa99a1v9cAYlaDiWc96lhGPdIJZqGrWKiyRhuhKAgx+zu7sWrSkQrICex6RzUhGOUtiVUsuAmYmIDKwMdCP6VgOiodDlQqsFDonrUKwPV/WDfwj9oEfsHFQ2YBCi6QapXFPEiAj+KNx2SU4ztrJNWJ7AzbiF+rYgtnrj8a6oGwcrfKI6Q5q3AlROZWnFMRVNcF7770XMhkxwNgITDmXGO60AEWLDGS1YtuNoE04bjikpGydI1TR1QQM0oNeY3bL8hQ5oPPHaNzavPLDoIA3v/nNaoyomcUqu1nBJyQ34vbzZS97WeR7XjH3onGpMTN3pptysNqEZURigklSXVHelcBuP3/qk3CvcmjVLc6JCqzUciQFDDJh1IRoQ3igGAjB2tcqYTtTDx5QlSw9SdbmJyYnRj1IBk5YgDYjZjj7mAxXW1K2BTDkDWSTqmmaNiKT4dLb5n/uSkR02gSQy9lny5Vm3FQ2L1ZFNknmZXNTMJfGJYIj0NMETqgBz10gu5AolNgSQuK3sJUnBRSOsIFeTb+AtJN4xzveAUUjIpFA1+pwcgSxMvUWRY7gSbllMv1ApUTUYltGP+dU0XoO9v1PKLM07mgi4UP0kG5ZtVgxzwQ9nMQQtjQhs7ziTaF+PJfGHcG/h1bJXOMeZ6UjwJfGJZUQJDMi0lkiGvoDMEc6cX2SZopzSBN94vH777+/O7sWLalQGndENiMZZWPRbqapNDtafUYDMbvTf2nck1ZB2zOXdQP/iH2Y7PCTszBNmHfRuKcKkBH8mW+5nT7/+c/rX0JoY1W6xslYF5SNQcLm/4TpDmrcEVEhS0awAOYZEd1SQKVxW4HprMR2pQCjwlA45uoCvKHzyGoENgIjuL3nnns2vT0mk0FF+ASxPQo5aGFGf9bPmlV+N1tA6gE3asW+qFax1/xU338UX68YC8LA5mdl2fPT3nRy1pXIsdWJxLSQqDBJ6yrhmv23KVT/qc//Rg3w1tJYKQGzHLF5JgVMPM9gcGjqGdiWsJ2RQt0G4GTiU2J0xhRPqYS4TEjXhp3/0buT4WoK9WDbx+5zbAZpH/rQh6yWXYW39o4KH3zwQSoNeu3aKaq0Ei29YK5+mAgWgjSnCYBK/yVhWRfIPRgpoSFsCBAuMKSwRprKR9iwlKxFa5G2lKJ9TOp3iURvxApfltMHO3iok3psBMmmnD1ncVNoXdibvCZzqqhl6g4xp8w0GVF73lZCQw66umkVnBNkqdOGzwU2y7cFZgQ/Td+FeVJ4nJWOA6+mqTHdLBxbipjmkAxJHOnE7JjXlYHb8qHwDW9OZlSvTiUbpxvcP1jSWFYQU7T43FPFOVZhvqybSY3YB18zQCu1YsnMubzaY2wEP8a003ANME2cblAtKldiPuXzsS4iG/dwKjnCdN2GVTgiKuXEY908QLfmW61agamm/WG9Qi1sQSbyRtpXBX7f6oqshlLSmPCZ0Paexh6jcUuOG4OqiMjg8aOla9TYvH4S9KzpzbcNYMJO7Wm85mmrfpi2SpS3TFhDeGhHbMs92661/atpW5lTNG/bKSinONvmUU4c2pWS1luqInVKjudnYNAkx6ttP4XHGpeJSoYyBuX+xOQcbjw8WF2r0XBth/X83Oc+Vyf2lHwdlK5yYBAT1tXxNiPdp1Y58E6TAqDtzY7fBt323ZUQTAUSxq8KXSCdBXQhgWfN7drtdJ3R6k21ETbsnhlJkF/qn6bJgV+XSFCCTMl286xvHnJ2BjMfzF1INoUbKvUWoc6pooul6nZOmak2ova8hdjqrSXvFvIuc1WFOfwbDGSI4pFiyVTrkvGmh/bnEeBTHwUiCdRl1ZitrHteiryad7KZnSbES6zJLmAjmaNJl2xG9TnYfvVXf1VydUe23OBInfVcI+6p4qRVSD/dZR3BM2IfpvlIZhrluACZwN/CiTdx67XJxu4SH2G6bsMqHBGVDZg67eW+9uJSu+ibHuK23FNFjdjiEAIt2V7yqNzS9r63x9xVLv6xb+ATy3e0Os1VWH25eZSdn2eGQI5Rk/OcS4SGYDqxFPRTUqD6VJ8KVCH17W/4LR1azNG6f6sfXNf2z29QFo1k0WnCg0/TxFosNWAvYj1syAKD/3JYzj9HM1xOVtKEKcrG39/V5HOgX/WPt2NWE0znGM4JBOQ7R2cH8E+aC/eF+b7//e+niXkIIJD2nVgkmkhwTYdZDiKSDR6fp/IukHsMV8lznvMcx8Z6My69q3yEDUaJFXGcn7ZGBD89PSIScpDDn0PCTQRLxvqWjH0CSfuKnkZIKeEzdCpvozyninnPRyhzNJF5z+3bYgSFwN58pH4S/DGFiyvjJDwOyflqfvGLX0ScpAznB2p0TcF1ge5d0H3/ZselXD4zjjuXLdr7z5smrczxCjmlwohsRjIKnG5mvOUtb+FzYiW7pDJnnJNWISB1l3UE/4h9yEzOtmz7dFt9nipAJvBjGfIwMOcMKO7Ja5CNe3pQcoTpug2rcERUNvS8BfXJEw/fiEH04D5UdehiBO1Q/qr96BQNj13KyWRKFxePwNg3f6QECfqLAnNd6CMf+QjfNFlv902veOWGm/KPfexj5uDc2LFZrvO4JWS1nLqTs04NSWQbKfWRDlMUiZOkPOPq180pglu3TiUJTbtA06tTrtxPCTBuD7W3o1NY/2l9Y7G1MTzdpkO3mbyNhWLTzPQ2BXdr9WNeXukNDPagzlb5k93a4B9jUjjeY5vnyLPOcjIQp6gePJMp3M52mciUoKTA6Am4znB0WOpbVGzGpkbWrjvy7GF1r0bDbSbV/qTnQMUnnEL2AUOJOmcIO/zgGabMHGh5W+fTqVnnuIxi80VMmhBS8GylGLYjIEfAsOmgFzDuB6bOCBvecjPiYQgBJHMqx5kjImFscYdwVhOCH/jAB2x5LaVOrAUXOtyOQLJMCNdeH3UR+pYy94HnVFHLNOp2RJl1jjuaSE53CmDbdCuVUSJAGUx+Whr7HndiaRqrZr7oRHmd447gHwGM1R138cy7bwjtOq+bU8dZ6QjwkQw2tR5Q9ZOe9CSo8Ic76AngHelENUctZBPWQB7OEViuOQbuTpCjyCq7zIHjmLAIGHWpOSKbkYziDUKKLgyifP1gnFz+z7lmhINui/dPXYXRso7gH7EPRnviE5/IHYVntc3pTO4qnyRARvDnphiCoSc8u3NbVGod0ZK7fvAwGuuCsrG7xApHTHfwHHdCVL59IF7sWwgHWsC654uDjcCEbcLNKypMTcIEh46gDZ1bI4qZKuRVdm6YyiParjPyts/H3JxytQ+B2jRwIbpVmHo2i8973vMQAcZmM1KxHJ55BQiEQiExV31ZRKannDELm7zbQLHTwqUpZ9tqzthkRyiMjPDK8Ux9R+GnTz44M1soN89sXr5KB2a86jZJnAYqMOJcPmQZ+ELDK0I5XwJ4xb52UcV+F2B+2qTSmsDGMLk+qhAztxfV7MCiMr0iNPUGLZDgxNEuv4aryxdKSBPYMGtQ0Yh1Fag73GZG7U/mgomQEVWICS0epLEt2BMMBZd1vYW09uS/0AjPlgxfkXEKiX4dxsAfATmCxxBQV7JphA3lpAmTy6Cw5P6wHVj6HBEJrsBaVsHUnFKnMtJi3jGMRvBgfoLeosOGRaStq+aEKtpl6vY8oszSuFp1J6JnuM11OXXYOvXlj4Mxr0KEKM2K2COiTLeraJ2A4eZgbs/62YW/C61C5IHFIIEzg+mJ0aLaT2KlI8BjarPItw2OG21wLbGLApjU5SmQHOlENWeoYEtbNy4hZzQ15TSQS0akm4FISaaVdU/9LtmMZJSDOjYQzqV63QN1KSHEHBYredXy/kmrMFrWCfxdYWJq2IdNYL5mze6E87pkepIA6cJvvuQtUUw0MZsYKEWxNhKQg4qC3u5YF5eN3bUeMR0ZS9F0myjEO5CTtxOiokFYaTZ+tKMzxGzhNgJTJwx9zkv2H7OjvVG7Hz0aF2AcctQtEVQ4HIFBoUDdpqvHaFzmz36kVbIwcG0YIATzaeBoxI25Pap2WeUO/3LL8YIdlvvhgv2s5rcVBtay3lbLUcCIBVTfntmPOa+db+GOzGLjyznSpFtnG3Nq6H1eLxYGrh4D3KTtDdirH3A4Ap8n/4dNkm3ZsNJ6sTCwMHD7YcA+2Kml3a3bIba5TjYP3sq8hqk8clfZOR+YfFB7DUOuIRYGRhhwqjR6lXIuHfcX5nUu5a0jD0cD/MCXEuPeZqj9ROFSIFyd3HIMrGW95UvQBcBtJHfpHfHwmXEXO73OBeZu5YOFLidRke2d/IMNN9Ue8+XP+bpYrRYGFgYWBhYGFgYWBs7EwPIqn4miVWFhYGFgYWBhYGHgEjCwNO4lIHF1sTCwMLAwsDCwMHAmBpbGPRNFq8LCwMLAwsDCwMLAJWBgadxLQOLqYmFgYWBhYGFgYeBMDDyicd3/9Km+m12+avc5+ZnNzqygtwrFd2bleQXfF4u7NK9zM97CGLzdkrmIohUCuLrRN0MICyoox2NyNR8Y+9IJdTRmC60vhSqcoTUSGVTcgIozOurhdiiHZB9cVWi64yBdIv92BxWUxhD+RNqBXtjuVru6QoRH1h3vn1RsYzIfb3hTa16DxLgG1F01nXemkK90RZP3Tlwx0QErCE73A94jhRUZ7kjlM+vI1SUJ+ZnVLlJB6J9E1blIJxdve5GPrAVwsXAVRudUYJJjNYHlDrYVxUa0wvpLttRJ280QwiSJHdNGs5q0rVeXS6iTEVtoK9CBOGLCeEkVgE0moSgn3R555eN9qSyO1JzX8TGxLxGFu6t06/P69fZy+bc7qOihrTBCReLcJZpbt/6lFwoeVNFnj3Re8TiPVL4b6pxDYtxuaEmk3muO+/TI97jJN+JjIw+b3CMdLX2zimybZBeJtru1MxONTMJXuQrOAYZdlxDKAkCeo+35mgiuK9cVrZnmIqUd70e8QGEgRa88ldhuCaH6sC9JroTQY5QwzjZ5CI5P/EhN0citprg5RypP6hAlaMlOjtKdVLtVr6TZgFijE3wC24omJqS2cNmVy+tWAbbGXRi4Ogw8onEFihQEQ1RPDzE/xf9kAzK3OXVxAmWMMURwlahAoAxWfxKYBDJRXoUsFr90I4kIVgkDdCsWbs1h0k/VYQ2JG8LmLYFer2TOAYbg/mKBbhJOVR0eD/k3yBphByqDL0cWlyDRySuoppC5j3/84z2Qof6bqcr2BP/+7/9uInxxwvaC3KvuiDx16gsPyzUqkrCtT43enaDR7ZB8Ri2xHVTb4bHrv/CFL4hoT9EmdaXRZUqobB7CC5O83F8Cn1YSX02+5mu+Bn6kPLIQEGsh5JwQhRUAsG0F87k3f50wDhZugihQQSacbPRlF4E1QQ+WRlu5Ggu97dv2uTuEEUUxrVyNXYzpxGkC9cYkMk0Bq5XsCXUzbhfy0dLvYe5Ca3VEOccIyb5iReA2eXD3tMHZcBESglgsZkERGKLKF/doTHBsKZLwXZGHnahP+7k6pRbe5+EBA5JA4XhQKF0k0cVMMHAp/LtfrD162xKwWc2UmKmAmiKfi0NbQcf2uN13KIIxQQEJ6DAJANTBHaI9S13F1BBlHb9UQ2hkNrXcmlfc7ygN2kk/4b73A21KRsxl+UgeI2I6WIV5MmovSx1SsC14qlvW3gwxwmdXLGzaYhlSjsAhZ5ATaYl44BPpFs4lg0ISlU05skg/5F4KoZE8QV26IriCli6DaDVi4QJsNLrpkKJkIPzDHjIgfvf478q9VDMLyOQfxqettD9T3tYoeE3/yK+Qs1+yCfvoB+VoAoCyF80XTja+nP8bMTt93shk/mFfx7VIIXEbJhMnGpLEQ8YePUq+QTHoCNFoS4dJKkAeKbcqFtgw8Up51sQ0yAip2jPQqJ/W4YAQSRZUixzJWWtQXmXbOIpKOUgMR1u0DfNsqgYlzYGE3DmlsaVXjGglScmgc7NI/pawH+UqGYNtAdKM3ZDcQd0RM0FJfhglaAWWBHafT9DoEKIy2Azt/1vf+lZAggd+EpG/9SoHUcjdQmAYyY7SP8yIgmTuhCxU6BAX2SJIGW01JcqQq0DN5PujvzEPIKn5PaLEGtUDSMxdOhfNs/QjBLY9QBRxBv9ChINNk33/SkZDcA7TJXOMidBm+ay1KdurJWPVnlDbcUeQj5Z+A/MI2niVJVBKxEe0h1S07dLGBUlIsHVcA7eWko43XylKwl8oEy8k5Y6ZAgYkrGFv98cuAmahLusbkhhh5rL4t7tYXZJIIQFS2bGqGgYpB3gXt5sOOTbNzjTlNMMjdswqsLMlA2BBKmQVQU4dGNHlkR5MVQOVV1naEs1xPWJDlvhrD3nrVR4xl1BHBC6GsjRG9yzPjK42slQqaEssoQvdxlzml9oPN8LnSCy0PeBiEycQ6EjaixJKbPCNY5xgTEYmugSN4TXiET5Js7e//e06JMnJBHX8Z7HR4iMGOSLVR6MTerBB1wA4ee+7GQW6cg+Qjk5M0IKKxw7hUs4khcwReZsJ6hm1aG4tKg3JZslG7FNoZ2ejtDZvAVPv/vvv36/sIxp3/yJbQPNJhhBqSfKTVFNibsGLdEO0V9JcsBOBjoCikGxPKQNNJGWzZkwqz6N+WgAk7YF6pplCtipHYgQKSvKMXlNZ/hwSp1L0VA/SmzAwk38GYJSTpBneWgNgpLm3KJ5fS3nwbuE9E5fq4EySiME1GjETlHQiCQ25gpFp0qGMJpjRow6zq7YkaY70N4nPgAQDaDS2AllPUlTeNwhnv4OWtU4VQW9BnmNRCTHAI1OKcuwkJ4mEPOyYQpEH6EUiEqp4JtYTyzAad4TAtrnULmQTHDp+YzTon1nWVpgP0WrcEcbokqRI0pWUJqoFG5tR2p8jyEdL37adICQaV+UkLo3OG9HGxUmozSnmhgHFEP5CLWTic5/7XJAIYsecCvw2IpSx3dsGM4whAjSFI8xcFv+eulhdjZvkOQAe4XYzQWYiJgqn2+7jXOJC3iqkgoNUxg6wJFWRZ5membbJ2kRSIdpoXGxOqlT2qlwUqDj4NWIpjBFz6QdDRWRjOiY4eErj2tBHlqrGnCpZTEmrRmNtptbF50QstM1N+alPfWpEgbRL+p9rXKmKiJeasusgclLpMIKRIiA6yPwJg4xYuIVqonFBWLLO3gxtbLDhZ/Zge7lnsnAVQYoFbGawhvpH5G1NMCQEDygkSds26m/EPi2cxDgzKyWQSQJb8f1EZhpXDOhqwMVBjfsJOHKHGotpRlXQT1WNCws1RyEVESMyOI1EHvXTQsZCbG+OPOUpT4nGZcPa0pF3+Uv+UaeJbVtINFVbxqpmJ5pcrdaAGqvKckJJ3eXnXuMmqZ9XoxEzwUopxQIywZjSowka3bxqdCYLYZqf73znO23lPdcel7LUIWTWLOg2ibXVQXmWtvpRHq0ZQR82a9deTVslvcljWK08sELAUAmncp2VpJsgsG0uyr+cX5FrjB75g/nY2wqTIbxqNe4IY9bdellKjqxNz92fE8hHS38EIep0Ne6INrIQFyGhVuPadbF0iwwY0cQ6kLIto1P3irYmVRp3gpnL4t9TF6urcV0LcHoC/hFu2/XiY2PzVbZNr1geTHx/MYnwAukpgeY999zjLUvFHrp6gMBoXGYcFzEd6RXZFRW4T+9YCmPEXHYgxH1dXczFotK4JUsJDXxnv1iQ2JG7R9cxRMUAACAASURBVNJOzXMXnxOxUM1zusTLWiU8WHONC1HxUUGFbYOEqva7mkcwvutd70pXI4nh7YiF20nNNW4SpasP//wNbcM8d+VekCzNbdVnLtARfh6Rt5lgJZ/VyhYuKXJp3FqyCfu0cAKD6snGEsJHOdAeOcclkfd/OcVMOQPnwQcfZIsxdoAVUesVYm2r5SgF2XmFoNM2J74pHPXTjs4jz8iqEooKHfiJmHKaVa+wHKS3h8RZOZvXtkMA52cdHPppd4jC2mr1XDMajcgdpHL1lrtO6W0yQc6TFvI6XmJYWbkWkrDNJvY9++7gLPBPe37AvrYWFq4dApJtjOowvjLkzBFYPbCB/OWn6dudOFwg6ZhiVWc0RAuG5xHGkpWTYZSdCjcp0blp2/6cQ37m0h+EtkYc0Qaxq85FSKidlFHYlKR5W8iEZebCm5ztdksODmTi5A/IGdAeRRPMXBb/nrpYeyCVOHvOfYIRbltOZ4dRk63wyWG2DRlTw05UJ5yNRETK91IlMEAaQ9M+2KUHmwrbNeUbfmyhHTGXcZkLOXdXnwSrE3c/C07NuXztKatPZ4cb3vSqi8+5WEiHpumhPQpltrbw759t8RkuTFtmIvi1badfkE8YZMTC+7FGJa0sHYnlPQtnq9PKOshkGWSUg/K2TQ4GV9E1eqiJT9innQ7/E07keGcv2m3akHQnO4uAUdRD5DEVkeNHP/pRV0xZjrlzpEc0nS1UereP9tcdSeGkn7aJMwNGU5XUp5Bcl8Cguds/+/22rTp+Mi3bOi6epM5IJG0AronPR9z3Np/gvv4IUcbFkwzhdha2wgdnQWy1CNSJVaslSycTJE8QWADbjn/2s5+tnxEum1vWoyHaWU8wxkqwLzeRT37yk6SAk55cXJogbQL5mcg/Am079Jw2zk1Cm9kZxanhhuaJHv07SybpeFOZPvQux/s5MHNZ/HvqYu1BZcS7bcAv59Uct2mbRGet8GGaUMM/+ZM/Sd069ae/2RN19XK0vrw7LDm63OgceEhuD1tbMmIu6tZyVE3b5VZzFD1smquv5oY3FXbxORcLGTpXLFtI6hkLtCBxBqQJwYJ+XvSiF+EvdoM9bjvfgnyEwAkLt/2MRk+dM9lTtX2d2GetrGuRua/fwlPP9Fo9/9d//Vf6VNKysJ8jnVJtDeco4bd/+7fdbkF4TpS7w800bjVwgsgKo7pt7WX3pXHZOwxMFeyd0XfZRDaXpRj24036aSu71BAXqEJuT2efeevc1DFMPAlKcIhdmjtmbVvCiJnDxEghwFyAmqdcDWa7htWREdvRD05wj5lNCZ8GeLg7Uo6kGFysp0nDdhaWyV1rO87UZyfpzdl229zhB1KLn0q5o+K8PYhAvib7qkLa7/zO75BZG8ExGqIFY4Ixt4TcyeJEJRCdlFvK2O8jJByEfNT8CLRt24O0cbBa27OlLMRqbvlo3FTgZ3Jw5a3TShfF1XSQaafLk0bBjKY2wcxl8e+pi7UBlVVNU1K65L5XR5BGAXACscbSVT6pIB9crLVhdZBEOOiQWy6SilQhMYopiuA1YS8yX3h3uXwkVdVhmnTxOWKu7//+76ewcwysoSuo3eaOCWi1jKICaea4zfZoU7mLzyNiwTYLWmyR06EvGnL65ifRHZ+nZ9Z8LiV4hjFkwOtus0htgK07/RGDTFi4ndRo9C6WDhZyJDiPo+RSH5tQHHtkznujv1LBRJhf+69jJuyz6dmJg92dK7EOBdBnd9yZV7ka2HfbZLjQ5EiJFek03k/WhAq+GkSpqI1Y9CmLo8ea/368ST9tZZ50dOlaBGXJ3UHp5q0LdeiY5oisd5tRwsK6z109uGj3wz/8w8iaMKJ4EJYT0D0wVWJnxhfKnkD9Gw/MaMSSgJtuD05wAkxe0a8O8/CA8ySo5lRErzZ5k4axba10GlJRpk+KWSa7nwceeKA+A0gnbkE7NmOIMWlZu1TmSQh00G6NLLo1coDBKmIDbsCbDFE1JxizdTOX+LKQgd6cw00w4NWpS9/2dgTatv6INjYm4KjaiIQMwevIf+BKmrNGKtYRBg1kpdCns38sQEM8/elPp0KceHmLSNzUwO0T5Iwwc1n8O1osAtErrLqHjSUBcuX0Iq3AenCrMVQ6QtqmExtZnI563VZ1fxAq8AhKhiXyDpZIKhZbJJX7HM5QiWO7Ag5kRJve4JYF4y3qInDpG3o3TfYwK8GVI+aCTMvkci/VmzOg1rGc3qhDX4W4qMhmclwKVHzKeNqM1cWnA+AzxYIR3/a2t2FMG1bbNS4Q2+WAQThgWyhyK/vjH/94jj+My6/g+BOlUWAMEU5K+tgUNt/KjxhkwsLtpEajd5F8sBDNIC04d86CBkgJYt9EDjZPNSfHbqJgOnLSjbOukBmxz2YgCNTcTql2MntIvoLPal+aEnZWGCC3hXknKHDr5z4eaWv5kThNgFxM2MbXLR66Id8pspUsZHy8etODn9qipG4/LQwOOJ1aE7X0N9K0VbeoubaOFREKxsBmrhs4Ht+7DuhgVOXMA+k4wcUedY5rOiZVYzl1zhkP2Gz4EKgZgdnPdOv/aMTNBKntzHcywc3oTId4xsBDXzIzPZi7fnCIlWPKQDg8uOHFcwDVgRyQ7dmDzaWV1hVmdmcPogzkyh/B4ashXbm8R/XuV5my1E9ug6O2TJyEmiCwOjGcIFOcJxibfcCm3n8SqvJoCK+csjAnJ6RFONq6wYClJBbtqkefXxdUE8hHS9+iZQJt4Rz5WSDLPaGNi5CQ/o2VyyP2NLgJnm0BnTVaGtcV87UGnFM2rHK6CvH4pmhz6p95IYycfY4wc1n8O1osygxh15eyLbYBbBb+sCRzgT+j+HSC27YHk7KXdWOfevNA+KJ5D4gK5XOKuK2jZ8aNjaklY8QoJD0oD2Z9vm+2g2G7kBXIzCEuRoNPrzYWqnFtAetbxy5zQYKNoOE8OMaj+WzZYwqXLNWPvQRRSevT64SbNd0cx6gzwudELBRmMLWZwiH88H/Y9hHX9LqZam7L5I/Wp11sMCgqXhM1oYVPFVHZn4BHCVlEeqD2unHSZRDGzUToFVSj0VUooZfK9j/dfWpX7qEi4tEJtOXTirQvt/AReWuCUKQ5XUORcXWUkdQu2Yh9WmrMM18LViVO94opFVZG+j3SVsnCwMLAwsBpGCC17QHsb3JjlJ4jwenUkXfxtN5Pqe3DAVuReEfZ6xQwXzd34Cl9rLrnxADrjYlpkzNqf8irPGq8yhcGFgYWBhYGYIBic9+CwHVpn6LlwXaUc/3qFiQ2ZByt/OT2+i5/8A8lvs1apivFgE/b+eR5XOYXbtYe90pXYXW+MLAwcLdgwNmnT1OcrzkU4NzungheAy548m1q3arh33Zk64Ru77W+BjDutiE+8YlPuDbk/M7Rw2TuS+NOkLNeLQwsDCwMLAwsDFwaBg59HXRpo62OFgYWBhYGFgYWBu5WDCyNe7eu/Jr3wsDCwMLAwsD1YmBp3OvF9xptYWBhYGFgYeBuxcDSuHfryq95LwwsDCwMLAxcLwauVeP6wtpVroSfvoppyqIjlsqpPbvaByo3DNuGYmMK65OMOqd2eD31Bcnah3m6nqHXKMGA6BMoZxI96iCiEK3g+93K4jEl/lGXSrtNbnCh66AjRN2AWfugSJiX4xMRxKOCXB5pJe60ABfCRAhseaR+1bksOk+HlyK4MN1eaBfAglmeNMEzK+81i+BWQvrPPwTqdnutGldcJ3HX2sDTXZjOXShf3iSPwqhbYWgE5aqAq6km3ZIIR/N73qMOr6dcNLuNlXA9465RCgMsSJTTDUJ7EpaIQgEO902IFVG3YvZ1qXTf5GaXiLFV0YBv3kzFN/Z5yfF5sT+E1jpeX/gtFGsjcWY2oU2fQsuR2xe3LNPtpQguwACpG0tcGFQR946j5UjNvWYRntOnt0JXHmne1rlRETDOscGFC8E5NyHyLadg6L5kPxWbq/5dhQGxBebJFS6IDXRYKRr3VHrBzu/E5kK7+7sTIb8dYJaHzkbC57m3AzBXB4Nwj5UI5LJG2WsWISeF0hR49dQhHtnjCl1NXVdWO6GP/UyWHpFTGODSOSVjQaXlMRI4BA8TyFfsVtV0sh9eSNiXvvSlNoticgo42Vb43d/9XSFaNGd21SudGEtEWcM9//nPZ16liViggqjpRzhiIVhTKK63aGpcJaKG2vCBQUBzrwSnFh1UwFJ4IRY/+MEP1rj7fiyPyQpzmjriDEMlN4JuhcZOoejBYrj4qFz0Fn0mo8N+slXCVhURWoDsKuEDqSRIE2C8gnzxYKHU/gYMBk19uxyRWmHGXwGWV2cuhHgo/mpcQURFVY2zobsKDA44af8Y4Jv51srKY8FPJbZqCEai1jYvggS3lafFdg1arLjwsyz0TYd+no8Oqx85Pl/5ylfWT+gqJySLWIRYQzOkHBmkzgTULkoRiXVEY4gTlaIKKJKtLJAbC3GKL53ktfvZKRG+HwkJZovmi+RSU1x+oVxRcuUCEdPbK1JStNgNlXZXDdmLeW6m4sz507D2JVw4oAIb4sEa+335BTEPFWjm4YcfhgGzsApJQLLBmOl0IanZ8dRBTuIjctmZhZjA3K1BkQli+TzLZiZqsZjAZoS2z9yB0TdY2MKpL9h98eaZNGk4zjlpPwgf2UJxsXWJqLwg/eiZjwT7WBc5Blo9ASrxtJX7A/aZbtIuuQZR/tvaIlQrIq2NpAVKoIuIg1v9y6mgQlVGosQyRAFAhowql4ZI/EirAx5SNOUjYVWtPEwE1xHkTxZa1hDzApLte5yUomxCBTe48qTh6w4xkecI441vfCPMIC3BsdNJaRbTCTwoHK0W4YWACRakC6WEIcdVi4RHn6HDX/p1LpifEZ24xU9BwEWalnLcTMTd1tIclFsY4bxFD5eFI1nVSJw0b/8L7wkjxKtg9+KDa065qkBzi8xCKUqhhXMql5MQ29/+7d+OEGVgxW/YQ2XCXcRzEvMP//APyTux05COcm/BhgHoZvoDqBhSubCij3vc47AHKjEuS4QTYNRPJKaeVYABodHAg68ck5igyObKASNzAxUoVQP+NxEr2k5z8yy1gzgvMJbyv//7v7dHcYDdVutOiiiELjMlvCBB5Bph8cWy0VBKdunwCF8GEK0PThktlB9ZCKFwYFiegwAAS0HsaBUIfdP0pyE0ggFxt8CjMAdC2BJmyEF+KpG7QzCWj6yvyl7RJX5S8xZF3icrbvmsvsg4bZ+ez0GHbQ8sFfRWJfhQ3H8/DYRO2AHoQeqY5JNRPgJ1hFJEYgqi6FG3kgeYO3p21KorQkrkdErC6mBXdZz0bGYn2qrmaF6CGqyEoph36lgO5AFyKy5fkHJkpjyq17pDbEulo1VD9sksyyAjNfSpN/0QIkgXUekfEqwIsbuB7YKYhwoEL9Khk0VYMn3yyBAbjI0gyezwOFKBfNH/ZTUQs8lEEAzS4sHTmwmGbvGXgPXsNqnWUKlnltxmRpuf5CBpKHkfGx3/RlAcoUmkbmkkOSDEmHRySwh2H1F5cfrBxSZlXcRlhECSGtjELzqxwcApVIi8C7Yr+9nV6CNyrSbyvuhH/xiEZFPOcEQGONcCwTMjieRRTqRELJPqjEKpn4ip0Ll0FFCNwqXHIJdUngirFtqR4DqC/NFCYzqsh5GZmLjJFIDHpIiuRTzm6+doiIk8twQmCDMWxaJLimMupVlG8ISAoYsSRGDJG8GK3a/a/xkg/ub8xm5NNcQnaUy0HVlsD1E9Unt7JZT9WbhFTU1K42IqiRqqOYFFqfuJo+TDSjkpj8QNSl9SNiXCLDwyTeVwYOq3GpeCoYNTTtLBheduP60sI5Vs/goqtEJSqxCa+8xnPpNX1LAcL1Wt+0DWV1fMCAkuNtW6wLAZbaCdT6RyjqWZOBYPebFsUs5zQp5G4x5ZCCwHYGSkOT6BDXc0PI9WoUAloL/qq76qTLEqp7osJb9CSnKDYK5xUQhzvnpg0GCM+pmHc9Bh28NI4xKv7JgYHPjQ3OFZw5HEHKGUeDLrGGeal8ZN6rdYosoRHnIlC1rYLAExykKtQiYLH4afwLM6so7kFfOZ6vIcsWIUzy2VjlYNUyCSYhNKKPKCcUATE53pH1cS9PzhLXgXxHxQwbWTPkMejl03GBtBktnZ56W5iaC6L3/5y/npRgUjw3NpXBnPaFkoTQWaybpIcdjOqH1O9nW+rhRy2ASrR2jS4lKxZXHmstJc4x6kH0KPog1IuJLOiMZ1Vm3fWfBDGnLaT62odzTcpgmU0kMKJV1gxEjklwoMensYnE7SskU4AFJO5pBgqDqLy1hJeZIheh4Jq3bcieA6gvzRQoc1yOeMheMIfHjwEzdRBCkfDTGS51QVQkIeae6YHBMhntIsI3hCwNI1pmFu2CSBVYsNz4fOce2owOHPOkmlFIcMn4ONPDOcVgAoZgNWqtV/O2v1K48YmzSvbMxt+LytXPHcGhbeWyatXQgWoqJkeWSWGhQvgaESOmarna7s/TeD5ievbCWZItrgwqDdflp/lD2H5E3VIQcgKVAZTwsPzI7WY9wFgO+FmU+MIgVYkr9pU60LjDpO/slE2zIGmhN7JSCEYQqjkljZTlXCviMLwW7F28QWEoRb118d50xWIaACA6rpJ4bIHnjotXNKORu8i4S20HytYK04Lx/KwTlgO7NtKnTp8Ehbs+bqYGdwi6Erc5+HmJ+jdE9yyEYyMjv+AAMz4tlu3EpWEOsCoABGXZU4lvQkVfPKjoo5QnESkfvZzVdNRrliE1QaryDM68q+PL0hJ3/8okmsuR9iX3IE87ZQ3CFpyztFqXPthAcLY/+/vbvXkbRWwgB8E0SkRwJuAQkuBDKQEDmXgERACBkhEJCQgkggIyIBiQs6j/Suao3/trdntndmxxOMuv35s6tel+vPbntFCfS8KAzN66AwWDVG3Iho2CIM4OZCSQ75lBgAeHsXZ8uFmrQKYeakklXecKbSJTKpWXdUAzYNXnJa8oXyo+Va9ci9eFnokSMBeI7FN0eY/H3OfN/dOJqxBLQBFzxPiQfLSoFLF9dkV5j1y+znqm2kfB26yIt0+1RZtT1uFNcl4K8GOpqnDAoxIzw8flC0va+6SJ1Rn6tPbsuQqSBgbRtc0RPRbRv01tRGzC1uu6LgzU4nMtQKuUtWbsTdpJyzJnQYF4d02WqNuuGVu60FEz55Zp+trkXjyARqUJ5EUE/Xm7rSIFo2o1rO63Ppqe5pe5eq5LCnpHbTTr3eMptOw68K7aMqnFKl0Ao3OYCSiIQHlGtN28pTYihlipiLRCMYRcExGdJXBm8K5iUDoV8egDY5SdLyXFfqLIsx01FQn71Hs/vqW/+m6BdhT4kZ0ShZMujUVo24D/IT+NpY3EvkcOyxSur13DTM7xFyWYBgezi51nS7d6v+HtKpyHVckJyphHTSVXWEv0VM6hDXqcXdzB0tTKeqVwx3Ia+arE9dIzoF8ArkdV13ixIPmqvsRCG2p6Tl1+tTwjqU8pVT7t0p4FWfy8UDlhmWj5FdM7O4OxfKJHaqHYStrj59WfkZ1WMsrqnH7MFTcpLoUiBWBzZo7MV1fBHX4MrFvXkqpNZRFPhK07bXIQTqlbJqe9worgvBb0W6G+hu1iTQbHtfdZE6bcvhCALYbId7RG9Dz3T2dS08E+vIdzmStV9p7K9KZHgocRmGlIjJar5VHSsQXHLxa+6MrJ/uCNFwReGy2aksFx+eZX64eHx8fzwO3rEEDk2dnEZk3RqnxDI525Anc1JPrZPTOFTMtJ3aqKK+xI7K9eI///xjALjblwDSEQNSm9TtcKHpBFWj9pwSwxbahWSjROZDYlzIWBiDmCXw+NrkOGvtOr1kIFTju2hE7shIoUrJZhQYZrEgR8ooTEGWELakIa0kkFLB8klVw3gJEjrrZ1d6B0XtbBJjcRjLCcvrV8hhS17btXKjlvbZV5Jj84s/So1LR36sp65IvRDS6prYSNJqWfJWIc1rpCQVWtqw7yvpqt9mkK5KVEjAVmV1tGPKZPNR24jPm1HratZXXQs3MZXpI3om8wkrq84dkdcO7SZxFbllM6QTCUm7JUedSyhZcdGWA7zdymdHN6YKzLEFSR1OvOWq5Bgk/G16ItuXyKT1CKs8xFhIp2VKqUz7HeWHemw3k1KPsXYkU19mR4ycLU57Z+JlxRXXRIvutWAZrEwHnyk6wQnNKUOTcj6KEGjUXXnKfZkqqxZ/fa0U1yXg7wfarEn6hKUUTCeqaf2hS7poqaVd6S7qN8hQcWZxFkNTbU/PKHhjybO9ykaaIpBnMBK6ka0eq3Yl1Io5FlEgzSLRUUEI1yRkOFCmn8q1z9C4SvLYXxNNTbYMrbSGLuwMshqXrAWNCT4oEA6TOQtj5rAXp3FGS6E5nzUziTWpG86B6fHCduxWkCfJZDYBLGkgrLMKHQ4Mv30uU7h0KiMkOzQNE6fEQBWksNKgSR7EAEv/2sggNw4HdSxgyFen00sGIjXRY2RBl2zMahTInPVF1eBG+Kgzf53qlD+U3jCyKlsCbH+zQc9imTH2SDRZUgFbApZ9y56K3Zn/zku7Qg5b5HXNjBEnGJJJXlqeGlDylg2fVDOCTUWPVqReDmnal6g0RTFIbk1+IBPdLsHF57NEYtOjdLq3fvnlFzk9VKUF4pod+JSIDZC29ys3QPDBUXktKVzNnRaK9jNLgx7CI+g0HBrn93Q/bLgj8ulORsRMtzykC27NmH6/hJIVF225vQ78EtusjJQBhTxzm5z2dD4yXfadsmQEwyvCAP43BC6RSYPLNDI8Mk88YMteKIlav6P82LliY3nOozAvsuatcRSCMRPH6NNj0/xkAfKy4mrZQoJHsic6hMolUUSXafQhs17jLI1FazyuRmSlrNr6G8V1CfibgdYLUlkrZLAI4DK/FAo0KUkTyky8pIuWWmEJtUaMhe8mCzVLVDgiVWdPzwqo/5QTwfyJeyhZoAvVLTr6UHuVs68v1QxV9iQbDFlTvpjARTxEy/gsrq8G84ETZx3XfPaHE31nr7J5woRQKBqhWehuAHmFnbNgoISbT0llj7FyuxaFU3LFJo8tWjH2omT+XfXY7pwySXxVn6Fl8Gj/VBvbafekoIHx4NNZDIuFTke1RyaNmNXJYvnKsbII13FdXy0nj/uD6ulIjJlmHyAe7ds00rQwVR7XwUYSC9sQoym46nLO2Tl14UDolCAa1hax6SiIh0bRMT87HnlLpBMORNzWR69EYPjIPEEqKcjLj2WvstdJMOkKtnZRZftS1+zLymH7ei2U6pps2HOevcrKLVvg/a233kIwaiOoK1JXkEYnlpC3UoF3wZCBg4axs4d2FAleS0aQD0e2bSdOHfOLtRBYmIDGlytGDPIoZrt+g5RNW9NRU782FuVd7NceV6iyMeYg8gikvTkjeXdBPlAwqLoweaVDeWm66BBTMqWknYPq2Eth/haFwnFWoWNQcpjCMRcMq+7ojdRfzUd7yCFAIfiTJ7C3K/UvkUleO3HF2jvvvJMNGbY4eP2O8sNUOIAJXOSBx0BEs3PKxhHso9PcN8XsHjW5mN4CJB9q59RKXLv6JJ/iSiHvgUsEOnLIKDL8KSda0myEUDl4DZbyTvtJknlR+UZZtV2vFJc6l4A/Hehk0Wy5Bx0ZsDRW21olIRAPsexknHax0eeQoVpNZJrKh2wOLcuC5ik9nQDHRZ7Osmd7lQMQe2MTbH6L0kK2+sytIIvU2apCygmW6SexM1bjZHFGxhZ4Lpx97bevcDrIYm3pHFurklI92Bnrv7Ad7p4JHFu76SWPED/du5+ndEGSQqt2psQwRbVduXsRMmK1rvDCgVjRsBqFVf22HMIMSftzsjwVVBG7sQVTxYjXNvKxgpKXlcOuEexE3XflBlTX47BOSb0O0qQE4vtPWVNoIoyyncrAHEGjsIQ4Y2svO2pQNVsxuyHvauRLhdkc0O2CHim/hJLxrbHE3IGkHttHm/mo3wxQ19ReJo2IHEmBlm2oBKkauaP8EEhqDS8tVSF1P03a+teJKxecyI1hEhFV3pE04p+SjbJqX5kqLhX24KeF6UDnEfTIQEeq+VIb3S/souOOnBjWFcsbelavVPmbeSO9pJn9dXXQwRix3WOJZJ1NB+L1rk0+qXyRDLksYlaA7rHTh9YUCyduEOc95HMxHxpobxI9ppsokPYUCL5evlbz8WqqaF4rboJsiWUhoASJJUN/7Xrh1Y2fF58aAi/YEPhI4ZA/abexvVIurPWOW8b06KeQ1gD8cveNN7eYTa5brumVQn0af7AISONL7j0EI7Saj1dDJ2Npn7PMv9PThJ4SjBLUD4HTqzk6L75GBN7MGPc1AlpdZ+29fhz5EEg6NBwEDgJXIyC9LILf76O8uvHz4hNB4FjcJzLQh82DwEHgIHAQeM0I3PS2vtfM6+n+IHAQOAgcBA4Crw+BY3FfH/an54PAQeAgcBB4Sggci/uURvvwehA4CBwEDgKvD4He4volkx8bvT56Ts8HgYPAQ0FgPKj2ZpTRQjl06WY9no4OAjdA4D8W1xkiDmbzA/ZVxw4PcnvR6mlXbrOus/RyMvCFr9xjNUcZO9TtHhu8fVP0naOL0u8KeZd71CGod6TQ7x+c/LVphDdmQHMR26bag330Qgbvl3LHELanJb+wcb/7BO9LvTK2eV+TzkmZDjxyHJJDkcZeNiV+P3MvQmJjsEORcofgprvz6CDwuBD4j8V1UqOfsTujbsWDQ5LHG1dWlZ3S4oybHMe1qvPqytGJ2lfX/g1adsGLI3bT0Qp5R644HeZeiHEojB8Qb5rKgObI6021B/vohQzeI+W8E4fw5QjlC5vlYJkvdwzs7mvSuQPb4X+udXP3w4X0p5qzdXBxdyHJJfN1w+BL0XAqHwQeLALPLa6TvZzT6xKrotXk4Wm2mSUnK20uOXAm2UvNbFS5/wAADi1JREFUNAdxiapHaHIuY5WvmqVc0Ox/auqag19vOXqmu7xFOy/MkmkkF2Z1VCHphay1ZKMKdNPzx7kgzOTI9dh1+3qHvKFxtmLx3rZGZU9ZGHtMCUxW9VfIy/jlzM6uTU3hekqVoWlHZyQmHImQxkerEpwyoqOJQgDRqrf2DE55F1rV2so4Cwq3FbMqoGFcndHsVIpyjuPI5opBSBK2sf605LpGtO+AUvd91hVDq8FdiWJwG0FY0TNOMVcpuyNkk3Kb8nsKDwIPGoE679HdVa7Jq68OE3d6gwOd/ejbhRI52VUdN7hVnfrgXG8xpYOH/LnVICedJiPkrr2uvkYc2O36WC231ww4KM49w+7TgJe7a7w1bdYcdlC1071z36fj/l3s7Og1Bx45CMalBenOtUWcg3x2u6SDnzx1jLvj3euY+JYwOT2vhAVH0tch1O5EEvSj0yOH8o/HHY9kf/fdd7pTH4PO2qaqdOQSIYeVuzrGYVhQdXKNs4hDwLRr+Ds5K0eNM64t8m7FwTt2EEYriUXSjoSkGw6Cg+HI/YYtj91nVgE9MNGUk/TdoJCD1FWbIp90hbtT9Ig7R99VF9QoSjSl3IUTFGX6QrYLPdxaiCp/Luid3l7g2mcxDTLg5uRx4+t153v7UCfOixd9lar1iBYmP2DUnf/aJxXKjbjPgksi5KapDYPGiOR4XU0w/vHHH14nGLr48ssvDTdKfJ3OghWzLby5ntIxTC7GUE6KyDYG9egU7jp5GDuOCFXu2Hr3nyAm93ysGASCSaoRYDpVP2S3/baT7upGGFoISClDg+xt+P32228BhRicwg0lcWrdHZQbV7TglutQuKJnM8Vc/y6t3TJ4Ph8EHjUCz28ycNeKA9LCjGlvVrNkvjos1zEruVyiu5wklXn67jxx3yT/na2Vl2a6PFpZXI3QLOqz4oyE83gtH6rvmhFT101S7sql8VfNZkq7nQZhQhwLzxQ9vSbqcvublqOj67YH1++wfC7NoEA1S7OzGeOYffjhh+6wc7Q3Lkxyrr0zVKlsCkWGzQemwsJS7odvX+/IZoBpK0YRnZJyzFKuWspR72y2oEqMy7xRtZrV1LRrcYx8g0FJIFXI09FQYk7YPwoX8rG4vrIc3B32W8zEsaAE5fdGTqvECZQUPcK8mxtRYnFXyMfiOvTO7Rw+w9zrKmsQefLeFv9wnYuVnCmdcoKU0VHiPqj2HqpQ4gBqHFmo1qaxy6GYHnXy016WQMAYb8LG0Lr2ThfuM/GKxjXF9lv/djr8ikEHbjNyxsjr6M9YeD0MWr90jJ+/zSyYMttCncjM1Sv8BkPGLQARjnDxwQcfuBBG17rTl0yM8M5I5UjqWNwVgwbIRgqyQZh5mV5vO+1Au7oRIsrU8bNL9qb8ArBEne9lGkbszUFibwMHOWR6jQizjbYpPfspxuPh/nY8nq8HgceLwDOLS+5NnrrLiSo3bVxLxL3FW10oNLW4Lh2j62M8VHarhned9L2xuLR2Ij/1HREumPY1F3vlclPlq2ZjcesWP1EUhyAhjrfc/ed2ZR/K4rpxiQquEXL9LfWHtirxIVdUYjOFeOGh64JeU5nWSMbYMmcMTPtuR7Yo021rbXdiPl9jccGSR9kgQyutulaN/cBF6hfy1tWY6mrfnQ2xuLZQUW11jwqUaD3LYC2p3WehDNaqkCWIxV0hH4PEg8kruuC+yB8An7atuNbTjz/+2L3CPiDbBXlyxXnFWfBi044M/labXMl+N3U2Ftf1ZHV5CzKIU+5OhpigqrpbMcjs5RqyUIIjIuRzGMwtqr5OZ8GG2ZavNGXQFfKcWrORCcKtZNQNWd2pxVerGHfFID+D05bsCL9tvCKpBe3qRtAsEOe0+bDhV7rLQBfXEhUyQ5meJSRyQpiK7z6lZz/Ffv31V6/zMFpsz+eDwONF4Nk6Lq/W1EoqjIib2I7tlqBT4r5JMYGASfn0zz2p7BC3nVrx53pF1dx2N62cQjaDgc9nL9Idgst8lSvLh32zvPtUk3ql92mufJUKw0jbNUqSZkyhC2sphQRMVU1fPktlhwUkAcSLGqc7pMUEXgzSjz/+uMKhJfu3335LO/6zXoLjrLrJJ7sqOJ3az8lKuV9z1XXLQvvZK8irkrqrB7W8hFp1A69H+1HQFArHpvbIM2N5RRcypbqQ6mRg7PMqrlma6prhT/LWW2LicaVWd7yikYwVAsplI6xWkE/7tMXN/AxOUur/73//q+5WDHIQZVZc6yQlINXPItbrGqmhnM6CPbNTmjsJlJ7hFihEHtGtSddeu7RikDfAYCMe8gAXqU97TOG9NLLhFwvtwAm+eU7puqanEVeStfYpPfspFnColw2b59FB4BEh8MzsMVSIrq06DJiFLgEKH1OCTipVZkx2dMoYBUfVdj/FKbU1faVVcIkGQoDK7FBe2TdbJlblvd4RvrRbkNJd9VJ9Zea3TcV6ya3ZtSQiEcvScUJJjvzIVEu2m6UtXrZ1cpFRyzXDgypcK1x1PfaihJ1r2SmCOzbVxGkytNN2Nk3tkW+5oEmp1Fg4qXhmoPqqW9vKtcojzmlHD/PT7ieqDVZhreonePKuEokELpqhkZJldEvRe9qO7AoroynUFp8ZWc4f2W43DFYL01nw+eef62XF7BTqbmjQDze94Gg6lBsG+YviWte18urElPIKcvJC/LHfe2lEs5vBJdUt/TzdGutyeoqwDT2bKZb2SzmMbJ6Sg8DjQuBZjEspUJ2isVAvRqFZOKr2MbG4PlNSK8aEXFmFEgX647ZbFJzuyawWLMHG7VViBcgqUbZBtV1c0eyUQu3YtVSPxEZUfPngKVcHPRLIYeH99993Pxem3EvMczft5Uglqy1mC/enO42rfU1lrS5NyRn+8MMPWlZBAu3vv/9OzT///JPRZS1WXas2qi2FdG7l7nwt868doZ6wKe3LLlptbUOQorA+aIrurq91nfAe+b/++iuvWOdmq0RmwASprEBY9l+zl/9sF9oGqHQ3W5L2o2dr13FuAvdIQh56hoNHKC0BW9Z3NORqrhj8/vvvrZ0bF7rePoCk+kd8prPgQmbbsYMngstjMGQkwdAgz4xLkkPvNZQbBs1E80U6l4NrIKyPGuWR8j1KlzeinQ2//Oz21/Y8GEvLU2I29OynGHz4PXvHcdXjKT8IPEQEqKr8Wbnh6ecz7UbfWSOkUu0klMXKlsvpOi4L9Pbbbws77EuiDqgwiUfmZLOOCwjRCZXBhsnTiqf1mwVRiik0rJqN5lI51eytePfdd4sLgamFYV9rHZc2N2ntYrWPSUe6s/Rb9esD3S0haamJNyCmZ0IYTn3h3U23FqL8gYiW7N7tyFaNtv3iiy90Z7HQKmZQzTquiIrJ577IKn/00Udpatq1R5IKsmpotvumkKeDKCDne0DPmrQl8Kzjqm+3C+VuvKwN26XC9cmqMzIk9IS8HeW///67oOSrr76itRHMdGUdd4V80gMQFuhTtdCwIzrjZRkVsDLwQi7GAOBZKO0ExtKgtzoyyAm1bsccYYBV8pCpwyOxImCB0544+l3Ua3SYdgEis2HdHadyv+JpO5y90q58+7piUIQKNIKhhW+++cZYG7JsZSKZWXz1+moWrJjt+EKVFX0zgl0kBuJpPg3/lZjZXaiybIEt4kQCJZJJss16t3Nqw6BEOmk3xCamKclRrpX79F6T7i6NaKrWcX1e8UtsDLTtlgbFDwtpjHIsanpmPYX7taJnP8VsRODAhTW+r146kM/Xg8DjQuD5XmXqkgIt6s1q6sDSoKVH6kwI4pHIb7rRl1fOggpVaQ0LwLYQqyw9SI2ajR0itDC75Xcp9Czb7Hc+qUCJq197oBROm1VBNZXzFl3c7h+2ikypeWS3VAy5z0oSfNPg7QafljCqitWRDEcVE1tkWzYT4Frts/jnp0c2T3XsjGRT2aDjhYhj2LNwFIsrMnvvvfeYW+xnV5rWVl1TphYaBZEi1xZ5XxlpQ8PECtRQG5JoN1yHVLreClzKbYiz2Mlsd5T7aqOvlKym7GmiWGO3lE+RRzDkJTP9UlMm04jXr1y8IrFhNHHN1/n555/TVycwtlnFdeso0Y79U7wEGpbdlWZPBTYPp0ZESMpc4RdhHrFPdnErZ7qYfzbe1nflRrzdJbdiEOCfffYZoDgo6osy8fXvv/+Gwdq75/XpLFgx2zFlQhk7q8XKhdHWGoBmNhn62grEuZFGIlrsLh8FGdm+t2JQfZvdNKIpcGVHUttvO+mubkSDhslgVcvTwfWU72hoEOO/5ISSbnqCGlP8A49W9GymmAnLpQ4ZpnZLUsv1+XwQeCwIPL8fVx7YzOecClJfaTAudBa1VA7zlfb1cBrHMvMgTKwFzpvRJt9AIWZT9M06vbwjkSjn4NNPP80rfBRZ32zovbyRU/PNQ4CbYsXBurUfILx53B2OniYCz3ZOYV5WkPct0Pnpp5+eJhZvKteMvUjuwXInGynOsyosoKFkv/76a6H2g6X2EHYzBPwOXurimNubAX46ugECzy2uzhyQJIknvNjvNL4jWdKqdo7csZFH97rFV/tj2y3WN2PBmtzN+rqiI/G3kxP8+llO2CKxhdVPPvnkinbOK28SAnZU+ZOZf5OYOrwcBJ5nlQ8WB4GDwEHgIHAQOAi8OgT+c3fQq+vmtHwQOAgcBA4CB4EnjsCxuE9cAA77B4GDwEHgIHAjBI7FvRHQp5uDwEHgIHAQeOIIHIv7xAXgsH8QOAgcBA4CN0LgWNwbAX26OQgcBA4CB4EnjsCxuE9cAA77B4GDwEHgIHAjBI7FvRHQp5uDwEHgIHAQeOIIHIv7xAXgsH8QOAgcBA4CN0Lg/4GekQPns2QKAAAAAElFTkSuQmCC;" vertex="1" parent="1">
          <mxGeometry x="90" y="40" width="635" height="340" as="geometry" />
        </mxCell>
        <mxCell id="0wOUTwKlv7GaTqWgaDpC-3" style="edgeStyle=orthogonalEdgeStyle;rounded=0;orthogonalLoop=1;jettySize=auto;html=1;exitX=0.75;exitY=0;exitDx=0;exitDy=0;endArrow=oval;endFill=1;" edge="1" parent="1" source="0wOUTwKlv7GaTqWgaDpC-2">
          <mxGeometry relative="1" as="geometry">
            <mxPoint x="195" y="482" as="targetPoint" />
          </mxGeometry>
        </mxCell>
        <mxCell id="0wOUTwKlv7GaTqWgaDpC-6" style="edgeStyle=orthogonalEdgeStyle;rounded=0;orthogonalLoop=1;jettySize=auto;html=1;exitX=0.5;exitY=0;exitDx=0;exitDy=0;endArrow=oval;endFill=0;" edge="1" parent="1" source="0wOUTwKlv7GaTqWgaDpC-2">
          <mxGeometry relative="1" as="geometry">
            <mxPoint x="160" y="472" as="targetPoint" />
          </mxGeometry>
        </mxCell>
        <mxCell id="0wOUTwKlv7GaTqWgaDpC-8" style="edgeStyle=orthogonalEdgeStyle;rounded=0;orthogonalLoop=1;jettySize=auto;html=1;exitX=1;exitY=0;exitDx=0;exitDy=0;endArrow=oval;endFill=0;" edge="1" parent="1" source="0wOUTwKlv7GaTqWgaDpC-2">
          <mxGeometry relative="1" as="geometry">
            <mxPoint x="240" y="472" as="targetPoint" />
          </mxGeometry>
        </mxCell>
        <mxCell id="0wOUTwKlv7GaTqWgaDpC-2" value="Usuario" style="whiteSpace=wrap;html=1;align=center;" vertex="1" parent="1">
          <mxGeometry x="120" y="507" width="100" height="40" as="geometry" />
        </mxCell>
        <mxCell id="0wOUTwKlv7GaTqWgaDpC-5" value="email" style="text;html=1;align=center;verticalAlign=middle;resizable=0;points=[];autosize=1;strokeColor=none;fillColor=none;" vertex="1" parent="1">
          <mxGeometry x="170" y="452" width="50" height="30" as="geometry" />
        </mxCell>
        <mxCell id="0wOUTwKlv7GaTqWgaDpC-7" value="nombre" style="text;html=1;align=center;verticalAlign=middle;resizable=0;points=[];autosize=1;strokeColor=none;fillColor=none;" vertex="1" parent="1">
          <mxGeometry x="120" y="442" width="60" height="30" as="geometry" />
        </mxCell>
        <mxCell id="0wOUTwKlv7GaTqWgaDpC-10" value="peso" style="text;html=1;align=center;verticalAlign=middle;resizable=0;points=[];autosize=1;strokeColor=none;fillColor=none;fontSize=10;" vertex="1" parent="1">
          <mxGeometry x="210" y="440" width="50" height="30" as="geometry" />
        </mxCell>
        <mxCell id="0wOUTwKlv7GaTqWgaDpC-11" style="edgeStyle=orthogonalEdgeStyle;rounded=0;orthogonalLoop=1;jettySize=auto;html=1;exitX=0;exitY=0;exitDx=0;exitDy=0;entryX=-0.033;entryY=1;entryDx=0;entryDy=0;entryPerimeter=0;endArrow=oval;endFill=0;" edge="1" parent="1" source="0wOUTwKlv7GaTqWgaDpC-2" target="0wOUTwKlv7GaTqWgaDpC-7">
          <mxGeometry relative="1" as="geometry" />
        </mxCell>
        <mxCell id="0wOUTwKlv7GaTqWgaDpC-12" value="altura" style="text;html=1;align=center;verticalAlign=middle;resizable=0;points=[];autosize=1;strokeColor=none;fillColor=none;" vertex="1" parent="1">
          <mxGeometry x="80" y="440" width="50" height="30" as="geometry" />
        </mxCell>
        <mxCell id="0wOUTwKlv7GaTqWgaDpC-14" style="edgeStyle=orthogonalEdgeStyle;rounded=0;orthogonalLoop=1;jettySize=auto;html=1;exitX=0.25;exitY=0;exitDx=0;exitDy=0;endArrow=oval;endFill=1;" edge="1" parent="1" source="0wOUTwKlv7GaTqWgaDpC-13">
          <mxGeometry relative="1" as="geometry">
            <mxPoint x="615" y="532.5" as="targetPoint" />
          </mxGeometry>
        </mxCell>
        <mxCell id="0wOUTwKlv7GaTqWgaDpC-16" style="edgeStyle=orthogonalEdgeStyle;rounded=0;orthogonalLoop=1;jettySize=auto;html=1;exitX=0.75;exitY=0;exitDx=0;exitDy=0;endArrow=oval;endFill=0;" edge="1" parent="1" source="0wOUTwKlv7GaTqWgaDpC-13">
          <mxGeometry relative="1" as="geometry">
            <mxPoint x="665" y="532.5" as="targetPoint" />
          </mxGeometry>
        </mxCell>
        <mxCell id="0wOUTwKlv7GaTqWgaDpC-18" style="edgeStyle=orthogonalEdgeStyle;rounded=0;orthogonalLoop=1;jettySize=auto;html=1;exitX=1;exitY=0;exitDx=0;exitDy=0;endArrow=oval;endFill=0;" edge="1" parent="1" source="0wOUTwKlv7GaTqWgaDpC-13">
          <mxGeometry relative="1" as="geometry">
            <mxPoint x="720" y="552.5" as="targetPoint" />
          </mxGeometry>
        </mxCell>
        <mxCell id="0wOUTwKlv7GaTqWgaDpC-13" value="Objetivo" style="whiteSpace=wrap;html=1;align=center;" vertex="1" parent="1">
          <mxGeometry x="590" y="547.5" width="100" height="45" as="geometry" />
        </mxCell>
        <mxCell id="0wOUTwKlv7GaTqWgaDpC-15" value="#objetivo" style="text;html=1;align=center;verticalAlign=middle;resizable=0;points=[];autosize=1;strokeColor=none;fillColor=none;" vertex="1" parent="1">
          <mxGeometry x="580" y="502.5" width="70" height="30" as="geometry" />
        </mxCell>
        <mxCell id="0wOUTwKlv7GaTqWgaDpC-17" value="tiempo" style="text;html=1;align=center;verticalAlign=middle;resizable=0;points=[];autosize=1;strokeColor=none;fillColor=none;" vertex="1" parent="1">
          <mxGeometry x="640" y="502.5" width="60" height="30" as="geometry" />
        </mxCell>
        <mxCell id="0wOUTwKlv7GaTqWgaDpC-19" value="porcentaje" style="text;html=1;align=center;verticalAlign=middle;resizable=0;points=[];autosize=1;strokeColor=none;fillColor=none;" vertex="1" parent="1">
          <mxGeometry x="720" y="522.5" width="80" height="30" as="geometry" />
        </mxCell>
        <mxCell id="0wOUTwKlv7GaTqWgaDpC-21" style="edgeStyle=orthogonalEdgeStyle;rounded=0;orthogonalLoop=1;jettySize=auto;html=1;exitX=0;exitY=1;exitDx=0;exitDy=0;endArrow=oval;endFill=1;" edge="1" parent="1" source="0wOUTwKlv7GaTqWgaDpC-20">
          <mxGeometry relative="1" as="geometry">
            <mxPoint x="90" y="740" as="targetPoint" />
          </mxGeometry>
        </mxCell>
        <mxCell id="0wOUTwKlv7GaTqWgaDpC-22" style="edgeStyle=orthogonalEdgeStyle;rounded=0;orthogonalLoop=1;jettySize=auto;html=1;exitX=0;exitY=0;exitDx=0;exitDy=0;endArrow=oval;endFill=0;entryX=0.627;entryY=0.967;entryDx=0;entryDy=0;entryPerimeter=0;" edge="1" parent="1" source="0wOUTwKlv7GaTqWgaDpC-20" target="0wOUTwKlv7GaTqWgaDpC-23">
          <mxGeometry relative="1" as="geometry">
            <mxPoint x="145" y="770" as="targetPoint" />
          </mxGeometry>
        </mxCell>
        <mxCell id="0wOUTwKlv7GaTqWgaDpC-24" style="edgeStyle=orthogonalEdgeStyle;rounded=0;orthogonalLoop=1;jettySize=auto;html=1;exitX=1;exitY=0.5;exitDx=0;exitDy=0;endArrow=oval;endFill=0;entryX=0.121;entryY=1.133;entryDx=0;entryDy=0;entryPerimeter=0;" edge="1" parent="1" source="0wOUTwKlv7GaTqWgaDpC-20" target="0wOUTwKlv7GaTqWgaDpC-25">
          <mxGeometry relative="1" as="geometry">
            <mxPoint x="240" y="780" as="targetPoint" />
          </mxGeometry>
        </mxCell>
        <mxCell id="0wOUTwKlv7GaTqWgaDpC-26" style="edgeStyle=orthogonalEdgeStyle;rounded=0;orthogonalLoop=1;jettySize=auto;html=1;exitX=0.5;exitY=1;exitDx=0;exitDy=0;endArrow=none;endFill=0;entryX=0.5;entryY=0;entryDx=0;entryDy=0;" edge="1" parent="1" source="0wOUTwKlv7GaTqWgaDpC-20" target="0wOUTwKlv7GaTqWgaDpC-27">
          <mxGeometry relative="1" as="geometry">
            <mxPoint x="170" y="800" as="targetPoint" />
          </mxGeometry>
        </mxCell>
        <mxCell id="0wOUTwKlv7GaTqWgaDpC-36" value="(E)" style="edgeLabel;html=1;align=center;verticalAlign=middle;resizable=0;points=[];" vertex="1" connectable="0" parent="0wOUTwKlv7GaTqWgaDpC-26">
          <mxGeometry x="-0.4667" y="-4" relative="1" as="geometry">
            <mxPoint as="offset" />
          </mxGeometry>
        </mxCell>
        <mxCell id="0wOUTwKlv7GaTqWgaDpC-32" style="edgeStyle=orthogonalEdgeStyle;rounded=0;orthogonalLoop=1;jettySize=auto;html=1;exitX=0.5;exitY=0;exitDx=0;exitDy=0;entryX=0.5;entryY=1;entryDx=0;entryDy=0;endArrow=none;endFill=0;" edge="1" parent="1" source="0wOUTwKlv7GaTqWgaDpC-20" target="0wOUTwKlv7GaTqWgaDpC-31">
          <mxGeometry relative="1" as="geometry">
            <Array as="points">
              <mxPoint x="170" y="680" />
              <mxPoint x="170" y="680" />
            </Array>
          </mxGeometry>
        </mxCell>
        <mxCell id="0wOUTwKlv7GaTqWgaDpC-34" value="(0,N)" style="edgeLabel;html=1;align=center;verticalAlign=middle;resizable=0;points=[];" vertex="1" connectable="0" parent="0wOUTwKlv7GaTqWgaDpC-32">
          <mxGeometry x="-0.05" relative="1" as="geometry">
            <mxPoint as="offset" />
          </mxGeometry>
        </mxCell>
        <mxCell id="0wOUTwKlv7GaTqWgaDpC-20" value="Entrenamiento" style="whiteSpace=wrap;html=1;align=center;" vertex="1" parent="1">
          <mxGeometry x="120" y="700" width="100" height="40" as="geometry" />
        </mxCell>
        <mxCell id="0wOUTwKlv7GaTqWgaDpC-23" value="tiempo_obtenido" style="text;html=1;align=center;verticalAlign=middle;resizable=0;points=[];autosize=1;strokeColor=none;fillColor=none;" vertex="1" parent="1">
          <mxGeometry x="30" y="660" width="110" height="30" as="geometry" />
        </mxCell>
        <mxCell id="0wOUTwKlv7GaTqWgaDpC-25" value="calorias_consumidas" style="text;html=1;align=center;verticalAlign=middle;resizable=0;points=[];autosize=1;strokeColor=none;fillColor=none;" vertex="1" parent="1">
          <mxGeometry x="230" y="670" width="140" height="30" as="geometry" />
        </mxCell>
        <mxCell id="0wOUTwKlv7GaTqWgaDpC-28" style="edgeStyle=orthogonalEdgeStyle;rounded=0;orthogonalLoop=1;jettySize=auto;html=1;exitX=1;exitY=0.5;exitDx=0;exitDy=0;endArrow=oval;endFill=0;" edge="1" parent="1" source="0wOUTwKlv7GaTqWgaDpC-27">
          <mxGeometry relative="1" as="geometry">
            <mxPoint x="240" y="820" as="targetPoint" />
          </mxGeometry>
        </mxCell>
        <mxCell id="0wOUTwKlv7GaTqWgaDpC-27" value="Correr" style="whiteSpace=wrap;html=1;align=center;" vertex="1" parent="1">
          <mxGeometry x="120" y="800" width="100" height="40" as="geometry" />
        </mxCell>
        <mxCell id="0wOUTwKlv7GaTqWgaDpC-29" value="velocidad" style="text;html=1;align=center;verticalAlign=middle;resizable=0;points=[];autosize=1;strokeColor=none;fillColor=none;" vertex="1" parent="1">
          <mxGeometry x="240" y="805" width="70" height="30" as="geometry" />
        </mxCell>
        <mxCell id="0wOUTwKlv7GaTqWgaDpC-30" value="#entrenamiento" style="text;html=1;align=center;verticalAlign=middle;resizable=0;points=[];autosize=1;strokeColor=none;fillColor=none;" vertex="1" parent="1">
          <mxGeometry x="-20" y="728" width="110" height="30" as="geometry" />
        </mxCell>
        <mxCell id="0wOUTwKlv7GaTqWgaDpC-33" style="edgeStyle=orthogonalEdgeStyle;rounded=0;orthogonalLoop=1;jettySize=auto;html=1;exitX=0.5;exitY=0;exitDx=0;exitDy=0;entryX=0.5;entryY=1;entryDx=0;entryDy=0;endArrow=none;endFill=0;" edge="1" parent="1" source="0wOUTwKlv7GaTqWgaDpC-31" target="0wOUTwKlv7GaTqWgaDpC-2">
          <mxGeometry relative="1" as="geometry" />
        </mxCell>
        <mxCell id="0wOUTwKlv7GaTqWgaDpC-35" value="(0,N)" style="edgeLabel;html=1;align=center;verticalAlign=middle;resizable=0;points=[];" vertex="1" connectable="0" parent="0wOUTwKlv7GaTqWgaDpC-33">
          <mxGeometry x="0.625" y="1" relative="1" as="geometry">
            <mxPoint x="1" y="13" as="offset" />
          </mxGeometry>
        </mxCell>
        <mxCell id="0wOUTwKlv7GaTqWgaDpC-31" value="realiza" style="shape=rhombus;perimeter=rhombusPerimeter;whiteSpace=wrap;html=1;align=center;" vertex="1" parent="1">
          <mxGeometry x="110" y="600" width="120" height="60" as="geometry" />
        </mxCell>
        <mxCell id="0wOUTwKlv7GaTqWgaDpC-42" style="edgeStyle=orthogonalEdgeStyle;rounded=0;orthogonalLoop=1;jettySize=auto;html=1;exitX=1;exitY=0.25;exitDx=0;exitDy=0;entryX=0;entryY=0.5;entryDx=0;entryDy=0;endArrow=none;endFill=0;" edge="1" parent="1" source="0wOUTwKlv7GaTqWgaDpC-37" target="0wOUTwKlv7GaTqWgaDpC-38">
          <mxGeometry relative="1" as="geometry" />
        </mxCell>
        <mxCell id="0wOUTwKlv7GaTqWgaDpC-44" value="(1,1)" style="edgeLabel;html=1;align=center;verticalAlign=middle;resizable=0;points=[];" vertex="1" connectable="0" parent="0wOUTwKlv7GaTqWgaDpC-42">
          <mxGeometry x="0.1914" y="2" relative="1" as="geometry">
            <mxPoint as="offset" />
          </mxGeometry>
        </mxCell>
        <mxCell id="0wOUTwKlv7GaTqWgaDpC-37" value="" style="rounded=0;whiteSpace=wrap;html=1;fillColor=none;" vertex="1" parent="1">
          <mxGeometry x="-25" y="420" width="390" height="439" as="geometry" />
        </mxCell>
        <mxCell id="0wOUTwKlv7GaTqWgaDpC-39" style="edgeStyle=orthogonalEdgeStyle;rounded=0;orthogonalLoop=1;jettySize=auto;html=1;exitX=1;exitY=0.5;exitDx=0;exitDy=0;endArrow=none;endFill=0;" edge="1" parent="1" source="0wOUTwKlv7GaTqWgaDpC-38" target="0wOUTwKlv7GaTqWgaDpC-13">
          <mxGeometry relative="1" as="geometry" />
        </mxCell>
        <mxCell id="0wOUTwKlv7GaTqWgaDpC-43" value="(0,1)" style="edgeLabel;html=1;align=center;verticalAlign=middle;resizable=0;points=[];" vertex="1" connectable="0" parent="0wOUTwKlv7GaTqWgaDpC-39">
          <mxGeometry x="-0.2" y="-1" relative="1" as="geometry">
            <mxPoint as="offset" />
          </mxGeometry>
        </mxCell>
        <mxCell id="0wOUTwKlv7GaTqWgaDpC-38" value="tiene" style="shape=rhombus;perimeter=rhombusPerimeter;whiteSpace=wrap;html=1;align=center;" vertex="1" parent="1">
          <mxGeometry x="430" y="537.5" width="100" height="55" as="geometry" />
        </mxCell>
        <mxCell id="0wOUTwKlv7GaTqWgaDpC-48" style="edgeStyle=orthogonalEdgeStyle;rounded=0;orthogonalLoop=1;jettySize=auto;html=1;exitX=1;exitY=0.5;exitDx=0;exitDy=0;entryX=0;entryY=0.5;entryDx=0;entryDy=0;endArrow=none;endFill=0;" edge="1" parent="1" source="0wOUTwKlv7GaTqWgaDpC-45" target="0wOUTwKlv7GaTqWgaDpC-46">
          <mxGeometry relative="1" as="geometry" />
        </mxCell>
        <mxCell id="0wOUTwKlv7GaTqWgaDpC-51" value="(0,N)" style="edgeLabel;html=1;align=center;verticalAlign=middle;resizable=0;points=[];" vertex="1" connectable="0" parent="0wOUTwKlv7GaTqWgaDpC-48">
          <mxGeometry x="-0.2571" y="-1" relative="1" as="geometry">
            <mxPoint x="-6" y="-4" as="offset" />
          </mxGeometry>
        </mxCell>
        <mxCell id="0wOUTwKlv7GaTqWgaDpC-53" style="edgeStyle=orthogonalEdgeStyle;rounded=0;orthogonalLoop=1;jettySize=auto;html=1;exitX=0.25;exitY=0;exitDx=0;exitDy=0;endArrow=oval;endFill=1;" edge="1" parent="1" source="0wOUTwKlv7GaTqWgaDpC-45">
          <mxGeometry relative="1" as="geometry">
            <mxPoint x="-284.42857142857133" y="460" as="targetPoint" />
          </mxGeometry>
        </mxCell>
        <mxCell id="0wOUTwKlv7GaTqWgaDpC-54" style="edgeStyle=orthogonalEdgeStyle;rounded=0;orthogonalLoop=1;jettySize=auto;html=1;exitX=0;exitY=0;exitDx=0;exitDy=0;endArrow=oval;endFill=0;" edge="1" parent="1" source="0wOUTwKlv7GaTqWgaDpC-45">
          <mxGeometry relative="1" as="geometry">
            <mxPoint x="-330" y="489.8571428571429" as="targetPoint" />
          </mxGeometry>
        </mxCell>
        <mxCell id="0wOUTwKlv7GaTqWgaDpC-45" value="Logro" style="whiteSpace=wrap;html=1;align=center;" vertex="1" parent="1">
          <mxGeometry x="-310" y="490" width="100" height="40" as="geometry" />
        </mxCell>
        <mxCell id="0wOUTwKlv7GaTqWgaDpC-47" style="edgeStyle=orthogonalEdgeStyle;rounded=0;orthogonalLoop=1;jettySize=auto;html=1;exitX=1;exitY=0.5;exitDx=0;exitDy=0;entryX=0;entryY=0.5;entryDx=0;entryDy=0;endArrow=none;endFill=0;" edge="1" parent="1" source="0wOUTwKlv7GaTqWgaDpC-46" target="0wOUTwKlv7GaTqWgaDpC-2">
          <mxGeometry relative="1" as="geometry">
            <mxPoint x="-90" y="600" as="targetPoint" />
          </mxGeometry>
        </mxCell>
        <mxCell id="0wOUTwKlv7GaTqWgaDpC-52" value="(0,N)" style="edgeLabel;html=1;align=center;verticalAlign=middle;resizable=0;points=[];" vertex="1" connectable="0" parent="0wOUTwKlv7GaTqWgaDpC-47">
          <mxGeometry x="0.5615" y="-3" relative="1" as="geometry">
            <mxPoint as="offset" />
          </mxGeometry>
        </mxCell>
        <mxCell id="0wOUTwKlv7GaTqWgaDpC-46" value="obtiene" style="shape=rhombus;perimeter=rhombusPerimeter;whiteSpace=wrap;html=1;align=center;" vertex="1" parent="1">
          <mxGeometry x="-140" y="486.25" width="90" height="47.5" as="geometry" />
        </mxCell>
        <mxCell id="0wOUTwKlv7GaTqWgaDpC-55" value="descripcion" style="text;html=1;align=center;verticalAlign=middle;resizable=0;points=[];autosize=1;strokeColor=none;fillColor=none;" vertex="1" parent="1">
          <mxGeometry x="-410" y="477" width="80" height="30" as="geometry" />
        </mxCell>
        <mxCell id="0wOUTwKlv7GaTqWgaDpC-56" value="nombre" style="text;html=1;align=center;verticalAlign=middle;resizable=0;points=[];autosize=1;strokeColor=none;fillColor=none;" vertex="1" parent="1">
          <mxGeometry x="-320" y="422" width="60" height="30" as="geometry" />
        </mxCell>
      </root>
    </mxGraphModel>
  </diagram>
</mxfile>
